<?xml version="1.0" encoding="utf-8" standalone="no"?>
<!DOCTYPE svg PUBLIC "-//W3C//DTD SVG 1.1//EN"
  "http://www.w3.org/Graphics/SVG/1.1/DTD/svg11.dtd">
<svg height="432pt" version="1.1" viewBox="0 0 792 432" width="792pt" xmlns="http://www.w3.org/2000/svg" xmlns:xlink="http://www.w3.org/1999/xlink">
 <metadata>
  <rdf:RDF xmlns:cc="http://creativecommons.org/ns#" xmlns:dc="http://purl.org/dc/elements/1.1/" xmlns:rdf="http://www.w3.org/1999/02/22-rdf-syntax-ns#">
   <cc:Work>
    <dc:type rdf:resource="http://purl.org/dc/dcmitype/StillImage"/>
    <dc:date>2021-10-20T10:09:46.849216</dc:date>
    <dc:format>image/svg+xml</dc:format>
    <dc:creator>
     <cc:Agent>
      <dc:title>Matplotlib v3.4.2, https://matplotlib.org/</dc:title>
     </cc:Agent>
    </dc:creator>
   </cc:Work>
  </rdf:RDF>
 </metadata>
 <defs>
  <style type="text/css">*{stroke-linecap:butt;stroke-linejoin:round;}</style>
 </defs>
 <g id="figure_1">
  <g id="patch_1">
   <path d="M 0 432 
L 792 432 
L 792 0 
L 0 0 
z
" style="fill:#ffffff;"/>
  </g>
  <g id="axes_1">
   <g id="patch_2">
    <path d="M 93.53 367 
L 388.035 367 
L 388.035 73.44 
L 93.53 73.44 
z
" style="fill:#ffffff;"/>
   </g>
   <g id="matplotlib.axis_1">
    <g id="xtick_1">
     <g id="line2d_1">
      <defs>
       <path d="M 0 0 
L 0 3.5 
" id="m02ee07a1fe" style="stroke:#000000;stroke-width:0.8;"/>
      </defs>
      <g>
       <use style="stroke:#000000;stroke-width:0.8;" x="106.83301" xlink:href="#m02ee07a1fe" y="367"/>
      </g>
     </g>
     <g id="text_1">
      <!-- 0 -->
      <g transform="translate(101.10676 387.677187)scale(0.18 -0.18)">
       <defs>
        <path d="M 2034 4250 
Q 1547 4250 1301 3770 
Q 1056 3291 1056 2328 
Q 1056 1369 1301 889 
Q 1547 409 2034 409 
Q 2525 409 2770 889 
Q 3016 1369 3016 2328 
Q 3016 3291 2770 3770 
Q 2525 4250 2034 4250 
z
M 2034 4750 
Q 2819 4750 3233 4129 
Q 3647 3509 3647 2328 
Q 3647 1150 3233 529 
Q 2819 -91 2034 -91 
Q 1250 -91 836 529 
Q 422 1150 422 2328 
Q 422 3509 836 4129 
Q 1250 4750 2034 4750 
z
" id="DejaVuSans-30" transform="scale(0.015625)"/>
       </defs>
       <use xlink:href="#DejaVuSans-30"/>
      </g>
     </g>
    </g>
    <g id="xtick_2">
     <g id="line2d_2">
      <g>
       <use style="stroke:#000000;stroke-width:0.8;" x="224.605833" xlink:href="#m02ee07a1fe" y="367"/>
      </g>
     </g>
     <g id="text_2">
      <!-- 500 -->
      <g transform="translate(207.427083 387.677187)scale(0.18 -0.18)">
       <defs>
        <path d="M 691 4666 
L 3169 4666 
L 3169 4134 
L 1269 4134 
L 1269 2991 
Q 1406 3038 1543 3061 
Q 1681 3084 1819 3084 
Q 2600 3084 3056 2656 
Q 3513 2228 3513 1497 
Q 3513 744 3044 326 
Q 2575 -91 1722 -91 
Q 1428 -91 1123 -41 
Q 819 9 494 109 
L 494 744 
Q 775 591 1075 516 
Q 1375 441 1709 441 
Q 2250 441 2565 725 
Q 2881 1009 2881 1497 
Q 2881 1984 2565 2268 
Q 2250 2553 1709 2553 
Q 1456 2553 1204 2497 
Q 953 2441 691 2322 
L 691 4666 
z
" id="DejaVuSans-35" transform="scale(0.015625)"/>
       </defs>
       <use xlink:href="#DejaVuSans-35"/>
       <use x="63.623047" xlink:href="#DejaVuSans-30"/>
       <use x="127.246094" xlink:href="#DejaVuSans-30"/>
      </g>
     </g>
    </g>
    <g id="xtick_3">
     <g id="line2d_3">
      <g>
       <use style="stroke:#000000;stroke-width:0.8;" x="342.378656" xlink:href="#m02ee07a1fe" y="367"/>
      </g>
     </g>
     <g id="text_3">
      <!-- 1000 -->
      <g transform="translate(319.473656 387.677187)scale(0.18 -0.18)">
       <defs>
        <path d="M 794 531 
L 1825 531 
L 1825 4091 
L 703 3866 
L 703 4441 
L 1819 4666 
L 2450 4666 
L 2450 531 
L 3481 531 
L 3481 0 
L 794 0 
L 794 531 
z
" id="DejaVuSans-31" transform="scale(0.015625)"/>
       </defs>
       <use xlink:href="#DejaVuSans-31"/>
       <use x="63.623047" xlink:href="#DejaVuSans-30"/>
       <use x="127.246094" xlink:href="#DejaVuSans-30"/>
       <use x="190.869141" xlink:href="#DejaVuSans-30"/>
      </g>
     </g>
    </g>
    <g id="text_4">
     <!-- Element rank -->
     <g transform="translate(180.530312 409.097812)scale(0.18 -0.18)">
      <defs>
       <path d="M 628 4666 
L 3578 4666 
L 3578 4134 
L 1259 4134 
L 1259 2753 
L 3481 2753 
L 3481 2222 
L 1259 2222 
L 1259 531 
L 3634 531 
L 3634 0 
L 628 0 
L 628 4666 
z
" id="DejaVuSans-45" transform="scale(0.015625)"/>
       <path d="M 603 4863 
L 1178 4863 
L 1178 0 
L 603 0 
L 603 4863 
z
" id="DejaVuSans-6c" transform="scale(0.015625)"/>
       <path d="M 3597 1894 
L 3597 1613 
L 953 1613 
Q 991 1019 1311 708 
Q 1631 397 2203 397 
Q 2534 397 2845 478 
Q 3156 559 3463 722 
L 3463 178 
Q 3153 47 2828 -22 
Q 2503 -91 2169 -91 
Q 1331 -91 842 396 
Q 353 884 353 1716 
Q 353 2575 817 3079 
Q 1281 3584 2069 3584 
Q 2775 3584 3186 3129 
Q 3597 2675 3597 1894 
z
M 3022 2063 
Q 3016 2534 2758 2815 
Q 2500 3097 2075 3097 
Q 1594 3097 1305 2825 
Q 1016 2553 972 2059 
L 3022 2063 
z
" id="DejaVuSans-65" transform="scale(0.015625)"/>
       <path d="M 3328 2828 
Q 3544 3216 3844 3400 
Q 4144 3584 4550 3584 
Q 5097 3584 5394 3201 
Q 5691 2819 5691 2113 
L 5691 0 
L 5113 0 
L 5113 2094 
Q 5113 2597 4934 2840 
Q 4756 3084 4391 3084 
Q 3944 3084 3684 2787 
Q 3425 2491 3425 1978 
L 3425 0 
L 2847 0 
L 2847 2094 
Q 2847 2600 2669 2842 
Q 2491 3084 2119 3084 
Q 1678 3084 1418 2786 
Q 1159 2488 1159 1978 
L 1159 0 
L 581 0 
L 581 3500 
L 1159 3500 
L 1159 2956 
Q 1356 3278 1631 3431 
Q 1906 3584 2284 3584 
Q 2666 3584 2933 3390 
Q 3200 3197 3328 2828 
z
" id="DejaVuSans-6d" transform="scale(0.015625)"/>
       <path d="M 3513 2113 
L 3513 0 
L 2938 0 
L 2938 2094 
Q 2938 2591 2744 2837 
Q 2550 3084 2163 3084 
Q 1697 3084 1428 2787 
Q 1159 2491 1159 1978 
L 1159 0 
L 581 0 
L 581 3500 
L 1159 3500 
L 1159 2956 
Q 1366 3272 1645 3428 
Q 1925 3584 2291 3584 
Q 2894 3584 3203 3211 
Q 3513 2838 3513 2113 
z
" id="DejaVuSans-6e" transform="scale(0.015625)"/>
       <path d="M 1172 4494 
L 1172 3500 
L 2356 3500 
L 2356 3053 
L 1172 3053 
L 1172 1153 
Q 1172 725 1289 603 
Q 1406 481 1766 481 
L 2356 481 
L 2356 0 
L 1766 0 
Q 1100 0 847 248 
Q 594 497 594 1153 
L 594 3053 
L 172 3053 
L 172 3500 
L 594 3500 
L 594 4494 
L 1172 4494 
z
" id="DejaVuSans-74" transform="scale(0.015625)"/>
       <path id="DejaVuSans-20" transform="scale(0.015625)"/>
       <path d="M 2631 2963 
Q 2534 3019 2420 3045 
Q 2306 3072 2169 3072 
Q 1681 3072 1420 2755 
Q 1159 2438 1159 1844 
L 1159 0 
L 581 0 
L 581 3500 
L 1159 3500 
L 1159 2956 
Q 1341 3275 1631 3429 
Q 1922 3584 2338 3584 
Q 2397 3584 2469 3576 
Q 2541 3569 2628 3553 
L 2631 2963 
z
" id="DejaVuSans-72" transform="scale(0.015625)"/>
       <path d="M 2194 1759 
Q 1497 1759 1228 1600 
Q 959 1441 959 1056 
Q 959 750 1161 570 
Q 1363 391 1709 391 
Q 2188 391 2477 730 
Q 2766 1069 2766 1631 
L 2766 1759 
L 2194 1759 
z
M 3341 1997 
L 3341 0 
L 2766 0 
L 2766 531 
Q 2569 213 2275 61 
Q 1981 -91 1556 -91 
Q 1019 -91 701 211 
Q 384 513 384 1019 
Q 384 1609 779 1909 
Q 1175 2209 1959 2209 
L 2766 2209 
L 2766 2266 
Q 2766 2663 2505 2880 
Q 2244 3097 1772 3097 
Q 1472 3097 1187 3025 
Q 903 2953 641 2809 
L 641 3341 
Q 956 3463 1253 3523 
Q 1550 3584 1831 3584 
Q 2591 3584 2966 3190 
Q 3341 2797 3341 1997 
z
" id="DejaVuSans-61" transform="scale(0.015625)"/>
       <path d="M 581 4863 
L 1159 4863 
L 1159 1991 
L 2875 3500 
L 3609 3500 
L 1753 1863 
L 3688 0 
L 2938 0 
L 1159 1709 
L 1159 0 
L 581 0 
L 581 4863 
z
" id="DejaVuSans-6b" transform="scale(0.015625)"/>
      </defs>
      <use xlink:href="#DejaVuSans-45"/>
      <use x="63.183594" xlink:href="#DejaVuSans-6c"/>
      <use x="90.966797" xlink:href="#DejaVuSans-65"/>
      <use x="152.490234" xlink:href="#DejaVuSans-6d"/>
      <use x="249.902344" xlink:href="#DejaVuSans-65"/>
      <use x="311.425781" xlink:href="#DejaVuSans-6e"/>
      <use x="374.804688" xlink:href="#DejaVuSans-74"/>
      <use x="414.013672" xlink:href="#DejaVuSans-20"/>
      <use x="445.800781" xlink:href="#DejaVuSans-72"/>
      <use x="486.914062" xlink:href="#DejaVuSans-61"/>
      <use x="548.193359" xlink:href="#DejaVuSans-6e"/>
      <use x="611.572266" xlink:href="#DejaVuSans-6b"/>
     </g>
    </g>
   </g>
   <g id="matplotlib.axis_2">
    <g id="ytick_1">
     <g id="line2d_4">
      <defs>
       <path d="M 0 0 
L -3.5 0 
" id="m9871c793dc" style="stroke:#000000;stroke-width:0.8;"/>
      </defs>
      <g>
       <use style="stroke:#000000;stroke-width:0.8;" x="93.53" xlink:href="#m9871c793dc" y="353.65647"/>
      </g>
     </g>
     <g id="text_5">
      <!-- 0 -->
      <g transform="translate(75.0775 360.495064)scale(0.18 -0.18)">
       <use xlink:href="#DejaVuSans-30"/>
      </g>
     </g>
    </g>
    <g id="ytick_2">
     <g id="line2d_5">
      <g>
       <use style="stroke:#000000;stroke-width:0.8;" x="93.53" xlink:href="#m9871c793dc" y="286.938262"/>
      </g>
     </g>
     <g id="text_6">
      <!-- 500 -->
      <g transform="translate(52.1725 293.776856)scale(0.18 -0.18)">
       <use xlink:href="#DejaVuSans-35"/>
       <use x="63.623047" xlink:href="#DejaVuSans-30"/>
       <use x="127.246094" xlink:href="#DejaVuSans-30"/>
      </g>
     </g>
    </g>
    <g id="ytick_3">
     <g id="line2d_6">
      <g>
       <use style="stroke:#000000;stroke-width:0.8;" x="93.53" xlink:href="#m9871c793dc" y="220.220053"/>
      </g>
     </g>
     <g id="text_7">
      <!-- 1000 -->
      <g transform="translate(40.72 227.058647)scale(0.18 -0.18)">
       <use xlink:href="#DejaVuSans-31"/>
       <use x="63.623047" xlink:href="#DejaVuSans-30"/>
       <use x="127.246094" xlink:href="#DejaVuSans-30"/>
       <use x="190.869141" xlink:href="#DejaVuSans-30"/>
      </g>
     </g>
    </g>
    <g id="ytick_4">
     <g id="line2d_7">
      <g>
       <use style="stroke:#000000;stroke-width:0.8;" x="93.53" xlink:href="#m9871c793dc" y="153.501845"/>
      </g>
     </g>
     <g id="text_8">
      <!-- 1500 -->
      <g transform="translate(40.72 160.340439)scale(0.18 -0.18)">
       <use xlink:href="#DejaVuSans-31"/>
       <use x="63.623047" xlink:href="#DejaVuSans-35"/>
       <use x="127.246094" xlink:href="#DejaVuSans-30"/>
       <use x="190.869141" xlink:href="#DejaVuSans-30"/>
      </g>
     </g>
    </g>
    <g id="ytick_5">
     <g id="line2d_8">
      <g>
       <use style="stroke:#000000;stroke-width:0.8;" x="93.53" xlink:href="#m9871c793dc" y="86.783636"/>
      </g>
     </g>
     <g id="text_9">
      <!-- 2000 -->
      <g transform="translate(40.72 93.62223)scale(0.18 -0.18)">
       <defs>
        <path d="M 1228 531 
L 3431 531 
L 3431 0 
L 469 0 
L 469 531 
Q 828 903 1448 1529 
Q 2069 2156 2228 2338 
Q 2531 2678 2651 2914 
Q 2772 3150 2772 3378 
Q 2772 3750 2511 3984 
Q 2250 4219 1831 4219 
Q 1534 4219 1204 4116 
Q 875 4013 500 3803 
L 500 4441 
Q 881 4594 1212 4672 
Q 1544 4750 1819 4750 
Q 2544 4750 2975 4387 
Q 3406 4025 3406 3419 
Q 3406 3131 3298 2873 
Q 3191 2616 2906 2266 
Q 2828 2175 2409 1742 
Q 1991 1309 1228 531 
z
" id="DejaVuSans-32" transform="scale(0.015625)"/>
       </defs>
       <use xlink:href="#DejaVuSans-32"/>
       <use x="63.623047" xlink:href="#DejaVuSans-30"/>
       <use x="127.246094" xlink:href="#DejaVuSans-30"/>
       <use x="190.869141" xlink:href="#DejaVuSans-30"/>
      </g>
     </g>
    </g>
    <g id="text_10">
     <!-- Absolute error -->
     <g transform="translate(32.976563 284.200156)rotate(-90)scale(0.18 -0.18)">
      <defs>
       <path d="M 2188 4044 
L 1331 1722 
L 3047 1722 
L 2188 4044 
z
M 1831 4666 
L 2547 4666 
L 4325 0 
L 3669 0 
L 3244 1197 
L 1141 1197 
L 716 0 
L 50 0 
L 1831 4666 
z
" id="DejaVuSans-41" transform="scale(0.015625)"/>
       <path d="M 3116 1747 
Q 3116 2381 2855 2742 
Q 2594 3103 2138 3103 
Q 1681 3103 1420 2742 
Q 1159 2381 1159 1747 
Q 1159 1113 1420 752 
Q 1681 391 2138 391 
Q 2594 391 2855 752 
Q 3116 1113 3116 1747 
z
M 1159 2969 
Q 1341 3281 1617 3432 
Q 1894 3584 2278 3584 
Q 2916 3584 3314 3078 
Q 3713 2572 3713 1747 
Q 3713 922 3314 415 
Q 2916 -91 2278 -91 
Q 1894 -91 1617 61 
Q 1341 213 1159 525 
L 1159 0 
L 581 0 
L 581 4863 
L 1159 4863 
L 1159 2969 
z
" id="DejaVuSans-62" transform="scale(0.015625)"/>
       <path d="M 2834 3397 
L 2834 2853 
Q 2591 2978 2328 3040 
Q 2066 3103 1784 3103 
Q 1356 3103 1142 2972 
Q 928 2841 928 2578 
Q 928 2378 1081 2264 
Q 1234 2150 1697 2047 
L 1894 2003 
Q 2506 1872 2764 1633 
Q 3022 1394 3022 966 
Q 3022 478 2636 193 
Q 2250 -91 1575 -91 
Q 1294 -91 989 -36 
Q 684 19 347 128 
L 347 722 
Q 666 556 975 473 
Q 1284 391 1588 391 
Q 1994 391 2212 530 
Q 2431 669 2431 922 
Q 2431 1156 2273 1281 
Q 2116 1406 1581 1522 
L 1381 1569 
Q 847 1681 609 1914 
Q 372 2147 372 2553 
Q 372 3047 722 3315 
Q 1072 3584 1716 3584 
Q 2034 3584 2315 3537 
Q 2597 3491 2834 3397 
z
" id="DejaVuSans-73" transform="scale(0.015625)"/>
       <path d="M 1959 3097 
Q 1497 3097 1228 2736 
Q 959 2375 959 1747 
Q 959 1119 1226 758 
Q 1494 397 1959 397 
Q 2419 397 2687 759 
Q 2956 1122 2956 1747 
Q 2956 2369 2687 2733 
Q 2419 3097 1959 3097 
z
M 1959 3584 
Q 2709 3584 3137 3096 
Q 3566 2609 3566 1747 
Q 3566 888 3137 398 
Q 2709 -91 1959 -91 
Q 1206 -91 779 398 
Q 353 888 353 1747 
Q 353 2609 779 3096 
Q 1206 3584 1959 3584 
z
" id="DejaVuSans-6f" transform="scale(0.015625)"/>
       <path d="M 544 1381 
L 544 3500 
L 1119 3500 
L 1119 1403 
Q 1119 906 1312 657 
Q 1506 409 1894 409 
Q 2359 409 2629 706 
Q 2900 1003 2900 1516 
L 2900 3500 
L 3475 3500 
L 3475 0 
L 2900 0 
L 2900 538 
Q 2691 219 2414 64 
Q 2138 -91 1772 -91 
Q 1169 -91 856 284 
Q 544 659 544 1381 
z
M 1991 3584 
L 1991 3584 
z
" id="DejaVuSans-75" transform="scale(0.015625)"/>
      </defs>
      <use xlink:href="#DejaVuSans-41"/>
      <use x="68.408203" xlink:href="#DejaVuSans-62"/>
      <use x="131.884766" xlink:href="#DejaVuSans-73"/>
      <use x="183.984375" xlink:href="#DejaVuSans-6f"/>
      <use x="245.166016" xlink:href="#DejaVuSans-6c"/>
      <use x="272.949219" xlink:href="#DejaVuSans-75"/>
      <use x="336.328125" xlink:href="#DejaVuSans-74"/>
      <use x="375.537109" xlink:href="#DejaVuSans-65"/>
      <use x="437.060547" xlink:href="#DejaVuSans-20"/>
      <use x="468.847656" xlink:href="#DejaVuSans-65"/>
      <use x="530.371094" xlink:href="#DejaVuSans-72"/>
      <use x="569.734375" xlink:href="#DejaVuSans-72"/>
      <use x="608.597656" xlink:href="#DejaVuSans-6f"/>
      <use x="669.779297" xlink:href="#DejaVuSans-72"/>
     </g>
    </g>
   </g>
   <g id="line2d_9">
    <path clip-path="url(#pb3ebebcdd2)" d="M 107.068556 349.784945 
L 374.648409 349.766286 
L 374.648409 349.766286 
" style="fill:none;stroke:#1f77b4;stroke-linecap:square;stroke-width:1.5;"/>
   </g>
   <g id="line2d_10">
    <path clip-path="url(#pb3ebebcdd2)" d="M 107.068556 349.784945 
L 374.648409 349.766286 
L 374.648409 349.766286 
" style="fill:none;stroke:#ff7f0e;stroke-linecap:square;stroke-width:1.5;"/>
   </g>
   <g id="line2d_11">
    <path clip-path="url(#pb3ebebcdd2)" d="M 107.068556 353.656364 
L 374.648409 353.656364 
L 374.648409 353.656364 
" style="fill:none;stroke:#ff0000;stroke-dasharray:5.55,2.4;stroke-dashoffset:0;stroke-width:1.5;"/>
   </g>
   <g id="patch_3">
    <path d="M 93.53 367 
L 93.53 73.44 
" style="fill:none;stroke:#000000;stroke-linecap:square;stroke-linejoin:miter;stroke-width:0.8;"/>
   </g>
   <g id="patch_4">
    <path d="M 388.035 367 
L 388.035 73.44 
" style="fill:none;stroke:#000000;stroke-linecap:square;stroke-linejoin:miter;stroke-width:0.8;"/>
   </g>
   <g id="patch_5">
    <path d="M 93.53 367 
L 388.035 367 
" style="fill:none;stroke:#000000;stroke-linecap:square;stroke-linejoin:miter;stroke-width:0.8;"/>
   </g>
   <g id="patch_6">
    <path d="M 93.53 73.44 
L 388.035 73.44 
" style="fill:none;stroke:#000000;stroke-linecap:square;stroke-linejoin:miter;stroke-width:0.8;"/>
   </g>
   <g id="patch_7">
    <path clip-path="url(#pb3ebebcdd2)" d="M 107.068556 353.523034 
L 123.321205 353.523034 
L 123.321205 86.783636 
L 107.068556 86.783636 
z
" style="fill:none;opacity:0.5;stroke:#000000;stroke-linejoin:miter;"/>
   </g>
   <g id="patch_8">
    <path d="M 198 228.96 
Q 152.534278 157.871818 107.068556 86.783636 
" style="fill:none;opacity:0.5;stroke:#000000;stroke-linecap:round;"/>
   </g>
   <g id="patch_9">
    <path d="M 324.72 280.8 
Q 224.020603 317.161517 123.321205 353.523034 
" style="fill:none;opacity:0.5;stroke:#000000;stroke-linecap:round;"/>
   </g>
  </g>
  <g id="axes_2">
   <g id="patch_10">
    <path d="M 470.135 367 
L 764.64 367 
L 764.64 73.44 
L 470.135 73.44 
z
" style="fill:#ffffff;"/>
   </g>
   <g id="matplotlib.axis_3">
    <g id="xtick_4">
     <g id="line2d_12">
      <g>
       <use style="stroke:#000000;stroke-width:0.8;" x="483.386316" xlink:href="#m02ee07a1fe" y="367"/>
      </g>
     </g>
     <g id="text_11">
      <!-- 0 -->
      <g transform="translate(477.660066 387.677187)scale(0.18 -0.18)">
       <use xlink:href="#DejaVuSans-30"/>
      </g>
     </g>
    </g>
    <g id="xtick_5">
     <g id="line2d_13">
      <g>
       <use style="stroke:#000000;stroke-width:0.8;" x="601.181871" xlink:href="#m02ee07a1fe" y="367"/>
      </g>
     </g>
     <g id="text_12">
      <!-- 500 -->
      <g transform="translate(584.003121 387.677187)scale(0.18 -0.18)">
       <use xlink:href="#DejaVuSans-35"/>
       <use x="63.623047" xlink:href="#DejaVuSans-30"/>
       <use x="127.246094" xlink:href="#DejaVuSans-30"/>
      </g>
     </g>
    </g>
    <g id="xtick_6">
     <g id="line2d_14">
      <g>
       <use style="stroke:#000000;stroke-width:0.8;" x="718.977427" xlink:href="#m02ee07a1fe" y="367"/>
      </g>
     </g>
     <g id="text_13">
      <!-- 1000 -->
      <g transform="translate(696.072427 387.677187)scale(0.18 -0.18)">
       <use xlink:href="#DejaVuSans-31"/>
       <use x="63.623047" xlink:href="#DejaVuSans-30"/>
       <use x="127.246094" xlink:href="#DejaVuSans-30"/>
       <use x="190.869141" xlink:href="#DejaVuSans-30"/>
      </g>
     </g>
    </g>
    <g id="text_14">
     <!-- Element rank -->
     <g transform="translate(557.135312 409.097812)scale(0.18 -0.18)">
      <use xlink:href="#DejaVuSans-45"/>
      <use x="63.183594" xlink:href="#DejaVuSans-6c"/>
      <use x="90.966797" xlink:href="#DejaVuSans-65"/>
      <use x="152.490234" xlink:href="#DejaVuSans-6d"/>
      <use x="249.902344" xlink:href="#DejaVuSans-65"/>
      <use x="311.425781" xlink:href="#DejaVuSans-6e"/>
      <use x="374.804688" xlink:href="#DejaVuSans-74"/>
      <use x="414.013672" xlink:href="#DejaVuSans-20"/>
      <use x="445.800781" xlink:href="#DejaVuSans-72"/>
      <use x="486.914062" xlink:href="#DejaVuSans-61"/>
      <use x="548.193359" xlink:href="#DejaVuSans-6e"/>
      <use x="611.572266" xlink:href="#DejaVuSans-6b"/>
     </g>
    </g>
   </g>
   <g id="matplotlib.axis_4">
    <g id="ytick_6">
     <g id="line2d_15">
      <g>
       <use style="stroke:#000000;stroke-width:0.8;" x="470.135" xlink:href="#m9871c793dc" y="353.657431"/>
      </g>
     </g>
     <g id="text_15">
      <!-- 0 -->
      <g transform="translate(451.6825 360.496025)scale(0.18 -0.18)">
       <use xlink:href="#DejaVuSans-30"/>
      </g>
     </g>
    </g>
    <g id="ytick_7">
     <g id="line2d_16">
      <g>
       <use style="stroke:#000000;stroke-width:0.8;" x="470.135" xlink:href="#m9871c793dc" y="286.938982"/>
      </g>
     </g>
     <g id="text_16">
      <!-- 50 -->
      <g transform="translate(440.23 293.777576)scale(0.18 -0.18)">
       <use xlink:href="#DejaVuSans-35"/>
       <use x="63.623047" xlink:href="#DejaVuSans-30"/>
      </g>
     </g>
    </g>
    <g id="ytick_8">
     <g id="line2d_17">
      <g>
       <use style="stroke:#000000;stroke-width:0.8;" x="470.135" xlink:href="#m9871c793dc" y="220.220534"/>
      </g>
     </g>
     <g id="text_17">
      <!-- 100 -->
      <g transform="translate(428.7775 227.059127)scale(0.18 -0.18)">
       <use xlink:href="#DejaVuSans-31"/>
       <use x="63.623047" xlink:href="#DejaVuSans-30"/>
       <use x="127.246094" xlink:href="#DejaVuSans-30"/>
      </g>
     </g>
    </g>
    <g id="ytick_9">
     <g id="line2d_18">
      <g>
       <use style="stroke:#000000;stroke-width:0.8;" x="470.135" xlink:href="#m9871c793dc" y="153.502085"/>
      </g>
     </g>
     <g id="text_18">
      <!-- 150 -->
      <g transform="translate(428.7775 160.340679)scale(0.18 -0.18)">
       <use xlink:href="#DejaVuSans-31"/>
       <use x="63.623047" xlink:href="#DejaVuSans-35"/>
       <use x="127.246094" xlink:href="#DejaVuSans-30"/>
      </g>
     </g>
    </g>
    <g id="ytick_10">
     <g id="line2d_19">
      <g>
       <use style="stroke:#000000;stroke-width:0.8;" x="470.135" xlink:href="#m9871c793dc" y="86.783636"/>
      </g>
     </g>
     <g id="text_19">
      <!-- 200 -->
      <g transform="translate(428.7775 93.62223)scale(0.18 -0.18)">
       <use xlink:href="#DejaVuSans-32"/>
       <use x="63.623047" xlink:href="#DejaVuSans-30"/>
       <use x="127.246094" xlink:href="#DejaVuSans-30"/>
      </g>
     </g>
    </g>
    <g id="text_20">
     <!-- Absolute error -->
     <g transform="translate(421.034062 284.200156)rotate(-90)scale(0.18 -0.18)">
      <use xlink:href="#DejaVuSans-41"/>
      <use x="68.408203" xlink:href="#DejaVuSans-62"/>
      <use x="131.884766" xlink:href="#DejaVuSans-73"/>
      <use x="183.984375" xlink:href="#DejaVuSans-6f"/>
      <use x="245.166016" xlink:href="#DejaVuSans-6c"/>
      <use x="272.949219" xlink:href="#DejaVuSans-75"/>
      <use x="336.328125" xlink:href="#DejaVuSans-74"/>
      <use x="375.537109" xlink:href="#DejaVuSans-65"/>
      <use x="437.060547" xlink:href="#DejaVuSans-20"/>
      <use x="468.847656" xlink:href="#DejaVuSans-65"/>
      <use x="530.371094" xlink:href="#DejaVuSans-72"/>
      <use x="569.734375" xlink:href="#DejaVuSans-72"/>
      <use x="608.597656" xlink:href="#DejaVuSans-6f"/>
      <use x="669.779297" xlink:href="#DejaVuSans-72"/>
     </g>
    </g>
   </g>
   <g id="line2d_20">
    <path clip-path="url(#p5109cfc3be)" d="M 483.621907 314.942039 
L 589.873498 314.964081 
L 590.109089 315.061565 
L 590.34468 314.875295 
L 590.815863 314.918891 
L 591.287045 314.918605 
L 592.465 314.86236 
L 593.171774 315.069397 
L 593.642956 314.881893 
L 594.349729 314.940549 
L 594.820911 314.887795 
L 595.292094 314.919821 
L 595.763276 314.967996 
L 596.234458 314.931511 
L 597.176823 314.924967 
L 597.412414 315.065848 
L 597.648005 315.072446 
L 598.119187 314.959483 
L 598.82596 314.896469 
L 599.297143 314.896042 
L 599.532734 315.000164 
L 600.003916 314.937702 
L 600.239507 315.028732 
L 600.710689 314.995608 
L 601.181871 314.936044 
L 601.653054 314.960731 
L 601.888645 315.11147 
L 602.359827 314.917219 
L 603.302191 314.983415 
L 603.537783 314.864367 
L 603.773374 315.014428 
L 604.480147 314.844346 
L 604.715738 315.015029 
L 605.422511 314.937441 
L 608.485196 314.89252 
L 608.956378 315.072286 
L 609.42756 314.965045 
L 609.663151 314.910296 
L 609.898743 315.020004 
L 610.605516 314.846981 
L 610.841107 315.093729 
L 611.076698 314.92114 
L 611.54788 314.895855 
L 611.783471 315.024272 
L 612.254654 314.907237 
L 612.725836 314.977168 
L 612.961427 314.888765 
L 613.197018 315.001303 
L 613.6682 314.951664 
L 616.259703 314.875095 
L 616.495294 315.110555 
L 616.730885 314.920058 
L 617.673249 314.933854 
L 617.90884 315.001935 
L 618.144431 314.838414 
L 618.380023 314.932035 
L 618.615614 314.852064 
L 619.557978 314.968798 
L 619.793569 314.929963 
L 620.264751 314.975376 
L 620.735934 314.972178 
L 621.207116 314.899928 
L 621.442707 315.023331 
L 621.678298 314.965685 
L 621.913889 315.026953 
L 622.620663 314.878899 
L 623.091845 315.101721 
L 623.798618 314.986099 
L 624.2698 314.945432 
L 625.447756 314.917742 
L 625.683347 315.007279 
L 625.918938 314.92789 
L 626.154529 314.981526 
L 626.625711 314.734271 
L 626.861303 315.089976 
L 627.096894 314.920455 
L 628.274849 314.896936 
L 628.51044 315.03891 
L 628.981623 314.873319 
L 629.452805 315.028884 
L 629.688396 314.912176 
L 629.923987 314.967944 
L 630.159578 314.834336 
L 632.279898 314.942275 
L 632.515489 314.895956 
L 632.75108 315.127759 
L 633.222263 314.869412 
L 633.457854 315.013059 
L 633.693445 314.887743 
L 634.164627 314.994608 
L 634.635809 314.970181 
L 634.8714 314.754131 
L 635.342583 314.939792 
L 635.578174 314.87495 
L 636.049356 314.935807 
L 636.520538 314.927997 
L 636.756129 315.026387 
L 636.99172 314.889178 
L 637.462903 314.939365 
L 637.934085 314.980239 
L 638.640858 314.868367 
L 638.876449 314.988325 
L 639.347631 314.942913 
L 639.818814 314.97664 
L 641.23236 314.793431 
L 641.467951 315.015236 
L 641.703543 314.893911 
L 641.939134 314.98101 
L 642.174725 314.854958 
L 642.410316 315.064628 
L 642.645907 314.919862 
L 643.117089 315.016073 
L 643.35268 315.096429 
L 643.588271 314.861889 
L 643.823863 314.989649 
L 644.059454 314.875911 
L 644.530636 315.018928 
L 645.708591 314.80523 
L 645.944183 314.906009 
L 646.179774 314.793935 
L 646.415365 314.935355 
L 647.59332 314.986392 
L 647.828911 314.838646 
L 648.064503 314.958582 
L 650.184823 314.941043 
L 650.420414 315.026571 
L 650.891596 314.881461 
L 651.83396 315.000695 
L 652.540734 314.817683 
L 652.776325 315.057002 
L 653.247507 314.908976 
L 653.95428 314.999179 
L 654.189871 314.919883 
L 654.425463 315.083484 
L 654.661054 314.862816 
L 654.896645 315.115837 
L 655.367827 314.846094 
L 655.603418 315.006664 
L 656.310191 314.963039 
L 656.781374 315.093007 
L 657.016965 314.774756 
L 657.252556 315.053881 
L 657.488147 314.937403 
L 657.723738 314.991111 
L 657.959329 314.871617 
L 658.19492 315.005366 
L 659.137285 314.93234 
L 660.079649 315.03473 
L 660.31524 314.948774 
L 660.550831 315.066139 
L 661.022014 315.042476 
L 661.493196 314.977622 
L 661.728787 314.90261 
L 661.964378 314.987418 
L 662.906743 314.848312 
L 663.142334 314.955834 
L 663.377925 314.89205 
L 663.613516 315.017251 
L 663.849107 314.881949 
L 664.084698 314.977996 
L 664.55588 314.950828 
L 664.791471 315.017776 
L 665.027063 314.823809 
L 665.262654 314.928307 
L 665.733836 314.865598 
L 665.969427 314.973272 
L 666.440609 314.892754 
L 666.911791 314.991057 
L 667.147383 314.872111 
L 667.618565 315.057314 
L 667.854156 314.909801 
L 668.325338 315.006744 
L 668.79652 314.919673 
L 669.503294 315.040741 
L 669.738885 314.844362 
L 670.681249 314.98158 
L 671.388023 314.782465 
L 671.623614 315.047242 
L 672.094796 314.831768 
L 673.272751 315.051106 
L 673.743934 314.816619 
L 673.979525 315.030257 
L 674.686298 314.858501 
L 675.393071 314.931018 
L 675.864254 314.808851 
L 676.099845 314.968884 
L 677.042209 314.848392 
L 677.513391 315.13645 
L 677.748982 314.91671 
L 677.984574 314.878022 
L 678.455756 315.093614 
L 678.926938 314.899572 
L 679.162529 314.827015 
L 679.39812 315.047089 
L 679.633711 315.027728 
L 679.869302 314.74533 
L 680.576076 314.988882 
L 681.047258 314.816856 
L 681.51844 315.045723 
L 681.754031 314.804581 
L 682.696396 314.889298 
L 683.403169 315.000992 
L 683.63876 314.891563 
L 683.874351 314.980905 
L 684.109942 314.874084 
L 684.345534 315.059144 
L 685.994671 314.849289 
L 686.230262 315.136692 
L 686.465854 314.799078 
L 686.937036 315.031582 
L 687.172627 314.877888 
L 687.643809 314.960731 
L 688.114991 314.880311 
L 688.350582 314.984559 
L 688.821765 314.856016 
L 689.528538 315.08395 
L 690.235311 315.003092 
L 690.942085 314.982008 
L 691.177676 314.921126 
L 691.413267 315.052126 
L 691.884449 314.816888 
L 692.12004 314.905642 
L 692.826814 314.785075 
L 693.062405 314.973058 
L 693.533587 314.908099 
L 693.769178 314.976247 
L 694.004769 314.821088 
L 694.24036 314.907854 
L 694.475951 314.820435 
L 694.711542 315.016849 
L 694.947134 314.882606 
L 695.182725 315.111082 
L 695.418316 314.979569 
L 695.653907 315.001547 
L 695.889498 314.797082 
L 696.36068 315.020667 
L 696.596271 314.78682 
L 696.831862 315.055817 
L 697.067454 314.922606 
L 697.303045 314.998856 
L 697.538636 314.814237 
L 697.774227 315.180998 
L 698.009818 315.07246 
L 698.245409 315.117527 
L 698.481 314.829219 
L 698.716591 314.992807 
L 699.187774 314.867261 
L 699.658956 315.012426 
L 699.894547 315.019029 
L 700.130138 314.870046 
L 700.365729 314.950991 
L 700.60132 314.879367 
L 700.836911 314.957476 
L 701.308094 314.849533 
L 701.543685 315.08501 
L 701.779276 314.87221 
L 702.014867 315.02975 
L 702.486049 314.954141 
L 702.72164 315.010274 
L 702.957231 314.907885 
L 703.192822 314.98722 
L 703.428414 314.744975 
L 703.664005 314.798084 
L 703.899596 315.053904 
L 704.606369 314.947354 
L 704.84196 315.194831 
L 705.313142 314.900231 
L 705.548734 315.038037 
L 706.96228 314.872452 
L 707.197871 314.913075 
L 707.433462 315.076467 
L 707.904645 314.878616 
L 708.140236 315.049689 
L 708.375827 315.032766 
L 708.611418 314.823521 
L 709.318191 314.929699 
L 709.553782 314.863937 
L 709.789374 314.936532 
L 710.024965 314.849822 
L 710.260556 315.071928 
L 710.496147 314.891233 
L 710.967329 315.093123 
L 711.909694 314.869432 
L 712.380876 314.946648 
L 712.616467 314.738336 
L 712.852058 315.073693 
L 713.087649 314.858087 
L 713.32324 315.049217 
L 713.558831 314.882656 
L 713.794422 315.177211 
L 714.736787 314.781861 
L 715.207969 315.089863 
L 716.385925 314.779922 
L 716.621516 315.004125 
L 716.857107 314.920845 
L 717.092698 315.091267 
L 717.328289 314.851654 
L 717.799471 315.073751 
L 718.035062 314.989977 
L 718.270654 315.103307 
L 718.506245 315.059709 
L 718.741836 314.902077 
L 719.213018 315.037926 
L 720.155382 314.793935 
L 720.390974 314.971851 
L 720.626565 314.919845 
L 720.862156 315.023918 
L 721.097747 314.908549 
L 721.333338 314.990549 
L 722.040111 314.915752 
L 722.275702 315.024451 
L 722.511294 314.893073 
L 723.218067 315.115276 
L 723.453658 314.813308 
L 723.689249 314.737706 
L 724.160431 314.884914 
L 724.396022 314.751642 
L 724.631614 314.854286 
L 724.867205 314.789169 
L 725.573978 315.010578 
L 725.809569 315.022081 
L 726.04516 314.841522 
L 726.280751 314.945349 
L 726.516342 314.706198 
L 726.987525 315.080631 
L 727.223116 314.844699 
L 727.694298 314.929699 
L 727.929889 314.805119 
L 728.636662 315.077781 
L 728.872254 314.913774 
L 729.107845 314.992036 
L 729.343436 314.803746 
L 729.814618 315.12164 
L 730.050209 315.10637 
L 730.2858 314.728496 
L 730.521391 315.083114 
L 730.992574 314.845904 
L 731.228165 314.944893 
L 731.463756 314.913075 
L 731.699347 315.028244 
L 731.934938 314.900983 
L 732.40612 314.92877 
L 732.641711 315.144506 
L 732.877302 314.824489 
L 733.112894 315.000802 
L 733.584076 314.86427 
L 733.819667 314.787384 
L 734.055258 314.916386 
L 734.290849 314.794946 
L 734.997622 314.989122 
L 735.233214 314.936396 
L 735.468805 315.094981 
L 735.704396 314.899708 
L 736.411169 314.825657 
L 736.64676 314.977104 
L 736.882351 314.747232 
L 737.117942 314.964837 
L 737.353534 315.018211 
L 737.824716 314.841297 
L 738.295898 315.02683 
L 738.531489 314.852987 
L 739.002671 315.085438 
L 739.709445 314.902352 
L 739.945036 314.698027 
L 740.416218 315.069488 
L 740.651809 314.759317 
L 740.8874 314.914573 
L 741.358582 314.884962 
L 741.594174 315.015453 
L 741.829765 314.884723 
L 743.00772 315.020225 
L 743.243311 314.828994 
L 743.478902 314.952205 
L 743.714494 314.841362 
L 743.950085 314.994945 
L 744.185676 314.965008 
L 744.421267 314.819142 
L 744.892449 315.153807 
L 745.12804 314.9306 
L 745.834814 315.012551 
L 746.070405 314.856754 
L 746.541587 315.047378 
L 747.483951 314.999977 
L 747.719542 314.781943 
L 747.955134 314.733232 
L 748.190725 315.06573 
L 748.426316 314.859775 
L 748.897498 315.03535 
L 749.133089 314.903481 
L 749.36868 314.973942 
L 749.604271 314.806085 
L 749.839862 314.823759 
L 750.075454 315.097703 
L 750.311045 314.765674 
L 750.546636 314.880935 
L 750.782227 314.862877 
L 751.017818 314.965179 
L 751.253409 314.755443 
L 751.253409 314.755443 
" style="fill:none;stroke:#1f77b4;stroke-linecap:square;stroke-width:1.5;"/>
   </g>
   <g id="line2d_21">
    <path clip-path="url(#p5109cfc3be)" d="M 483.621907 314.942039 
L 589.873498 314.964081 
L 590.109089 315.061565 
L 590.34468 314.875295 
L 590.815863 314.918891 
L 591.287045 314.918605 
L 592.465 314.86236 
L 593.171774 315.069397 
L 593.642956 314.881893 
L 594.349729 314.940549 
L 594.820911 314.887795 
L 595.292094 314.919821 
L 595.763276 314.967996 
L 596.234458 314.931511 
L 597.176823 314.924967 
L 597.412414 315.065848 
L 597.648005 315.072446 
L 598.119187 314.959483 
L 598.82596 314.896469 
L 599.297143 314.896042 
L 599.532734 315.000164 
L 600.003916 314.937702 
L 600.239507 315.028732 
L 600.710689 314.995608 
L 601.181871 314.936044 
L 601.653054 314.960731 
L 601.888645 315.11147 
L 602.359827 314.917219 
L 603.302191 314.983415 
L 603.537783 314.864367 
L 603.773374 315.014428 
L 604.480147 314.844346 
L 604.715738 315.015029 
L 605.422511 314.937441 
L 608.485196 314.89252 
L 608.956378 315.072286 
L 609.42756 314.965045 
L 609.663151 314.910296 
L 609.898743 315.020004 
L 610.605516 314.846981 
L 610.841107 315.093729 
L 611.076698 314.92114 
L 611.54788 314.895855 
L 611.783471 315.024272 
L 612.254654 314.907237 
L 612.725836 314.977168 
L 612.961427 314.888765 
L 613.197018 315.001303 
L 613.6682 314.951664 
L 616.259703 314.875095 
L 616.495294 315.110555 
L 616.730885 314.920058 
L 617.673249 314.933854 
L 617.90884 315.001935 
L 618.144431 314.838414 
L 618.380023 314.932035 
L 618.615614 314.852064 
L 619.557978 314.968798 
L 619.793569 314.929963 
L 620.264751 314.975376 
L 620.735934 314.972178 
L 621.207116 314.899928 
L 621.442707 315.023331 
L 621.678298 314.965685 
L 621.913889 315.026953 
L 622.620663 314.878899 
L 623.091845 315.101721 
L 623.798618 314.986099 
L 624.2698 314.945432 
L 625.447756 314.917742 
L 625.683347 315.007279 
L 625.918938 314.92789 
L 626.154529 314.981526 
L 626.625711 314.734271 
L 626.861303 315.089976 
L 627.096894 314.920455 
L 628.274849 314.896936 
L 628.51044 315.03891 
L 628.981623 314.873319 
L 629.452805 315.028884 
L 629.688396 314.912176 
L 629.923987 314.967944 
L 630.159578 314.834336 
L 632.279898 314.942275 
L 632.515489 314.895956 
L 632.75108 315.127759 
L 633.222263 314.869412 
L 633.457854 315.013059 
L 633.693445 314.887743 
L 634.164627 314.994608 
L 634.635809 314.970181 
L 634.8714 314.754131 
L 635.342583 314.939792 
L 635.578174 314.87495 
L 636.049356 314.935807 
L 636.520538 314.927997 
L 636.756129 315.026387 
L 636.99172 314.889178 
L 637.462903 314.939365 
L 637.934085 314.980239 
L 638.640858 314.868367 
L 638.876449 314.988325 
L 639.347631 314.942913 
L 639.818814 314.97664 
L 641.23236 314.793431 
L 641.467951 315.015236 
L 641.703543 314.893911 
L 641.939134 314.98101 
L 642.174725 314.854958 
L 642.410316 315.064628 
L 642.645907 314.919862 
L 643.117089 315.016073 
L 643.35268 315.096429 
L 643.588271 314.861889 
L 643.823863 314.989649 
L 644.059454 314.875911 
L 644.530636 315.018928 
L 645.708591 314.80523 
L 645.944183 314.906009 
L 646.179774 314.793935 
L 646.415365 314.935355 
L 647.59332 314.986392 
L 647.828911 314.838646 
L 648.064503 314.958582 
L 650.184823 314.941043 
L 650.420414 315.026571 
L 650.891596 314.881461 
L 651.83396 315.000695 
L 652.540734 314.817683 
L 652.776325 315.057002 
L 653.247507 314.908976 
L 653.95428 314.999179 
L 654.189871 314.919883 
L 654.425463 315.083484 
L 654.661054 314.862816 
L 654.896645 315.115837 
L 655.367827 314.846094 
L 655.603418 315.006664 
L 656.310191 314.963039 
L 656.781374 315.093007 
L 657.016965 314.774756 
L 657.252556 315.053881 
L 657.488147 314.937403 
L 657.723738 314.991111 
L 657.959329 314.871617 
L 658.19492 315.005366 
L 659.137285 314.93234 
L 660.079649 315.03473 
L 660.31524 314.948774 
L 660.550831 315.066139 
L 661.022014 315.042476 
L 661.493196 314.977622 
L 661.728787 314.90261 
L 661.964378 314.987418 
L 662.906743 314.848312 
L 663.142334 314.955834 
L 663.377925 314.89205 
L 663.613516 315.017251 
L 663.849107 314.881949 
L 664.084698 314.977996 
L 664.55588 314.950828 
L 664.791471 315.017776 
L 665.027063 314.823809 
L 665.262654 314.928307 
L 665.733836 314.865598 
L 665.969427 314.973272 
L 666.440609 314.892754 
L 666.911791 314.991057 
L 667.147383 314.872111 
L 667.618565 315.057314 
L 667.854156 314.909801 
L 668.325338 315.006744 
L 668.79652 314.919673 
L 669.503294 315.040741 
L 669.738885 314.844362 
L 670.681249 314.98158 
L 671.388023 314.782465 
L 671.623614 315.047242 
L 672.094796 314.831768 
L 673.272751 315.051106 
L 673.743934 314.816619 
L 673.979525 315.030257 
L 674.686298 314.858501 
L 675.393071 314.931018 
L 675.864254 314.808851 
L 676.099845 314.968884 
L 677.042209 314.848392 
L 677.513391 315.13645 
L 677.748982 314.91671 
L 677.984574 314.878022 
L 678.455756 315.093614 
L 678.926938 314.899572 
L 679.162529 314.827015 
L 679.39812 315.047089 
L 679.633711 315.027728 
L 679.869302 314.74533 
L 680.576076 314.988882 
L 681.047258 314.816856 
L 681.51844 315.045723 
L 681.754031 314.804581 
L 682.696396 314.889298 
L 683.403169 315.000992 
L 683.63876 314.891563 
L 683.874351 314.980905 
L 684.109942 314.874084 
L 684.345534 315.059144 
L 685.994671 314.849289 
L 686.230262 315.136692 
L 686.465854 314.799078 
L 686.937036 315.031582 
L 687.172627 314.877888 
L 687.643809 314.960731 
L 688.114991 314.880311 
L 688.350582 314.984559 
L 688.821765 314.856016 
L 689.528538 315.08395 
L 690.235311 315.003092 
L 690.942085 314.982008 
L 691.177676 314.921126 
L 691.413267 315.052126 
L 691.884449 314.816888 
L 692.12004 314.905642 
L 692.826814 314.785075 
L 693.062405 314.973058 
L 693.533587 314.908099 
L 693.769178 314.976247 
L 694.004769 314.821088 
L 694.24036 314.907854 
L 694.475951 314.820435 
L 694.711542 315.016849 
L 694.947134 314.882606 
L 695.182725 315.111082 
L 695.418316 314.979569 
L 695.653907 315.001547 
L 695.889498 314.797082 
L 696.36068 315.020667 
L 696.596271 314.78682 
L 696.831862 315.055817 
L 697.067454 314.922606 
L 697.303045 314.998856 
L 697.538636 314.814237 
L 697.774227 315.180998 
L 698.009818 315.07246 
L 698.245409 315.117527 
L 698.481 314.829219 
L 698.716591 314.992807 
L 699.187774 314.867261 
L 699.658956 315.012426 
L 699.894547 315.019029 
L 700.130138 314.870046 
L 700.365729 314.950991 
L 700.60132 314.879367 
L 700.836911 314.957476 
L 701.308094 314.849533 
L 701.543685 315.08501 
L 701.779276 314.87221 
L 702.014867 315.02975 
L 702.486049 314.954141 
L 702.72164 315.010274 
L 702.957231 314.907885 
L 703.192822 314.98722 
L 703.428414 314.744975 
L 703.664005 314.798084 
L 703.899596 315.053904 
L 704.606369 314.947354 
L 704.84196 315.194831 
L 705.313142 314.900231 
L 705.548734 315.038037 
L 706.96228 314.872452 
L 707.197871 314.913075 
L 707.433462 315.076467 
L 707.904645 314.878616 
L 708.140236 315.049689 
L 708.375827 315.032766 
L 708.611418 314.823521 
L 709.318191 314.929699 
L 709.553782 314.863937 
L 709.789374 314.936532 
L 710.024965 314.849822 
L 710.260556 315.071928 
L 710.496147 314.891233 
L 710.967329 315.093123 
L 711.909694 314.869432 
L 712.380876 314.946648 
L 712.616467 314.738336 
L 712.852058 315.073693 
L 713.087649 314.858087 
L 713.32324 315.049217 
L 713.558831 314.882656 
L 713.794422 315.177211 
L 714.736787 314.781861 
L 715.207969 315.089863 
L 716.385925 314.779922 
L 716.621516 315.004125 
L 716.857107 314.920845 
L 717.092698 315.091267 
L 717.328289 314.851654 
L 717.799471 315.073751 
L 718.035062 314.989977 
L 718.270654 315.103307 
L 718.506245 315.059709 
L 718.741836 314.902077 
L 719.213018 315.037926 
L 720.155382 314.793935 
L 720.390974 314.971851 
L 720.626565 314.919845 
L 720.862156 315.023918 
L 721.097747 314.908549 
L 721.333338 314.990549 
L 722.040111 314.915752 
L 722.275702 315.024451 
L 722.511294 314.893073 
L 723.218067 315.115276 
L 723.453658 314.813308 
L 723.689249 314.737706 
L 724.160431 314.884914 
L 724.396022 314.751642 
L 724.631614 314.854286 
L 724.867205 314.789169 
L 725.573978 315.010578 
L 725.809569 315.022081 
L 726.04516 314.841522 
L 726.280751 314.945349 
L 726.516342 314.706198 
L 726.987525 315.080631 
L 727.223116 314.844699 
L 727.694298 314.929699 
L 727.929889 314.805119 
L 728.636662 315.077781 
L 728.872254 314.913774 
L 729.107845 314.992036 
L 729.343436 314.803746 
L 729.814618 315.12164 
L 730.050209 315.10637 
L 730.2858 314.728496 
L 730.521391 315.083114 
L 730.992574 314.845904 
L 731.228165 314.944893 
L 731.463756 314.913075 
L 731.699347 315.028244 
L 731.934938 314.900983 
L 732.40612 314.92877 
L 732.641711 315.144506 
L 732.877302 314.824489 
L 733.112894 315.000802 
L 733.584076 314.86427 
L 733.819667 314.787384 
L 734.055258 314.916386 
L 734.290849 314.794946 
L 734.997622 314.989122 
L 735.233214 314.936396 
L 735.468805 315.094981 
L 735.704396 314.899708 
L 736.411169 314.825657 
L 736.64676 314.977104 
L 736.882351 314.747232 
L 737.117942 314.964837 
L 737.353534 315.018211 
L 737.824716 314.841297 
L 738.295898 315.02683 
L 738.531489 314.852987 
L 739.002671 315.085438 
L 739.709445 314.902352 
L 739.945036 314.698027 
L 740.416218 315.069488 
L 740.651809 314.759317 
L 740.8874 314.914573 
L 741.358582 314.884962 
L 741.594174 315.015453 
L 741.829765 314.884723 
L 743.00772 315.020225 
L 743.243311 314.828994 
L 743.478902 314.952205 
L 743.714494 314.841362 
L 743.950085 314.994945 
L 744.185676 314.965008 
L 744.421267 314.819142 
L 744.892449 315.153807 
L 745.12804 314.9306 
L 745.834814 315.012551 
L 746.070405 314.856754 
L 746.541587 315.047378 
L 747.483951 314.999977 
L 747.719542 314.781943 
L 747.955134 314.733232 
L 748.190725 315.06573 
L 748.426316 314.859775 
L 748.897498 315.03535 
L 749.133089 314.903481 
L 749.36868 314.973942 
L 749.604271 314.806085 
L 749.839862 314.823759 
L 750.075454 315.097703 
L 750.311045 314.765674 
L 750.546636 314.880935 
L 750.782227 314.862877 
L 751.017818 314.965179 
L 751.253409 314.755443 
L 751.253409 314.755443 
" style="fill:none;stroke:#ff7f0e;stroke-linecap:square;stroke-width:1.5;"/>
   </g>
   <g id="line2d_22">
    <path clip-path="url(#p5109cfc3be)" d="M 483.621907 353.656364 
L 751.253409 353.656364 
L 751.253409 353.656364 
" style="fill:none;stroke:#ff0000;stroke-dasharray:5.55,2.4;stroke-dashoffset:0;stroke-width:1.5;"/>
   </g>
   <g id="patch_11">
    <path d="M 470.135 367 
L 470.135 73.44 
" style="fill:none;stroke:#000000;stroke-linecap:square;stroke-linejoin:miter;stroke-width:0.8;"/>
   </g>
   <g id="patch_12">
    <path d="M 764.64 367 
L 764.64 73.44 
" style="fill:none;stroke:#000000;stroke-linecap:square;stroke-linejoin:miter;stroke-width:0.8;"/>
   </g>
   <g id="patch_13">
    <path d="M 470.135 367 
L 764.64 367 
" style="fill:none;stroke:#000000;stroke-linecap:square;stroke-linejoin:miter;stroke-width:0.8;"/>
   </g>
   <g id="patch_14">
    <path d="M 470.135 73.44 
L 764.64 73.44 
" style="fill:none;stroke:#000000;stroke-linecap:square;stroke-linejoin:miter;stroke-width:0.8;"/>
   </g>
   <g id="patch_15">
    <path clip-path="url(#p5109cfc3be)" d="M 483.621907 352.323062 
L 490.454049 352.323062 
L 490.454049 86.783636 
L 483.621907 86.783636 
z
" style="fill:none;opacity:0.5;stroke:#000000;stroke-linejoin:miter;"/>
   </g>
   <g id="patch_16">
    <path d="M 594 228.96 
Q 538.810954 157.871818 483.621907 86.783636 
" style="fill:none;opacity:0.5;stroke:#000000;stroke-linecap:round;"/>
   </g>
   <g id="patch_17">
    <path d="M 720.72 280.8 
Q 605.587025 316.561531 490.454049 352.323062 
" style="fill:none;opacity:0.5;stroke:#000000;stroke-linecap:round;"/>
   </g>
  </g>
  <g id="axes_3">
   <g id="patch_18">
    <path d="M 198 280.8 
L 324.72 280.8 
L 324.72 228.96 
L 198 228.96 
z
" style="fill:#ffffff;"/>
   </g>
   <g id="matplotlib.axis_5">
    <g id="xtick_7">
     <g id="line2d_23">
      <g>
       <use style="stroke:#000000;stroke-width:0.8;" x="242.076522" xlink:href="#m02ee07a1fe" y="280.8"/>
      </g>
     </g>
     <g id="text_21">
      <!-- 25 -->
      <g transform="translate(230.624022 301.477188)scale(0.18 -0.18)">
       <use xlink:href="#DejaVuSans-32"/>
       <use x="63.623047" xlink:href="#DejaVuSans-35"/>
      </g>
     </g>
    </g>
    <g id="xtick_8">
     <g id="line2d_24">
      <g>
       <use style="stroke:#000000;stroke-width:0.8;" x="287.989565" xlink:href="#m02ee07a1fe" y="280.8"/>
      </g>
     </g>
     <g id="text_22">
      <!-- 50 -->
      <g transform="translate(276.537065 301.477188)scale(0.18 -0.18)">
       <use xlink:href="#DejaVuSans-35"/>
       <use x="63.623047" xlink:href="#DejaVuSans-30"/>
      </g>
     </g>
    </g>
   </g>
   <g id="matplotlib.axis_6">
    <g id="ytick_11">
     <g id="line2d_25">
      <g>
       <use style="stroke:#000000;stroke-width:0.8;" x="198" xlink:href="#m9871c793dc" y="254.892966"/>
      </g>
     </g>
     <g id="text_23">
      <!-- 1000 -->
      <g transform="translate(145.19 261.73156)scale(0.18 -0.18)">
       <use xlink:href="#DejaVuSans-31"/>
       <use x="63.623047" xlink:href="#DejaVuSans-30"/>
       <use x="127.246094" xlink:href="#DejaVuSans-30"/>
       <use x="190.869141" xlink:href="#DejaVuSans-30"/>
      </g>
     </g>
    </g>
    <g id="ytick_12">
     <g id="line2d_26">
      <g>
       <use style="stroke:#000000;stroke-width:0.8;" x="198" xlink:href="#m9871c793dc" y="228.96"/>
      </g>
     </g>
     <g id="text_24">
      <!-- 2000 -->
      <g transform="translate(145.19 235.798594)scale(0.18 -0.18)">
       <use xlink:href="#DejaVuSans-32"/>
       <use x="63.623047" xlink:href="#DejaVuSans-30"/>
       <use x="127.246094" xlink:href="#DejaVuSans-30"/>
       <use x="190.869141" xlink:href="#DejaVuSans-30"/>
      </g>
     </g>
    </g>
   </g>
   <g id="line2d_27">
    <path clip-path="url(#p72b8bb8b40)" d="M 198 280.073514 
L 199.836522 280.073514 
L 201.673043 280.073485 
L 203.509565 280.07353 
L 205.346087 280.073519 
L 207.182609 280.073599 
L 209.01913 280.073557 
L 210.855652 280.073419 
L 212.692174 280.073552 
L 214.528696 280.073521 
L 216.365217 280.073433 
L 218.201739 280.073486 
L 220.038261 280.073452 
L 221.874783 280.073553 
L 223.711304 280.073362 
L 225.547826 280.073499 
L 227.384348 280.073464 
L 229.22087 280.073438 
L 231.057391 280.07354 
L 232.893913 280.073311 
L 234.730435 280.073554 
L 236.566957 280.073539 
L 238.403478 280.073486 
L 240.24 280.073422 
L 242.076522 280.073461 
L 243.913043 280.073699 
L 245.749565 280.073646 
L 247.586087 280.073319 
L 249.422609 280.073631 
L 251.25913 280.073617 
L 253.095652 280.073388 
L 254.932174 280.073668 
L 256.768696 280.073794 
L 258.605217 280.073833 
L 260.441739 280.073335 
L 262.278261 280.073588 
L 264.114783 280.073607 
L 265.951304 280.073484 
L 267.787826 280.073442 
L 269.624348 280.073471 
L 271.46087 280.07325 
L 273.297391 280.073471 
L 275.133913 280.07319 
L 276.970435 280.073196 
L 278.806957 280.073574 
L 280.643478 280.073303 
L 282.48 280.073675 
L 284.316522 280.073625 
L 286.153043 280.073769 
L 287.989565 280.073706 
L 289.826087 280.073476 
L 291.662609 280.073709 
L 293.49913 280.073714 
L 295.335652 280.073427 
L 297.172174 280.073784 
L 299.008696 280.073566 
L 300.845217 280.073643 
L 302.681739 280.073566 
L 304.518261 280.073278 
L 306.354783 280.073499 
L 308.191304 280.073406 
L 310.027826 280.073652 
L 311.864348 280.074093 
L 313.70087 280.073193 
L 315.537391 280.073434 
L 317.373913 280.07387 
L 319.210435 280.073429 
L 321.046957 280.073814 
L 322.883478 280.073539 
L 324.72 280.073479 
L 326.556522 280.073831 
" style="fill:none;stroke:#1f77b4;stroke-linecap:square;stroke-width:1.5;"/>
   </g>
   <g id="line2d_28">
    <path clip-path="url(#p72b8bb8b40)" d="M 198 280.073514 
L 199.836522 280.073514 
L 201.673043 280.073485 
L 203.509565 280.07353 
L 205.346087 280.073519 
L 207.182609 280.073599 
L 209.01913 280.073557 
L 210.855652 280.073419 
L 212.692174 280.073552 
L 214.528696 280.073521 
L 216.365217 280.073433 
L 218.201739 280.073486 
L 220.038261 280.073452 
L 221.874783 280.073553 
L 223.711304 280.073362 
L 225.547826 280.073499 
L 227.384348 280.073464 
L 229.22087 280.073438 
L 231.057391 280.07354 
L 232.893913 280.073311 
L 234.730435 280.073554 
L 236.566957 280.073539 
L 238.403478 280.073486 
L 240.24 280.073422 
L 242.076522 280.073461 
L 243.913043 280.073699 
L 245.749565 280.073646 
L 247.586087 280.073319 
L 249.422609 280.073631 
L 251.25913 280.073617 
L 253.095652 280.073388 
L 254.932174 280.073668 
L 256.768696 280.073794 
L 258.605217 280.073833 
L 260.441739 280.073335 
L 262.278261 280.073588 
L 264.114783 280.073607 
L 265.951304 280.073484 
L 267.787826 280.073442 
L 269.624348 280.073471 
L 271.46087 280.07325 
L 273.297391 280.073471 
L 275.133913 280.07319 
L 276.970435 280.073196 
L 278.806957 280.073574 
L 280.643478 280.073303 
L 282.48 280.073675 
L 284.316522 280.073625 
L 286.153043 280.073769 
L 287.989565 280.073706 
L 289.826087 280.073476 
L 291.662609 280.073709 
L 293.49913 280.073714 
L 295.335652 280.073427 
L 297.172174 280.073784 
L 299.008696 280.073566 
L 300.845217 280.073643 
L 302.681739 280.073566 
L 304.518261 280.073278 
L 306.354783 280.073499 
L 308.191304 280.073406 
L 310.027826 280.073652 
L 311.864348 280.074093 
L 313.70087 280.073193 
L 315.537391 280.073434 
L 317.373913 280.07387 
L 319.210435 280.073429 
L 321.046957 280.073814 
L 322.883478 280.073539 
L 324.72 280.073479 
L 326.556522 280.073831 
" style="fill:none;stroke:#ff7f0e;stroke-linecap:square;stroke-width:1.5;"/>
   </g>
   <g id="line2d_29">
    <path clip-path="url(#p72b8bb8b40)" d="M 198 280.825912 
L 199.836522 280.825912 
L 201.673043 280.825912 
L 203.509565 280.825912 
L 205.346087 280.825912 
L 207.182609 280.825912 
L 209.01913 280.825912 
L 210.855652 280.825912 
L 212.692174 280.825912 
L 214.528696 280.825912 
L 216.365217 280.825912 
L 218.201739 280.825912 
L 220.038261 280.825912 
L 221.874783 280.825912 
L 223.711304 280.825912 
L 225.547826 280.825912 
L 227.384348 280.825912 
L 229.22087 280.825912 
L 231.057391 280.825912 
L 232.893913 280.825912 
L 234.730435 280.825912 
L 236.566957 280.825912 
L 238.403478 280.825912 
L 240.24 280.825912 
L 242.076522 280.825912 
L 243.913043 280.825912 
L 245.749565 280.825912 
L 247.586087 280.825912 
L 249.422609 280.825912 
L 251.25913 280.825912 
L 253.095652 280.825912 
L 254.932174 280.825912 
L 256.768696 280.825912 
L 258.605217 280.825912 
L 260.441739 280.825912 
L 262.278261 280.825912 
L 264.114783 280.825912 
L 265.951304 280.825912 
L 267.787826 280.825912 
L 269.624348 280.825912 
L 271.46087 280.825912 
L 273.297391 280.825912 
L 275.133913 280.825912 
L 276.970435 280.825912 
L 278.806957 280.825912 
L 280.643478 280.825912 
L 282.48 280.825912 
L 284.316522 280.825912 
L 286.153043 280.825912 
L 287.989565 280.825912 
L 289.826087 280.825912 
L 291.662609 280.825912 
L 293.49913 280.825912 
L 295.335652 280.825912 
L 297.172174 280.825912 
L 299.008696 280.825912 
L 300.845217 280.825912 
L 302.681739 280.825912 
L 304.518261 280.825912 
L 306.354783 280.825912 
L 308.191304 280.825912 
L 310.027826 280.825912 
L 311.864348 280.825912 
L 313.70087 280.825912 
L 315.537391 280.825912 
L 317.373913 280.825912 
L 319.210435 280.825912 
L 321.046957 280.825912 
L 322.883478 280.825912 
L 324.72 280.825912 
L 326.556522 280.825912 
" style="fill:none;stroke:#ff0000;stroke-dasharray:5.55,2.4;stroke-dashoffset:0;stroke-width:1.5;"/>
   </g>
   <g id="patch_19">
    <path d="M 198 280.8 
L 198 228.96 
" style="fill:none;stroke:#000000;stroke-linecap:square;stroke-linejoin:miter;stroke-width:0.8;"/>
   </g>
   <g id="patch_20">
    <path d="M 324.72 280.8 
L 324.72 228.96 
" style="fill:none;stroke:#000000;stroke-linecap:square;stroke-linejoin:miter;stroke-width:0.8;"/>
   </g>
   <g id="patch_21">
    <path d="M 198 280.8 
L 324.72 280.8 
" style="fill:none;stroke:#000000;stroke-linecap:square;stroke-linejoin:miter;stroke-width:0.8;"/>
   </g>
   <g id="patch_22">
    <path d="M 198 228.96 
L 324.72 228.96 
" style="fill:none;stroke:#000000;stroke-linecap:square;stroke-linejoin:miter;stroke-width:0.8;"/>
   </g>
   <g id="text_25">
    <!-- zoom -->
    <g transform="translate(231.955313 222.96)scale(0.216 -0.216)">
     <defs>
      <path d="M 353 3500 
L 3084 3500 
L 3084 2975 
L 922 459 
L 3084 459 
L 3084 0 
L 275 0 
L 275 525 
L 2438 3041 
L 353 3041 
L 353 3500 
z
" id="DejaVuSans-7a" transform="scale(0.015625)"/>
     </defs>
     <use xlink:href="#DejaVuSans-7a"/>
     <use x="52.490234" xlink:href="#DejaVuSans-6f"/>
     <use x="113.671875" xlink:href="#DejaVuSans-6f"/>
     <use x="174.853516" xlink:href="#DejaVuSans-6d"/>
    </g>
   </g>
  </g>
  <g id="axes_4">
   <g id="patch_23">
    <path d="M 594 280.8 
L 720.72 280.8 
L 720.72 228.96 
L 594 228.96 
z
" style="fill:#ffffff;"/>
   </g>
   <g id="matplotlib.axis_7">
    <g id="xtick_9">
     <g id="line2d_30">
      <g>
       <use style="stroke:#000000;stroke-width:0.8;" x="633.326897" xlink:href="#m02ee07a1fe" y="280.8"/>
      </g>
     </g>
     <g id="text_26">
      <!-- 10 -->
      <g transform="translate(621.874397 301.477188)scale(0.18 -0.18)">
       <use xlink:href="#DejaVuSans-31"/>
       <use x="63.623047" xlink:href="#DejaVuSans-30"/>
      </g>
     </g>
    </g>
    <g id="xtick_10">
     <g id="line2d_31">
      <g>
       <use style="stroke:#000000;stroke-width:0.8;" x="677.023448" xlink:href="#m02ee07a1fe" y="280.8"/>
      </g>
     </g>
     <g id="text_27">
      <!-- 20 -->
      <g transform="translate(665.570948 301.477188)scale(0.18 -0.18)">
       <use xlink:href="#DejaVuSans-32"/>
       <use x="63.623047" xlink:href="#DejaVuSans-30"/>
      </g>
     </g>
    </g>
    <g id="xtick_11">
     <g id="line2d_32">
      <g>
       <use style="stroke:#000000;stroke-width:0.8;" x="720.72" xlink:href="#m02ee07a1fe" y="280.8"/>
      </g>
     </g>
     <g id="text_28">
      <!-- 30 -->
      <g transform="translate(709.2675 301.477188)scale(0.18 -0.18)">
       <defs>
        <path d="M 2597 2516 
Q 3050 2419 3304 2112 
Q 3559 1806 3559 1356 
Q 3559 666 3084 287 
Q 2609 -91 1734 -91 
Q 1441 -91 1130 -33 
Q 819 25 488 141 
L 488 750 
Q 750 597 1062 519 
Q 1375 441 1716 441 
Q 2309 441 2620 675 
Q 2931 909 2931 1356 
Q 2931 1769 2642 2001 
Q 2353 2234 1838 2234 
L 1294 2234 
L 1294 2753 
L 1863 2753 
Q 2328 2753 2575 2939 
Q 2822 3125 2822 3475 
Q 2822 3834 2567 4026 
Q 2313 4219 1838 4219 
Q 1578 4219 1281 4162 
Q 984 4106 628 3988 
L 628 4550 
Q 988 4650 1302 4700 
Q 1616 4750 1894 4750 
Q 2613 4750 3031 4423 
Q 3450 4097 3450 3541 
Q 3450 3153 3228 2886 
Q 3006 2619 2597 2516 
z
" id="DejaVuSans-33" transform="scale(0.015625)"/>
       </defs>
       <use xlink:href="#DejaVuSans-33"/>
       <use x="63.623047" xlink:href="#DejaVuSans-30"/>
      </g>
     </g>
    </g>
   </g>
   <g id="matplotlib.axis_8">
    <g id="ytick_13">
     <g id="line2d_33">
      <g>
       <use style="stroke:#000000;stroke-width:0.8;" x="594" xlink:href="#m9871c793dc" y="255.010251"/>
      </g>
     </g>
     <g id="text_29">
      <!-- 100 -->
      <g transform="translate(552.6425 261.848845)scale(0.18 -0.18)">
       <use xlink:href="#DejaVuSans-31"/>
       <use x="63.623047" xlink:href="#DejaVuSans-30"/>
       <use x="127.246094" xlink:href="#DejaVuSans-30"/>
      </g>
     </g>
    </g>
    <g id="ytick_14">
     <g id="line2d_34">
      <g>
       <use style="stroke:#000000;stroke-width:0.8;" x="594" xlink:href="#m9871c793dc" y="228.96"/>
      </g>
     </g>
     <g id="text_30">
      <!-- 200 -->
      <g transform="translate(552.6425 235.798594)scale(0.18 -0.18)">
       <use xlink:href="#DejaVuSans-32"/>
       <use x="63.623047" xlink:href="#DejaVuSans-30"/>
       <use x="127.246094" xlink:href="#DejaVuSans-30"/>
      </g>
     </g>
    </g>
   </g>
   <g id="line2d_35">
    <path clip-path="url(#pd4935c6274)" d="M 594 273.502281 
L 598.369655 273.50228 
L 602.73931 273.501996 
L 607.108966 273.502449 
L 611.478621 273.50233 
L 615.848276 273.503137 
L 620.217931 273.50272 
L 624.587586 273.501325 
L 628.957241 273.502666 
L 633.326897 273.502357 
L 637.696552 273.501469 
L 642.066207 273.502006 
L 646.435862 273.501659 
L 650.805517 273.502675 
L 655.175172 273.500753 
L 659.544828 273.502134 
L 663.914483 273.501777 
L 668.284138 273.501516 
L 672.653793 273.502541 
L 677.023448 273.500245 
L 681.393103 273.502682 
L 685.762759 273.502538 
L 690.132414 273.502007 
L 694.502069 273.501361 
L 698.871724 273.501753 
L 703.241379 273.504138 
L 707.611034 273.50361 
L 711.98069 273.500321 
L 716.350345 273.503457 
L 720.72 273.503317 
L 725.089655 273.50102 
" style="fill:none;stroke:#1f77b4;stroke-linecap:square;stroke-width:1.5;"/>
   </g>
   <g id="line2d_36">
    <path clip-path="url(#pd4935c6274)" d="M 594 273.502281 
L 598.369655 273.50228 
L 602.73931 273.501996 
L 607.108966 273.502449 
L 611.478621 273.50233 
L 615.848276 273.503137 
L 620.217931 273.50272 
L 624.587586 273.501325 
L 628.957241 273.502666 
L 633.326897 273.502357 
L 637.696552 273.501469 
L 642.066207 273.502006 
L 646.435862 273.501659 
L 650.805517 273.502675 
L 655.175172 273.500753 
L 659.544828 273.502134 
L 663.914483 273.501777 
L 668.284138 273.501516 
L 672.653793 273.502541 
L 677.023448 273.500245 
L 681.393103 273.502682 
L 685.762759 273.502538 
L 690.132414 273.502007 
L 694.502069 273.501361 
L 698.871724 273.501753 
L 703.241379 273.504138 
L 707.611034 273.50361 
L 711.98069 273.500321 
L 716.350345 273.503457 
L 720.72 273.503317 
L 725.089655 273.50102 
" style="fill:none;stroke:#ff7f0e;stroke-linecap:square;stroke-width:1.5;"/>
   </g>
   <g id="line2d_37">
    <path clip-path="url(#pd4935c6274)" d="M 594 281.060294 
L 598.369655 281.060294 
L 602.73931 281.060294 
L 607.108966 281.060294 
L 611.478621 281.060294 
L 615.848276 281.060294 
L 620.217931 281.060294 
L 624.587586 281.060294 
L 628.957241 281.060294 
L 633.326897 281.060294 
L 637.696552 281.060294 
L 642.066207 281.060294 
L 646.435862 281.060294 
L 650.805517 281.060294 
L 655.175172 281.060294 
L 659.544828 281.060294 
L 663.914483 281.060294 
L 668.284138 281.060294 
L 672.653793 281.060294 
L 677.023448 281.060294 
L 681.393103 281.060294 
L 685.762759 281.060294 
L 690.132414 281.060294 
L 694.502069 281.060294 
L 698.871724 281.060294 
L 703.241379 281.060294 
L 707.611034 281.060294 
L 711.98069 281.060294 
L 716.350345 281.060294 
L 720.72 281.060294 
L 725.089655 281.060294 
" style="fill:none;stroke:#ff0000;stroke-dasharray:5.55,2.4;stroke-dashoffset:0;stroke-width:1.5;"/>
   </g>
   <g id="patch_24">
    <path d="M 594 280.8 
L 594 228.96 
" style="fill:none;stroke:#000000;stroke-linecap:square;stroke-linejoin:miter;stroke-width:0.8;"/>
   </g>
   <g id="patch_25">
    <path d="M 720.72 280.8 
L 720.72 228.96 
" style="fill:none;stroke:#000000;stroke-linecap:square;stroke-linejoin:miter;stroke-width:0.8;"/>
   </g>
   <g id="patch_26">
    <path d="M 594 280.8 
L 720.72 280.8 
" style="fill:none;stroke:#000000;stroke-linecap:square;stroke-linejoin:miter;stroke-width:0.8;"/>
   </g>
   <g id="patch_27">
    <path d="M 594 228.96 
L 720.72 228.96 
" style="fill:none;stroke:#000000;stroke-linecap:square;stroke-linejoin:miter;stroke-width:0.8;"/>
   </g>
   <g id="text_31">
    <!-- zoom -->
    <g transform="translate(627.955312 222.96)scale(0.216 -0.216)">
     <use xlink:href="#DejaVuSans-7a"/>
     <use x="52.490234" xlink:href="#DejaVuSans-6f"/>
     <use x="113.671875" xlink:href="#DejaVuSans-6f"/>
     <use x="174.853516" xlink:href="#DejaVuSans-6d"/>
    </g>
   </g>
  </g>
  <g id="legend_1">
   <g id="patch_28">
    <path d="M 14 58.2 
L 778 58.2 
Q 782 58.2 782 54.2 
L 782 14 
Q 782 10 778 10 
L 14 10 
Q 10 10 10 14 
L 10 54.2 
Q 10 58.2 14 58.2 
z
" style="fill:#ffffff;opacity:0.8;stroke:#cccccc;stroke-linejoin:miter;"/>
   </g>
   <g id="line2d_38">
    <path d="M 18 33 
L 58 33 
" style="fill:none;stroke:#1f77b4;stroke-linecap:square;stroke-width:1.5;"/>
   </g>
   <g id="line2d_39"/>
   <g id="text_32">
    <!-- Delegation Space-Saving -->
    <g transform="translate(74 40)scale(0.2 -0.2)">
     <defs>
      <path d="M 1259 4147 
L 1259 519 
L 2022 519 
Q 2988 519 3436 956 
Q 3884 1394 3884 2338 
Q 3884 3275 3436 3711 
Q 2988 4147 2022 4147 
L 1259 4147 
z
M 628 4666 
L 1925 4666 
Q 3281 4666 3915 4102 
Q 4550 3538 4550 2338 
Q 4550 1131 3912 565 
Q 3275 0 1925 0 
L 628 0 
L 628 4666 
z
" id="DejaVuSans-44" transform="scale(0.015625)"/>
      <path d="M 2906 1791 
Q 2906 2416 2648 2759 
Q 2391 3103 1925 3103 
Q 1463 3103 1205 2759 
Q 947 2416 947 1791 
Q 947 1169 1205 825 
Q 1463 481 1925 481 
Q 2391 481 2648 825 
Q 2906 1169 2906 1791 
z
M 3481 434 
Q 3481 -459 3084 -895 
Q 2688 -1331 1869 -1331 
Q 1566 -1331 1297 -1286 
Q 1028 -1241 775 -1147 
L 775 -588 
Q 1028 -725 1275 -790 
Q 1522 -856 1778 -856 
Q 2344 -856 2625 -561 
Q 2906 -266 2906 331 
L 2906 616 
Q 2728 306 2450 153 
Q 2172 0 1784 0 
Q 1141 0 747 490 
Q 353 981 353 1791 
Q 353 2603 747 3093 
Q 1141 3584 1784 3584 
Q 2172 3584 2450 3431 
Q 2728 3278 2906 2969 
L 2906 3500 
L 3481 3500 
L 3481 434 
z
" id="DejaVuSans-67" transform="scale(0.015625)"/>
      <path d="M 603 3500 
L 1178 3500 
L 1178 0 
L 603 0 
L 603 3500 
z
M 603 4863 
L 1178 4863 
L 1178 4134 
L 603 4134 
L 603 4863 
z
" id="DejaVuSans-69" transform="scale(0.015625)"/>
      <path d="M 3425 4513 
L 3425 3897 
Q 3066 4069 2747 4153 
Q 2428 4238 2131 4238 
Q 1616 4238 1336 4038 
Q 1056 3838 1056 3469 
Q 1056 3159 1242 3001 
Q 1428 2844 1947 2747 
L 2328 2669 
Q 3034 2534 3370 2195 
Q 3706 1856 3706 1288 
Q 3706 609 3251 259 
Q 2797 -91 1919 -91 
Q 1588 -91 1214 -16 
Q 841 59 441 206 
L 441 856 
Q 825 641 1194 531 
Q 1563 422 1919 422 
Q 2459 422 2753 634 
Q 3047 847 3047 1241 
Q 3047 1584 2836 1778 
Q 2625 1972 2144 2069 
L 1759 2144 
Q 1053 2284 737 2584 
Q 422 2884 422 3419 
Q 422 4038 858 4394 
Q 1294 4750 2059 4750 
Q 2388 4750 2728 4690 
Q 3069 4631 3425 4513 
z
" id="DejaVuSans-53" transform="scale(0.015625)"/>
      <path d="M 1159 525 
L 1159 -1331 
L 581 -1331 
L 581 3500 
L 1159 3500 
L 1159 2969 
Q 1341 3281 1617 3432 
Q 1894 3584 2278 3584 
Q 2916 3584 3314 3078 
Q 3713 2572 3713 1747 
Q 3713 922 3314 415 
Q 2916 -91 2278 -91 
Q 1894 -91 1617 61 
Q 1341 213 1159 525 
z
M 3116 1747 
Q 3116 2381 2855 2742 
Q 2594 3103 2138 3103 
Q 1681 3103 1420 2742 
Q 1159 2381 1159 1747 
Q 1159 1113 1420 752 
Q 1681 391 2138 391 
Q 2594 391 2855 752 
Q 3116 1113 3116 1747 
z
" id="DejaVuSans-70" transform="scale(0.015625)"/>
      <path d="M 3122 3366 
L 3122 2828 
Q 2878 2963 2633 3030 
Q 2388 3097 2138 3097 
Q 1578 3097 1268 2742 
Q 959 2388 959 1747 
Q 959 1106 1268 751 
Q 1578 397 2138 397 
Q 2388 397 2633 464 
Q 2878 531 3122 666 
L 3122 134 
Q 2881 22 2623 -34 
Q 2366 -91 2075 -91 
Q 1284 -91 818 406 
Q 353 903 353 1747 
Q 353 2603 823 3093 
Q 1294 3584 2113 3584 
Q 2378 3584 2631 3529 
Q 2884 3475 3122 3366 
z
" id="DejaVuSans-63" transform="scale(0.015625)"/>
      <path d="M 313 2009 
L 1997 2009 
L 1997 1497 
L 313 1497 
L 313 2009 
z
" id="DejaVuSans-2d" transform="scale(0.015625)"/>
      <path d="M 191 3500 
L 800 3500 
L 1894 563 
L 2988 3500 
L 3597 3500 
L 2284 0 
L 1503 0 
L 191 3500 
z
" id="DejaVuSans-76" transform="scale(0.015625)"/>
     </defs>
     <use xlink:href="#DejaVuSans-44"/>
     <use x="77.001953" xlink:href="#DejaVuSans-65"/>
     <use x="138.525391" xlink:href="#DejaVuSans-6c"/>
     <use x="166.308594" xlink:href="#DejaVuSans-65"/>
     <use x="227.832031" xlink:href="#DejaVuSans-67"/>
     <use x="291.308594" xlink:href="#DejaVuSans-61"/>
     <use x="352.587891" xlink:href="#DejaVuSans-74"/>
     <use x="391.796875" xlink:href="#DejaVuSans-69"/>
     <use x="419.580078" xlink:href="#DejaVuSans-6f"/>
     <use x="480.761719" xlink:href="#DejaVuSans-6e"/>
     <use x="544.140625" xlink:href="#DejaVuSans-20"/>
     <use x="575.927734" xlink:href="#DejaVuSans-53"/>
     <use x="639.404297" xlink:href="#DejaVuSans-70"/>
     <use x="702.880859" xlink:href="#DejaVuSans-61"/>
     <use x="764.160156" xlink:href="#DejaVuSans-63"/>
     <use x="819.140625" xlink:href="#DejaVuSans-65"/>
     <use x="880.664062" xlink:href="#DejaVuSans-2d"/>
     <use x="916.748047" xlink:href="#DejaVuSans-53"/>
     <use x="980.224609" xlink:href="#DejaVuSans-61"/>
     <use x="1041.503906" xlink:href="#DejaVuSans-76"/>
     <use x="1100.683594" xlink:href="#DejaVuSans-69"/>
     <use x="1128.466797" xlink:href="#DejaVuSans-6e"/>
     <use x="1191.845703" xlink:href="#DejaVuSans-67"/>
    </g>
   </g>
   <g id="line2d_40">
    <path d="M 374.471875 33 
L 414.471875 33 
" style="fill:none;stroke:#ff7f0e;stroke-linecap:square;stroke-width:1.5;"/>
   </g>
   <g id="line2d_41"/>
   <g id="text_33">
    <!-- Single Space-Saving -->
    <g transform="translate(430.471875 40)scale(0.2 -0.2)">
     <use xlink:href="#DejaVuSans-53"/>
     <use x="63.476562" xlink:href="#DejaVuSans-69"/>
     <use x="91.259766" xlink:href="#DejaVuSans-6e"/>
     <use x="154.638672" xlink:href="#DejaVuSans-67"/>
     <use x="218.115234" xlink:href="#DejaVuSans-6c"/>
     <use x="245.898438" xlink:href="#DejaVuSans-65"/>
     <use x="307.421875" xlink:href="#DejaVuSans-20"/>
     <use x="339.208984" xlink:href="#DejaVuSans-53"/>
     <use x="402.685547" xlink:href="#DejaVuSans-70"/>
     <use x="466.162109" xlink:href="#DejaVuSans-61"/>
     <use x="527.441406" xlink:href="#DejaVuSans-63"/>
     <use x="582.421875" xlink:href="#DejaVuSans-65"/>
     <use x="643.945312" xlink:href="#DejaVuSans-2d"/>
     <use x="680.029297" xlink:href="#DejaVuSans-53"/>
     <use x="743.505859" xlink:href="#DejaVuSans-61"/>
     <use x="804.785156" xlink:href="#DejaVuSans-76"/>
     <use x="863.964844" xlink:href="#DejaVuSans-69"/>
     <use x="891.748047" xlink:href="#DejaVuSans-6e"/>
     <use x="955.126953" xlink:href="#DejaVuSans-67"/>
    </g>
   </g>
   <g id="line2d_42">
    <path d="M 683.6 33 
L 723.6 33 
" style="fill:none;stroke:#ff0000;stroke-dasharray:5.55,2.4;stroke-dashoffset:0;stroke-width:1.5;"/>
   </g>
   <g id="line2d_43"/>
   <g id="text_34">
    <!-- $\frac{df_sT}{r(e)^a}$ -->
    <g transform="translate(739.6 40)scale(0.2 -0.2)">
     <defs>
      <path d="M 2675 525 
Q 2444 222 2128 65 
Q 1813 -91 1428 -91 
Q 903 -91 598 267 
Q 294 625 294 1247 
Q 294 1766 478 2236 
Q 663 2706 1013 3078 
Q 1244 3325 1534 3454 
Q 1825 3584 2144 3584 
Q 2481 3584 2739 3421 
Q 2997 3259 3138 2956 
L 3513 4863 
L 4091 4863 
L 3144 0 
L 2566 0 
L 2675 525 
z
M 891 1350 
Q 891 897 1095 644 
Q 1300 391 1663 391 
Q 1931 391 2161 520 
Q 2391 650 2566 903 
Q 2750 1166 2856 1509 
Q 2963 1853 2963 2188 
Q 2963 2622 2758 2865 
Q 2553 3109 2194 3109 
Q 1922 3109 1687 2981 
Q 1453 2853 1288 2613 
Q 1106 2353 998 2009 
Q 891 1666 891 1350 
z
" id="DejaVuSans-Oblique-64" transform="scale(0.015625)"/>
      <path d="M 3059 4863 
L 2969 4384 
L 2419 4384 
Q 2106 4384 1964 4261 
Q 1822 4138 1753 3809 
L 1691 3500 
L 2638 3500 
L 2553 3053 
L 1606 3053 
L 1013 0 
L 434 0 
L 1031 3053 
L 481 3053 
L 563 3500 
L 1113 3500 
L 1159 3744 
Q 1278 4363 1576 4613 
Q 1875 4863 2516 4863 
L 3059 4863 
z
" id="DejaVuSans-Oblique-66" transform="scale(0.015625)"/>
      <path d="M 3200 3397 
L 3091 2853 
Q 2863 2978 2609 3040 
Q 2356 3103 2088 3103 
Q 1634 3103 1373 2948 
Q 1113 2794 1113 2528 
Q 1113 2219 1719 2053 
Q 1766 2041 1788 2034 
L 1972 1978 
Q 2547 1819 2739 1644 
Q 2931 1469 2931 1166 
Q 2931 609 2489 259 
Q 2047 -91 1331 -91 
Q 1053 -91 747 -37 
Q 441 16 72 128 
L 184 722 
Q 500 559 806 475 
Q 1113 391 1394 391 
Q 1816 391 2080 572 
Q 2344 753 2344 1031 
Q 2344 1331 1650 1516 
L 1591 1531 
L 1394 1581 
Q 956 1697 753 1886 
Q 550 2075 550 2369 
Q 550 2928 970 3256 
Q 1391 3584 2113 3584 
Q 2397 3584 2667 3537 
Q 2938 3491 3200 3397 
z
" id="DejaVuSans-Oblique-73" transform="scale(0.015625)"/>
      <path d="M 378 4666 
L 4325 4666 
L 4225 4134 
L 2559 4134 
L 1759 0 
L 1125 0 
L 1925 4134 
L 275 4134 
L 378 4666 
z
" id="DejaVuSans-Oblique-54" transform="scale(0.015625)"/>
      <path d="M 2853 2969 
Q 2766 3016 2653 3041 
Q 2541 3066 2413 3066 
Q 1953 3066 1609 2717 
Q 1266 2369 1153 1784 
L 800 0 
L 225 0 
L 909 3500 
L 1484 3500 
L 1375 2956 
Q 1603 3259 1920 3421 
Q 2238 3584 2597 3584 
Q 2691 3584 2781 3573 
Q 2872 3563 2963 3538 
L 2853 2969 
z
" id="DejaVuSans-Oblique-72" transform="scale(0.015625)"/>
      <path d="M 1984 4856 
Q 1566 4138 1362 3434 
Q 1159 2731 1159 2009 
Q 1159 1288 1364 580 
Q 1569 -128 1984 -844 
L 1484 -844 
Q 1016 -109 783 600 
Q 550 1309 550 2009 
Q 550 2706 781 3412 
Q 1013 4119 1484 4856 
L 1984 4856 
z
" id="DejaVuSans-28" transform="scale(0.015625)"/>
      <path d="M 3078 2063 
Q 3088 2113 3092 2166 
Q 3097 2219 3097 2272 
Q 3097 2653 2873 2875 
Q 2650 3097 2266 3097 
Q 1838 3097 1509 2826 
Q 1181 2556 1013 2059 
L 3078 2063 
z
M 3578 1613 
L 903 1613 
Q 884 1494 878 1425 
Q 872 1356 872 1306 
Q 872 872 1139 634 
Q 1406 397 1894 397 
Q 2269 397 2603 481 
Q 2938 566 3225 728 
L 3116 159 
Q 2806 34 2476 -28 
Q 2147 -91 1806 -91 
Q 1078 -91 686 257 
Q 294 606 294 1247 
Q 294 1794 489 2264 
Q 684 2734 1063 3103 
Q 1306 3334 1642 3459 
Q 1978 3584 2356 3584 
Q 2950 3584 3301 3228 
Q 3653 2872 3653 2272 
Q 3653 2128 3634 1964 
Q 3616 1800 3578 1613 
z
" id="DejaVuSans-Oblique-65" transform="scale(0.015625)"/>
      <path d="M 513 4856 
L 1013 4856 
Q 1481 4119 1714 3412 
Q 1947 2706 1947 2009 
Q 1947 1309 1714 600 
Q 1481 -109 1013 -844 
L 513 -844 
Q 928 -128 1133 580 
Q 1338 1288 1338 2009 
Q 1338 2731 1133 3434 
Q 928 4138 513 4856 
z
" id="DejaVuSans-29" transform="scale(0.015625)"/>
      <path d="M 3438 1997 
L 3047 0 
L 2472 0 
L 2578 531 
Q 2325 219 2001 64 
Q 1678 -91 1281 -91 
Q 834 -91 548 182 
Q 263 456 263 884 
Q 263 1497 752 1853 
Q 1241 2209 2100 2209 
L 2900 2209 
L 2931 2363 
Q 2938 2388 2941 2417 
Q 2944 2447 2944 2509 
Q 2944 2788 2717 2942 
Q 2491 3097 2081 3097 
Q 1800 3097 1504 3025 
Q 1209 2953 897 2809 
L 997 3341 
Q 1322 3463 1633 3523 
Q 1944 3584 2234 3584 
Q 2853 3584 3176 3315 
Q 3500 3047 3500 2534 
Q 3500 2431 3484 2292 
Q 3469 2153 3438 1997 
z
M 2816 1759 
L 2241 1759 
Q 1534 1759 1195 1570 
Q 856 1381 856 984 
Q 856 709 1029 553 
Q 1203 397 1509 397 
Q 1978 397 2328 733 
Q 2678 1069 2791 1631 
L 2816 1759 
z
" id="DejaVuSans-Oblique-61" transform="scale(0.015625)"/>
     </defs>
     <use transform="translate(10 56.810938)scale(0.7)" xlink:href="#DejaVuSans-Oblique-64"/>
     <use transform="translate(54.433594 56.810938)scale(0.7)" xlink:href="#DejaVuSans-Oblique-66"/>
     <use transform="translate(79.077148 45.326562)scale(0.49)" xlink:href="#DejaVuSans-Oblique-73"/>
     <use transform="translate(106.52002 56.810938)scale(0.7)" xlink:href="#DejaVuSans-Oblique-54"/>
     <use transform="translate(0 -40.857031)scale(0.7)" xlink:href="#DejaVuSans-Oblique-72"/>
     <use transform="translate(28.779297 -40.857031)scale(0.7)" xlink:href="#DejaVuSans-28"/>
     <use transform="translate(56.088867 -40.857031)scale(0.7)" xlink:href="#DejaVuSans-Oblique-65"/>
     <use transform="translate(99.155273 -40.857031)scale(0.7)" xlink:href="#DejaVuSans-29"/>
     <use transform="translate(127.134766 -14.060156)scale(0.49)" xlink:href="#DejaVuSans-Oblique-61"/>
     <path d="M 0 19.629844 
L 0 25.879844 
L 159.075684 25.879844 
L 159.075684 19.629844 
L 0 19.629844 
z
"/>
    </g>
   </g>
  </g>
 </g>
 <defs>
  <clipPath id="pb3ebebcdd2">
   <rect height="293.56" width="294.505" x="93.53" y="73.44"/>
  </clipPath>
  <clipPath id="p5109cfc3be">
   <rect height="293.56" width="294.505" x="470.135" y="73.44"/>
  </clipPath>
  <clipPath id="p72b8bb8b40">
   <rect height="51.84" width="126.72" x="198" y="228.96"/>
  </clipPath>
  <clipPath id="pd4935c6274">
   <rect height="51.84" width="126.72" x="594" y="228.96"/>
  </clipPath>
 </defs>
</svg>
