<?xml version="1.0" encoding="utf-8" standalone="no"?>
<!DOCTYPE svg PUBLIC "-//W3C//DTD SVG 1.1//EN"
  "http://www.w3.org/Graphics/SVG/1.1/DTD/svg11.dtd">
<svg height="792pt" version="1.1" viewBox="0 0 864 792" width="864pt" xmlns="http://www.w3.org/2000/svg" xmlns:xlink="http://www.w3.org/1999/xlink">
 <metadata>
  <rdf:RDF xmlns:cc="http://creativecommons.org/ns#" xmlns:dc="http://purl.org/dc/elements/1.1/" xmlns:rdf="http://www.w3.org/1999/02/22-rdf-syntax-ns#">
   <cc:Work>
    <dc:type rdf:resource="http://purl.org/dc/dcmitype/StillImage"/>
    <dc:date>2021-09-15T16:28:39.171806</dc:date>
    <dc:format>image/svg+xml</dc:format>
    <dc:creator>
     <cc:Agent>
      <dc:title>Matplotlib v3.4.2, https://matplotlib.org/</dc:title>
     </cc:Agent>
    </dc:creator>
   </cc:Work>
  </rdf:RDF>
 </metadata>
 <defs>
  <style type="text/css">*{stroke-linecap:butt;stroke-linejoin:round;}</style>
 </defs>
 <g id="figure_1">
  <g id="patch_1">
   <path d="M 0 792 
L 864 792 
L 864 0 
L 0 0 
z
" style="fill:#ffffff;"/>
  </g>
  <g id="axes_1">
   <g id="patch_2">
    <path d="M 96.923 731.527 
L 842.4 731.527 
L 842.4 21.6 
L 96.923 21.6 
z
" style="fill:#ffffff;"/>
   </g>
   <g id="matplotlib.axis_1">
    <g id="xtick_1">
     <g id="line2d_1">
      <defs>
       <path d="M 0 0 
L 0 3.5 
" id="ma69672a01d" style="stroke:#000000;stroke-width:0.8;"/>
      </defs>
      <g>
       <use style="stroke:#000000;stroke-width:0.8;" x="130.808318" xlink:href="#ma69672a01d" y="731.527"/>
      </g>
     </g>
     <g id="text_1">
      <!-- 0.5 -->
      <g transform="translate(114.905193 753.723875)scale(0.2 -0.2)">
       <defs>
        <path d="M 2034 4250 
Q 1547 4250 1301 3770 
Q 1056 3291 1056 2328 
Q 1056 1369 1301 889 
Q 1547 409 2034 409 
Q 2525 409 2770 889 
Q 3016 1369 3016 2328 
Q 3016 3291 2770 3770 
Q 2525 4250 2034 4250 
z
M 2034 4750 
Q 2819 4750 3233 4129 
Q 3647 3509 3647 2328 
Q 3647 1150 3233 529 
Q 2819 -91 2034 -91 
Q 1250 -91 836 529 
Q 422 1150 422 2328 
Q 422 3509 836 4129 
Q 1250 4750 2034 4750 
z
" id="DejaVuSans-30" transform="scale(0.015625)"/>
        <path d="M 684 794 
L 1344 794 
L 1344 0 
L 684 0 
L 684 794 
z
" id="DejaVuSans-2e" transform="scale(0.015625)"/>
        <path d="M 691 4666 
L 3169 4666 
L 3169 4134 
L 1269 4134 
L 1269 2991 
Q 1406 3038 1543 3061 
Q 1681 3084 1819 3084 
Q 2600 3084 3056 2656 
Q 3513 2228 3513 1497 
Q 3513 744 3044 326 
Q 2575 -91 1722 -91 
Q 1428 -91 1123 -41 
Q 819 9 494 109 
L 494 744 
Q 775 591 1075 516 
Q 1375 441 1709 441 
Q 2250 441 2565 725 
Q 2881 1009 2881 1497 
Q 2881 1984 2565 2268 
Q 2250 2553 1709 2553 
Q 1456 2553 1204 2497 
Q 953 2441 691 2322 
L 691 4666 
z
" id="DejaVuSans-35" transform="scale(0.015625)"/>
       </defs>
       <use xlink:href="#DejaVuSans-30"/>
       <use x="63.623047" xlink:href="#DejaVuSans-2e"/>
       <use x="95.410156" xlink:href="#DejaVuSans-35"/>
      </g>
     </g>
    </g>
    <g id="xtick_2">
     <g id="line2d_2">
      <g>
       <use style="stroke:#000000;stroke-width:0.8;" x="266.349591" xlink:href="#ma69672a01d" y="731.527"/>
      </g>
     </g>
     <g id="text_2">
      <!-- 1.0 -->
      <g transform="translate(250.446466 753.723875)scale(0.2 -0.2)">
       <defs>
        <path d="M 794 531 
L 1825 531 
L 1825 4091 
L 703 3866 
L 703 4441 
L 1819 4666 
L 2450 4666 
L 2450 531 
L 3481 531 
L 3481 0 
L 794 0 
L 794 531 
z
" id="DejaVuSans-31" transform="scale(0.015625)"/>
       </defs>
       <use xlink:href="#DejaVuSans-31"/>
       <use x="63.623047" xlink:href="#DejaVuSans-2e"/>
       <use x="95.410156" xlink:href="#DejaVuSans-30"/>
      </g>
     </g>
    </g>
    <g id="xtick_3">
     <g id="line2d_3">
      <g>
       <use style="stroke:#000000;stroke-width:0.8;" x="401.890864" xlink:href="#ma69672a01d" y="731.527"/>
      </g>
     </g>
     <g id="text_3">
      <!-- 1.5 -->
      <g transform="translate(385.987739 753.723875)scale(0.2 -0.2)">
       <use xlink:href="#DejaVuSans-31"/>
       <use x="63.623047" xlink:href="#DejaVuSans-2e"/>
       <use x="95.410156" xlink:href="#DejaVuSans-35"/>
      </g>
     </g>
    </g>
    <g id="xtick_4">
     <g id="line2d_4">
      <g>
       <use style="stroke:#000000;stroke-width:0.8;" x="537.432136" xlink:href="#ma69672a01d" y="731.527"/>
      </g>
     </g>
     <g id="text_4">
      <!-- 2.0 -->
      <g transform="translate(521.529011 753.723875)scale(0.2 -0.2)">
       <defs>
        <path d="M 1228 531 
L 3431 531 
L 3431 0 
L 469 0 
L 469 531 
Q 828 903 1448 1529 
Q 2069 2156 2228 2338 
Q 2531 2678 2651 2914 
Q 2772 3150 2772 3378 
Q 2772 3750 2511 3984 
Q 2250 4219 1831 4219 
Q 1534 4219 1204 4116 
Q 875 4013 500 3803 
L 500 4441 
Q 881 4594 1212 4672 
Q 1544 4750 1819 4750 
Q 2544 4750 2975 4387 
Q 3406 4025 3406 3419 
Q 3406 3131 3298 2873 
Q 3191 2616 2906 2266 
Q 2828 2175 2409 1742 
Q 1991 1309 1228 531 
z
" id="DejaVuSans-32" transform="scale(0.015625)"/>
       </defs>
       <use xlink:href="#DejaVuSans-32"/>
       <use x="63.623047" xlink:href="#DejaVuSans-2e"/>
       <use x="95.410156" xlink:href="#DejaVuSans-30"/>
      </g>
     </g>
    </g>
    <g id="xtick_5">
     <g id="line2d_5">
      <g>
       <use style="stroke:#000000;stroke-width:0.8;" x="672.973409" xlink:href="#ma69672a01d" y="731.527"/>
      </g>
     </g>
     <g id="text_5">
      <!-- 2.5 -->
      <g transform="translate(657.070284 753.723875)scale(0.2 -0.2)">
       <use xlink:href="#DejaVuSans-32"/>
       <use x="63.623047" xlink:href="#DejaVuSans-2e"/>
       <use x="95.410156" xlink:href="#DejaVuSans-35"/>
      </g>
     </g>
    </g>
    <g id="xtick_6">
     <g id="line2d_6">
      <g>
       <use style="stroke:#000000;stroke-width:0.8;" x="808.514682" xlink:href="#ma69672a01d" y="731.527"/>
      </g>
     </g>
     <g id="text_6">
      <!-- 3.0 -->
      <g transform="translate(792.611557 753.723875)scale(0.2 -0.2)">
       <defs>
        <path d="M 2597 2516 
Q 3050 2419 3304 2112 
Q 3559 1806 3559 1356 
Q 3559 666 3084 287 
Q 2609 -91 1734 -91 
Q 1441 -91 1130 -33 
Q 819 25 488 141 
L 488 750 
Q 750 597 1062 519 
Q 1375 441 1716 441 
Q 2309 441 2620 675 
Q 2931 909 2931 1356 
Q 2931 1769 2642 2001 
Q 2353 2234 1838 2234 
L 1294 2234 
L 1294 2753 
L 1863 2753 
Q 2328 2753 2575 2939 
Q 2822 3125 2822 3475 
Q 2822 3834 2567 4026 
Q 2313 4219 1838 4219 
Q 1578 4219 1281 4162 
Q 984 4106 628 3988 
L 628 4550 
Q 988 4650 1302 4700 
Q 1616 4750 1894 4750 
Q 2613 4750 3031 4423 
Q 3450 4097 3450 3541 
Q 3450 3153 3228 2886 
Q 3006 2619 2597 2516 
z
" id="DejaVuSans-33" transform="scale(0.015625)"/>
       </defs>
       <use xlink:href="#DejaVuSans-33"/>
       <use x="63.623047" xlink:href="#DejaVuSans-2e"/>
       <use x="95.410156" xlink:href="#DejaVuSans-30"/>
      </g>
     </g>
    </g>
    <g id="text_7">
     <!-- Skew -->
     <g transform="translate(443.553687 777.080125)scale(0.2 -0.2)">
      <defs>
       <path d="M 3425 4513 
L 3425 3897 
Q 3066 4069 2747 4153 
Q 2428 4238 2131 4238 
Q 1616 4238 1336 4038 
Q 1056 3838 1056 3469 
Q 1056 3159 1242 3001 
Q 1428 2844 1947 2747 
L 2328 2669 
Q 3034 2534 3370 2195 
Q 3706 1856 3706 1288 
Q 3706 609 3251 259 
Q 2797 -91 1919 -91 
Q 1588 -91 1214 -16 
Q 841 59 441 206 
L 441 856 
Q 825 641 1194 531 
Q 1563 422 1919 422 
Q 2459 422 2753 634 
Q 3047 847 3047 1241 
Q 3047 1584 2836 1778 
Q 2625 1972 2144 2069 
L 1759 2144 
Q 1053 2284 737 2584 
Q 422 2884 422 3419 
Q 422 4038 858 4394 
Q 1294 4750 2059 4750 
Q 2388 4750 2728 4690 
Q 3069 4631 3425 4513 
z
" id="DejaVuSans-53" transform="scale(0.015625)"/>
       <path d="M 581 4863 
L 1159 4863 
L 1159 1991 
L 2875 3500 
L 3609 3500 
L 1753 1863 
L 3688 0 
L 2938 0 
L 1159 1709 
L 1159 0 
L 581 0 
L 581 4863 
z
" id="DejaVuSans-6b" transform="scale(0.015625)"/>
       <path d="M 3597 1894 
L 3597 1613 
L 953 1613 
Q 991 1019 1311 708 
Q 1631 397 2203 397 
Q 2534 397 2845 478 
Q 3156 559 3463 722 
L 3463 178 
Q 3153 47 2828 -22 
Q 2503 -91 2169 -91 
Q 1331 -91 842 396 
Q 353 884 353 1716 
Q 353 2575 817 3079 
Q 1281 3584 2069 3584 
Q 2775 3584 3186 3129 
Q 3597 2675 3597 1894 
z
M 3022 2063 
Q 3016 2534 2758 2815 
Q 2500 3097 2075 3097 
Q 1594 3097 1305 2825 
Q 1016 2553 972 2059 
L 3022 2063 
z
" id="DejaVuSans-65" transform="scale(0.015625)"/>
       <path d="M 269 3500 
L 844 3500 
L 1563 769 
L 2278 3500 
L 2956 3500 
L 3675 769 
L 4391 3500 
L 4966 3500 
L 4050 0 
L 3372 0 
L 2619 2869 
L 1863 0 
L 1184 0 
L 269 3500 
z
" id="DejaVuSans-77" transform="scale(0.015625)"/>
      </defs>
      <use xlink:href="#DejaVuSans-53"/>
      <use x="63.476562" xlink:href="#DejaVuSans-6b"/>
      <use x="117.761719" xlink:href="#DejaVuSans-65"/>
      <use x="179.285156" xlink:href="#DejaVuSans-77"/>
     </g>
    </g>
   </g>
   <g id="matplotlib.axis_2">
    <g id="ytick_1">
     <g id="line2d_7">
      <defs>
       <path d="M 0 0 
L -3.5 0 
" id="md1a049ffae" style="stroke:#000000;stroke-width:0.8;"/>
      </defs>
      <g>
       <use style="stroke:#000000;stroke-width:0.8;" x="96.923" xlink:href="#md1a049ffae" y="699.257591"/>
      </g>
     </g>
     <g id="text_8">
      <!-- 0.0000 -->
      <g transform="translate(19.94175 706.856028)scale(0.2 -0.2)">
       <use xlink:href="#DejaVuSans-30"/>
       <use x="63.623047" xlink:href="#DejaVuSans-2e"/>
       <use x="95.410156" xlink:href="#DejaVuSans-30"/>
       <use x="159.033203" xlink:href="#DejaVuSans-30"/>
       <use x="222.65625" xlink:href="#DejaVuSans-30"/>
       <use x="286.279297" xlink:href="#DejaVuSans-30"/>
      </g>
     </g>
    </g>
    <g id="ytick_2">
     <g id="line2d_8">
      <g>
       <use style="stroke:#000000;stroke-width:0.8;" x="96.923" xlink:href="#md1a049ffae" y="619.382816"/>
      </g>
     </g>
     <g id="text_9">
      <!-- 0.0002 -->
      <g transform="translate(19.94175 626.981253)scale(0.2 -0.2)">
       <use xlink:href="#DejaVuSans-30"/>
       <use x="63.623047" xlink:href="#DejaVuSans-2e"/>
       <use x="95.410156" xlink:href="#DejaVuSans-30"/>
       <use x="159.033203" xlink:href="#DejaVuSans-30"/>
       <use x="222.65625" xlink:href="#DejaVuSans-30"/>
       <use x="286.279297" xlink:href="#DejaVuSans-32"/>
      </g>
     </g>
    </g>
    <g id="ytick_3">
     <g id="line2d_9">
      <g>
       <use style="stroke:#000000;stroke-width:0.8;" x="96.923" xlink:href="#md1a049ffae" y="539.508041"/>
      </g>
     </g>
     <g id="text_10">
      <!-- 0.0004 -->
      <g transform="translate(19.94175 547.106478)scale(0.2 -0.2)">
       <defs>
        <path d="M 2419 4116 
L 825 1625 
L 2419 1625 
L 2419 4116 
z
M 2253 4666 
L 3047 4666 
L 3047 1625 
L 3713 1625 
L 3713 1100 
L 3047 1100 
L 3047 0 
L 2419 0 
L 2419 1100 
L 313 1100 
L 313 1709 
L 2253 4666 
z
" id="DejaVuSans-34" transform="scale(0.015625)"/>
       </defs>
       <use xlink:href="#DejaVuSans-30"/>
       <use x="63.623047" xlink:href="#DejaVuSans-2e"/>
       <use x="95.410156" xlink:href="#DejaVuSans-30"/>
       <use x="159.033203" xlink:href="#DejaVuSans-30"/>
       <use x="222.65625" xlink:href="#DejaVuSans-30"/>
       <use x="286.279297" xlink:href="#DejaVuSans-34"/>
      </g>
     </g>
    </g>
    <g id="ytick_4">
     <g id="line2d_10">
      <g>
       <use style="stroke:#000000;stroke-width:0.8;" x="96.923" xlink:href="#md1a049ffae" y="459.633266"/>
      </g>
     </g>
     <g id="text_11">
      <!-- 0.0006 -->
      <g transform="translate(19.94175 467.231703)scale(0.2 -0.2)">
       <defs>
        <path d="M 2113 2584 
Q 1688 2584 1439 2293 
Q 1191 2003 1191 1497 
Q 1191 994 1439 701 
Q 1688 409 2113 409 
Q 2538 409 2786 701 
Q 3034 994 3034 1497 
Q 3034 2003 2786 2293 
Q 2538 2584 2113 2584 
z
M 3366 4563 
L 3366 3988 
Q 3128 4100 2886 4159 
Q 2644 4219 2406 4219 
Q 1781 4219 1451 3797 
Q 1122 3375 1075 2522 
Q 1259 2794 1537 2939 
Q 1816 3084 2150 3084 
Q 2853 3084 3261 2657 
Q 3669 2231 3669 1497 
Q 3669 778 3244 343 
Q 2819 -91 2113 -91 
Q 1303 -91 875 529 
Q 447 1150 447 2328 
Q 447 3434 972 4092 
Q 1497 4750 2381 4750 
Q 2619 4750 2861 4703 
Q 3103 4656 3366 4563 
z
" id="DejaVuSans-36" transform="scale(0.015625)"/>
       </defs>
       <use xlink:href="#DejaVuSans-30"/>
       <use x="63.623047" xlink:href="#DejaVuSans-2e"/>
       <use x="95.410156" xlink:href="#DejaVuSans-30"/>
       <use x="159.033203" xlink:href="#DejaVuSans-30"/>
       <use x="222.65625" xlink:href="#DejaVuSans-30"/>
       <use x="286.279297" xlink:href="#DejaVuSans-36"/>
      </g>
     </g>
    </g>
    <g id="ytick_5">
     <g id="line2d_11">
      <g>
       <use style="stroke:#000000;stroke-width:0.8;" x="96.923" xlink:href="#md1a049ffae" y="379.758491"/>
      </g>
     </g>
     <g id="text_12">
      <!-- 0.0008 -->
      <g transform="translate(19.94175 387.356928)scale(0.2 -0.2)">
       <defs>
        <path d="M 2034 2216 
Q 1584 2216 1326 1975 
Q 1069 1734 1069 1313 
Q 1069 891 1326 650 
Q 1584 409 2034 409 
Q 2484 409 2743 651 
Q 3003 894 3003 1313 
Q 3003 1734 2745 1975 
Q 2488 2216 2034 2216 
z
M 1403 2484 
Q 997 2584 770 2862 
Q 544 3141 544 3541 
Q 544 4100 942 4425 
Q 1341 4750 2034 4750 
Q 2731 4750 3128 4425 
Q 3525 4100 3525 3541 
Q 3525 3141 3298 2862 
Q 3072 2584 2669 2484 
Q 3125 2378 3379 2068 
Q 3634 1759 3634 1313 
Q 3634 634 3220 271 
Q 2806 -91 2034 -91 
Q 1263 -91 848 271 
Q 434 634 434 1313 
Q 434 1759 690 2068 
Q 947 2378 1403 2484 
z
M 1172 3481 
Q 1172 3119 1398 2916 
Q 1625 2713 2034 2713 
Q 2441 2713 2670 2916 
Q 2900 3119 2900 3481 
Q 2900 3844 2670 4047 
Q 2441 4250 2034 4250 
Q 1625 4250 1398 4047 
Q 1172 3844 1172 3481 
z
" id="DejaVuSans-38" transform="scale(0.015625)"/>
       </defs>
       <use xlink:href="#DejaVuSans-30"/>
       <use x="63.623047" xlink:href="#DejaVuSans-2e"/>
       <use x="95.410156" xlink:href="#DejaVuSans-30"/>
       <use x="159.033203" xlink:href="#DejaVuSans-30"/>
       <use x="222.65625" xlink:href="#DejaVuSans-30"/>
       <use x="286.279297" xlink:href="#DejaVuSans-38"/>
      </g>
     </g>
    </g>
    <g id="ytick_6">
     <g id="line2d_12">
      <g>
       <use style="stroke:#000000;stroke-width:0.8;" x="96.923" xlink:href="#md1a049ffae" y="299.883716"/>
      </g>
     </g>
     <g id="text_13">
      <!-- 0.0010 -->
      <g transform="translate(19.94175 307.482154)scale(0.2 -0.2)">
       <use xlink:href="#DejaVuSans-30"/>
       <use x="63.623047" xlink:href="#DejaVuSans-2e"/>
       <use x="95.410156" xlink:href="#DejaVuSans-30"/>
       <use x="159.033203" xlink:href="#DejaVuSans-30"/>
       <use x="222.65625" xlink:href="#DejaVuSans-31"/>
       <use x="286.279297" xlink:href="#DejaVuSans-30"/>
      </g>
     </g>
    </g>
    <g id="ytick_7">
     <g id="line2d_13">
      <g>
       <use style="stroke:#000000;stroke-width:0.8;" x="96.923" xlink:href="#md1a049ffae" y="220.008941"/>
      </g>
     </g>
     <g id="text_14">
      <!-- 0.0012 -->
      <g transform="translate(19.94175 227.607379)scale(0.2 -0.2)">
       <use xlink:href="#DejaVuSans-30"/>
       <use x="63.623047" xlink:href="#DejaVuSans-2e"/>
       <use x="95.410156" xlink:href="#DejaVuSans-30"/>
       <use x="159.033203" xlink:href="#DejaVuSans-30"/>
       <use x="222.65625" xlink:href="#DejaVuSans-31"/>
       <use x="286.279297" xlink:href="#DejaVuSans-32"/>
      </g>
     </g>
    </g>
    <g id="ytick_8">
     <g id="line2d_14">
      <g>
       <use style="stroke:#000000;stroke-width:0.8;" x="96.923" xlink:href="#md1a049ffae" y="140.134166"/>
      </g>
     </g>
     <g id="text_15">
      <!-- 0.0014 -->
      <g transform="translate(19.94175 147.732604)scale(0.2 -0.2)">
       <use xlink:href="#DejaVuSans-30"/>
       <use x="63.623047" xlink:href="#DejaVuSans-2e"/>
       <use x="95.410156" xlink:href="#DejaVuSans-30"/>
       <use x="159.033203" xlink:href="#DejaVuSans-30"/>
       <use x="222.65625" xlink:href="#DejaVuSans-31"/>
       <use x="286.279297" xlink:href="#DejaVuSans-34"/>
      </g>
     </g>
    </g>
    <g id="ytick_9">
     <g id="line2d_15">
      <g>
       <use style="stroke:#000000;stroke-width:0.8;" x="96.923" xlink:href="#md1a049ffae" y="60.259391"/>
      </g>
     </g>
     <g id="text_16">
      <!-- 0.0016 -->
      <g transform="translate(19.94175 67.857829)scale(0.2 -0.2)">
       <use xlink:href="#DejaVuSans-30"/>
       <use x="63.623047" xlink:href="#DejaVuSans-2e"/>
       <use x="95.410156" xlink:href="#DejaVuSans-30"/>
       <use x="159.033203" xlink:href="#DejaVuSans-30"/>
       <use x="222.65625" xlink:href="#DejaVuSans-31"/>
       <use x="286.279297" xlink:href="#DejaVuSans-36"/>
      </g>
     </g>
    </g>
    <g id="text_17">
     <!-- Average Relative Error -->
     <g transform="translate(11.782375 488.683812)rotate(-90)scale(0.2 -0.2)">
      <defs>
       <path d="M 2188 4044 
L 1331 1722 
L 3047 1722 
L 2188 4044 
z
M 1831 4666 
L 2547 4666 
L 4325 0 
L 3669 0 
L 3244 1197 
L 1141 1197 
L 716 0 
L 50 0 
L 1831 4666 
z
" id="DejaVuSans-41" transform="scale(0.015625)"/>
       <path d="M 191 3500 
L 800 3500 
L 1894 563 
L 2988 3500 
L 3597 3500 
L 2284 0 
L 1503 0 
L 191 3500 
z
" id="DejaVuSans-76" transform="scale(0.015625)"/>
       <path d="M 2631 2963 
Q 2534 3019 2420 3045 
Q 2306 3072 2169 3072 
Q 1681 3072 1420 2755 
Q 1159 2438 1159 1844 
L 1159 0 
L 581 0 
L 581 3500 
L 1159 3500 
L 1159 2956 
Q 1341 3275 1631 3429 
Q 1922 3584 2338 3584 
Q 2397 3584 2469 3576 
Q 2541 3569 2628 3553 
L 2631 2963 
z
" id="DejaVuSans-72" transform="scale(0.015625)"/>
       <path d="M 2194 1759 
Q 1497 1759 1228 1600 
Q 959 1441 959 1056 
Q 959 750 1161 570 
Q 1363 391 1709 391 
Q 2188 391 2477 730 
Q 2766 1069 2766 1631 
L 2766 1759 
L 2194 1759 
z
M 3341 1997 
L 3341 0 
L 2766 0 
L 2766 531 
Q 2569 213 2275 61 
Q 1981 -91 1556 -91 
Q 1019 -91 701 211 
Q 384 513 384 1019 
Q 384 1609 779 1909 
Q 1175 2209 1959 2209 
L 2766 2209 
L 2766 2266 
Q 2766 2663 2505 2880 
Q 2244 3097 1772 3097 
Q 1472 3097 1187 3025 
Q 903 2953 641 2809 
L 641 3341 
Q 956 3463 1253 3523 
Q 1550 3584 1831 3584 
Q 2591 3584 2966 3190 
Q 3341 2797 3341 1997 
z
" id="DejaVuSans-61" transform="scale(0.015625)"/>
       <path d="M 2906 1791 
Q 2906 2416 2648 2759 
Q 2391 3103 1925 3103 
Q 1463 3103 1205 2759 
Q 947 2416 947 1791 
Q 947 1169 1205 825 
Q 1463 481 1925 481 
Q 2391 481 2648 825 
Q 2906 1169 2906 1791 
z
M 3481 434 
Q 3481 -459 3084 -895 
Q 2688 -1331 1869 -1331 
Q 1566 -1331 1297 -1286 
Q 1028 -1241 775 -1147 
L 775 -588 
Q 1028 -725 1275 -790 
Q 1522 -856 1778 -856 
Q 2344 -856 2625 -561 
Q 2906 -266 2906 331 
L 2906 616 
Q 2728 306 2450 153 
Q 2172 0 1784 0 
Q 1141 0 747 490 
Q 353 981 353 1791 
Q 353 2603 747 3093 
Q 1141 3584 1784 3584 
Q 2172 3584 2450 3431 
Q 2728 3278 2906 2969 
L 2906 3500 
L 3481 3500 
L 3481 434 
z
" id="DejaVuSans-67" transform="scale(0.015625)"/>
       <path id="DejaVuSans-20" transform="scale(0.015625)"/>
       <path d="M 2841 2188 
Q 3044 2119 3236 1894 
Q 3428 1669 3622 1275 
L 4263 0 
L 3584 0 
L 2988 1197 
Q 2756 1666 2539 1819 
Q 2322 1972 1947 1972 
L 1259 1972 
L 1259 0 
L 628 0 
L 628 4666 
L 2053 4666 
Q 2853 4666 3247 4331 
Q 3641 3997 3641 3322 
Q 3641 2881 3436 2590 
Q 3231 2300 2841 2188 
z
M 1259 4147 
L 1259 2491 
L 2053 2491 
Q 2509 2491 2742 2702 
Q 2975 2913 2975 3322 
Q 2975 3731 2742 3939 
Q 2509 4147 2053 4147 
L 1259 4147 
z
" id="DejaVuSans-52" transform="scale(0.015625)"/>
       <path d="M 603 4863 
L 1178 4863 
L 1178 0 
L 603 0 
L 603 4863 
z
" id="DejaVuSans-6c" transform="scale(0.015625)"/>
       <path d="M 1172 4494 
L 1172 3500 
L 2356 3500 
L 2356 3053 
L 1172 3053 
L 1172 1153 
Q 1172 725 1289 603 
Q 1406 481 1766 481 
L 2356 481 
L 2356 0 
L 1766 0 
Q 1100 0 847 248 
Q 594 497 594 1153 
L 594 3053 
L 172 3053 
L 172 3500 
L 594 3500 
L 594 4494 
L 1172 4494 
z
" id="DejaVuSans-74" transform="scale(0.015625)"/>
       <path d="M 603 3500 
L 1178 3500 
L 1178 0 
L 603 0 
L 603 3500 
z
M 603 4863 
L 1178 4863 
L 1178 4134 
L 603 4134 
L 603 4863 
z
" id="DejaVuSans-69" transform="scale(0.015625)"/>
       <path d="M 628 4666 
L 3578 4666 
L 3578 4134 
L 1259 4134 
L 1259 2753 
L 3481 2753 
L 3481 2222 
L 1259 2222 
L 1259 531 
L 3634 531 
L 3634 0 
L 628 0 
L 628 4666 
z
" id="DejaVuSans-45" transform="scale(0.015625)"/>
       <path d="M 1959 3097 
Q 1497 3097 1228 2736 
Q 959 2375 959 1747 
Q 959 1119 1226 758 
Q 1494 397 1959 397 
Q 2419 397 2687 759 
Q 2956 1122 2956 1747 
Q 2956 2369 2687 2733 
Q 2419 3097 1959 3097 
z
M 1959 3584 
Q 2709 3584 3137 3096 
Q 3566 2609 3566 1747 
Q 3566 888 3137 398 
Q 2709 -91 1959 -91 
Q 1206 -91 779 398 
Q 353 888 353 1747 
Q 353 2609 779 3096 
Q 1206 3584 1959 3584 
z
" id="DejaVuSans-6f" transform="scale(0.015625)"/>
      </defs>
      <use xlink:href="#DejaVuSans-41"/>
      <use x="62.533203" xlink:href="#DejaVuSans-76"/>
      <use x="121.712891" xlink:href="#DejaVuSans-65"/>
      <use x="183.236328" xlink:href="#DejaVuSans-72"/>
      <use x="224.349609" xlink:href="#DejaVuSans-61"/>
      <use x="285.628906" xlink:href="#DejaVuSans-67"/>
      <use x="349.105469" xlink:href="#DejaVuSans-65"/>
      <use x="410.628906" xlink:href="#DejaVuSans-20"/>
      <use x="442.416016" xlink:href="#DejaVuSans-52"/>
      <use x="507.398438" xlink:href="#DejaVuSans-65"/>
      <use x="568.921875" xlink:href="#DejaVuSans-6c"/>
      <use x="596.705078" xlink:href="#DejaVuSans-61"/>
      <use x="657.984375" xlink:href="#DejaVuSans-74"/>
      <use x="697.193359" xlink:href="#DejaVuSans-69"/>
      <use x="724.976562" xlink:href="#DejaVuSans-76"/>
      <use x="784.15625" xlink:href="#DejaVuSans-65"/>
      <use x="845.679688" xlink:href="#DejaVuSans-20"/>
      <use x="877.466797" xlink:href="#DejaVuSans-45"/>
      <use x="940.650391" xlink:href="#DejaVuSans-72"/>
      <use x="980.013672" xlink:href="#DejaVuSans-72"/>
      <use x="1018.876953" xlink:href="#DejaVuSans-6f"/>
      <use x="1080.058594" xlink:href="#DejaVuSans-72"/>
     </g>
    </g>
   </g>
   <g id="line2d_16">
    <path clip-path="url(#p897e4dd04e)" d="M 130.808318 505.161888 
L 198.578955 554.684248 
L 266.349591 370.572892 
L 334.120227 60.658765 
L 401.890864 238.380139 
L 469.6615 446.054554 
L 537.432136 457.237023 
L 605.202773 441.262068 
L 672.973409 479.202586 
L 740.744045 511.55187 
L 808.514682 533.916807 
" style="fill:none;stroke:#4878d0;stroke-linecap:square;stroke-width:3;"/>
    <defs>
     <path d="M 0 4 
C 1.060812 4 2.078319 3.578535 2.828427 2.828427 
C 3.578535 2.078319 4 1.060812 4 0 
C 4 -1.060812 3.578535 -2.078319 2.828427 -2.828427 
C 2.078319 -3.578535 1.060812 -4 0 -4 
C -1.060812 -4 -2.078319 -3.578535 -2.828427 -2.828427 
C -3.578535 -2.078319 -4 -1.060812 -4 0 
C -4 1.060812 -3.578535 2.078319 -2.828427 2.828427 
C -2.078319 3.578535 -1.060812 4 0 4 
z
" id="mc9ec1d723b" style="stroke:#ffffff;stroke-width:0.75;"/>
    </defs>
    <g clip-path="url(#p897e4dd04e)">
     <use style="fill:#4878d0;stroke:#ffffff;stroke-width:0.75;" x="130.808318" xlink:href="#mc9ec1d723b" y="505.161888"/>
     <use style="fill:#4878d0;stroke:#ffffff;stroke-width:0.75;" x="198.578955" xlink:href="#mc9ec1d723b" y="554.684248"/>
     <use style="fill:#4878d0;stroke:#ffffff;stroke-width:0.75;" x="266.349591" xlink:href="#mc9ec1d723b" y="370.572892"/>
     <use style="fill:#4878d0;stroke:#ffffff;stroke-width:0.75;" x="334.120227" xlink:href="#mc9ec1d723b" y="60.658765"/>
     <use style="fill:#4878d0;stroke:#ffffff;stroke-width:0.75;" x="401.890864" xlink:href="#mc9ec1d723b" y="238.380139"/>
     <use style="fill:#4878d0;stroke:#ffffff;stroke-width:0.75;" x="469.6615" xlink:href="#mc9ec1d723b" y="446.054554"/>
     <use style="fill:#4878d0;stroke:#ffffff;stroke-width:0.75;" x="537.432136" xlink:href="#mc9ec1d723b" y="457.237023"/>
     <use style="fill:#4878d0;stroke:#ffffff;stroke-width:0.75;" x="605.202773" xlink:href="#mc9ec1d723b" y="441.262068"/>
     <use style="fill:#4878d0;stroke:#ffffff;stroke-width:0.75;" x="672.973409" xlink:href="#mc9ec1d723b" y="479.202586"/>
     <use style="fill:#4878d0;stroke:#ffffff;stroke-width:0.75;" x="740.744045" xlink:href="#mc9ec1d723b" y="511.55187"/>
     <use style="fill:#4878d0;stroke:#ffffff;stroke-width:0.75;" x="808.514682" xlink:href="#mc9ec1d723b" y="533.916807"/>
    </g>
   </g>
   <g id="line2d_17">
    <path clip-path="url(#p897e4dd04e)" d="M 130.808318 699.257591 
L 198.578955 552.687379 
L 266.349591 370.572892 
L 334.120227 64.652504 
L 401.890864 248.364486 
L 469.6615 438.865824 
L 537.432136 464.026379 
L 605.202773 428.881478 
L 672.973409 472.013856 
L 740.744045 513.548739 
L 808.514682 538.309919 
" style="fill:none;stroke:#ee854a;stroke-dasharray:12,4.5;stroke-dashoffset:0;stroke-width:3;"/>
    <defs>
     <path d="M -2 4 
L 0 2 
L 2 4 
L 4 2 
L 2 0 
L 4 -2 
L 2 -4 
L 0 -2 
L -2 -4 
L -4 -2 
L -2 0 
L -4 2 
z
" id="m73481b4b4b" style="stroke:#ffffff;stroke-linejoin:miter;stroke-width:0.75;"/>
    </defs>
    <g clip-path="url(#p897e4dd04e)">
     <use style="fill:#ee854a;stroke:#ffffff;stroke-linejoin:miter;stroke-width:0.75;" x="130.808318" xlink:href="#m73481b4b4b" y="699.257591"/>
     <use style="fill:#ee854a;stroke:#ffffff;stroke-linejoin:miter;stroke-width:0.75;" x="198.578955" xlink:href="#m73481b4b4b" y="552.687379"/>
     <use style="fill:#ee854a;stroke:#ffffff;stroke-linejoin:miter;stroke-width:0.75;" x="266.349591" xlink:href="#m73481b4b4b" y="370.572892"/>
     <use style="fill:#ee854a;stroke:#ffffff;stroke-linejoin:miter;stroke-width:0.75;" x="334.120227" xlink:href="#m73481b4b4b" y="64.652504"/>
     <use style="fill:#ee854a;stroke:#ffffff;stroke-linejoin:miter;stroke-width:0.75;" x="401.890864" xlink:href="#m73481b4b4b" y="248.364486"/>
     <use style="fill:#ee854a;stroke:#ffffff;stroke-linejoin:miter;stroke-width:0.75;" x="469.6615" xlink:href="#m73481b4b4b" y="438.865824"/>
     <use style="fill:#ee854a;stroke:#ffffff;stroke-linejoin:miter;stroke-width:0.75;" x="537.432136" xlink:href="#m73481b4b4b" y="464.026379"/>
     <use style="fill:#ee854a;stroke:#ffffff;stroke-linejoin:miter;stroke-width:0.75;" x="605.202773" xlink:href="#m73481b4b4b" y="428.881478"/>
     <use style="fill:#ee854a;stroke:#ffffff;stroke-linejoin:miter;stroke-width:0.75;" x="672.973409" xlink:href="#m73481b4b4b" y="472.013856"/>
     <use style="fill:#ee854a;stroke:#ffffff;stroke-linejoin:miter;stroke-width:0.75;" x="740.744045" xlink:href="#m73481b4b4b" y="513.548739"/>
     <use style="fill:#ee854a;stroke:#ffffff;stroke-linejoin:miter;stroke-width:0.75;" x="808.514682" xlink:href="#m73481b4b4b" y="538.309919"/>
    </g>
   </g>
   <g id="line2d_18">
    <path clip-path="url(#p897e4dd04e)" d="M 130.808318 699.257591 
L 198.578955 525.529955 
L 266.349591 372.569761 
L 334.120227 53.869409 
L 401.890864 264.738815 
L 469.6615 429.280851 
L 537.432136 458.834518 
L 605.202773 437.667703 
L 672.973409 485.592568 
L 740.744045 527.926199 
L 808.514682 527.926199 
" style="fill:none;stroke:#6acc64;stroke-dasharray:3,3;stroke-dashoffset:0;stroke-width:3;"/>
    <defs>
     <path d="M -2.828427 -2.828427 
L -2.828427 2.828427 
L 2.828427 2.828427 
L 2.828427 -2.828427 
z
" id="m42dfc0ed87" style="stroke:#ffffff;stroke-linejoin:miter;stroke-width:0.75;"/>
    </defs>
    <g clip-path="url(#p897e4dd04e)">
     <use style="fill:#6acc64;stroke:#ffffff;stroke-linejoin:miter;stroke-width:0.75;" x="130.808318" xlink:href="#m42dfc0ed87" y="699.257591"/>
     <use style="fill:#6acc64;stroke:#ffffff;stroke-linejoin:miter;stroke-width:0.75;" x="198.578955" xlink:href="#m42dfc0ed87" y="525.529955"/>
     <use style="fill:#6acc64;stroke:#ffffff;stroke-linejoin:miter;stroke-width:0.75;" x="266.349591" xlink:href="#m42dfc0ed87" y="372.569761"/>
     <use style="fill:#6acc64;stroke:#ffffff;stroke-linejoin:miter;stroke-width:0.75;" x="334.120227" xlink:href="#m42dfc0ed87" y="53.869409"/>
     <use style="fill:#6acc64;stroke:#ffffff;stroke-linejoin:miter;stroke-width:0.75;" x="401.890864" xlink:href="#m42dfc0ed87" y="264.738815"/>
     <use style="fill:#6acc64;stroke:#ffffff;stroke-linejoin:miter;stroke-width:0.75;" x="469.6615" xlink:href="#m42dfc0ed87" y="429.280851"/>
     <use style="fill:#6acc64;stroke:#ffffff;stroke-linejoin:miter;stroke-width:0.75;" x="537.432136" xlink:href="#m42dfc0ed87" y="458.834518"/>
     <use style="fill:#6acc64;stroke:#ffffff;stroke-linejoin:miter;stroke-width:0.75;" x="605.202773" xlink:href="#m42dfc0ed87" y="437.667703"/>
     <use style="fill:#6acc64;stroke:#ffffff;stroke-linejoin:miter;stroke-width:0.75;" x="672.973409" xlink:href="#m42dfc0ed87" y="485.592568"/>
     <use style="fill:#6acc64;stroke:#ffffff;stroke-linejoin:miter;stroke-width:0.75;" x="740.744045" xlink:href="#m42dfc0ed87" y="527.926199"/>
     <use style="fill:#6acc64;stroke:#ffffff;stroke-linejoin:miter;stroke-width:0.75;" x="808.514682" xlink:href="#m42dfc0ed87" y="527.926199"/>
    </g>
   </g>
   <g id="line2d_19"/>
   <g id="line2d_20"/>
   <g id="line2d_21"/>
   <g id="patch_3">
    <path d="M 96.923 731.527 
L 96.923 21.6 
" style="fill:none;stroke:#000000;stroke-linecap:square;stroke-linejoin:miter;stroke-width:0.8;"/>
   </g>
   <g id="patch_4">
    <path d="M 842.4 731.527 
L 842.4 21.6 
" style="fill:none;stroke:#000000;stroke-linecap:square;stroke-linejoin:miter;stroke-width:0.8;"/>
   </g>
   <g id="patch_5">
    <path d="M 96.923 731.527 
L 842.4 731.527 
" style="fill:none;stroke:#000000;stroke-linecap:square;stroke-linejoin:miter;stroke-width:0.8;"/>
   </g>
   <g id="patch_6">
    <path d="M 96.923 21.6 
L 842.4 21.6 
" style="fill:none;stroke:#000000;stroke-linecap:square;stroke-linejoin:miter;stroke-width:0.8;"/>
   </g>
   <g id="legend_1">
    <g id="patch_7">
     <path d="M 735.2 151.08 
L 831.2 151.08 
Q 834.4 151.08 834.4 147.88 
L 834.4 32.8 
Q 834.4 29.6 831.2 29.6 
L 735.2 29.6 
Q 732 29.6 732 32.8 
L 732 147.88 
Q 732 151.08 735.2 151.08 
z
" style="fill:#ffffff;opacity:0.8;stroke:#cccccc;stroke-linejoin:miter;"/>
    </g>
    <g id="text_18">
     <!-- $\phi$ -->
     <g transform="translate(776.6 51.2)scale(0.2 -0.2)">
      <defs>
       <path d="M 2991 4863 
L 2738 3572 
Q 3363 3572 3684 3094 
Q 4016 2606 3850 1747 
Q 3681 888 3159 400 
Q 2653 -78 2028 -78 
L 1784 -1331 
L 1213 -1331 
L 1456 -78 
Q 834 -78 509 400 
Q 178 888 347 1747 
Q 513 2606 1034 3094 
Q 1544 3572 2166 3572 
L 2419 4863 
L 2991 4863 
z
M 2128 434 
Q 2481 434 2784 756 
Q 3116 1116 3244 1747 
Q 3369 2372 3169 2738 
Q 2991 3059 2638 3059 
L 2128 434 
z
M 1556 434 
L 2066 3059 
Q 1716 3059 1413 2738 
Q 1072 2372 953 1747 
Q 834 1116 1028 756 
Q 1203 434 1556 434 
z
" id="DejaVuSans-Oblique-3d5" transform="scale(0.015625)"/>
      </defs>
      <use transform="translate(0 0.015625)" xlink:href="#DejaVuSans-Oblique-3d5"/>
     </g>
    </g>
    <g id="line2d_22">
     <path d="M 738.4 73 
L 770.4 73 
" style="fill:none;stroke:#4878d0;stroke-linecap:square;stroke-width:1.5;"/>
    </g>
    <g id="line2d_23">
     <defs>
      <path d="M 0 3 
C 0.795609 3 1.55874 2.683901 2.12132 2.12132 
C 2.683901 1.55874 3 0.795609 3 0 
C 3 -0.795609 2.683901 -1.55874 2.12132 -2.12132 
C 1.55874 -2.683901 0.795609 -3 0 -3 
C -0.795609 -3 -1.55874 -2.683901 -2.12132 -2.12132 
C -2.683901 -1.55874 -3 -0.795609 -3 0 
C -3 0.795609 -2.683901 1.55874 -2.12132 2.12132 
C -1.55874 2.683901 -0.795609 3 0 3 
z
" id="m5245cb010f" style="stroke:#4878d0;"/>
     </defs>
     <g>
      <use style="fill:#4878d0;stroke:#4878d0;" x="754.4" xlink:href="#m5245cb010f" y="73"/>
     </g>
    </g>
    <g id="text_19">
     <!-- $\frac{1}{1000}$ -->
     <g transform="translate(783.2 78.6)scale(0.16 -0.16)">
      <use transform="translate(67 43.965625)scale(0.7)" xlink:href="#DejaVuSans-31"/>
      <use transform="translate(0 -39.2375)scale(0.7)" xlink:href="#DejaVuSans-31"/>
      <use transform="translate(44.536133 -39.2375)scale(0.7)" xlink:href="#DejaVuSans-30"/>
      <use transform="translate(89.072266 -39.2375)scale(0.7)" xlink:href="#DejaVuSans-30"/>
      <use transform="translate(133.608398 -39.2375)scale(0.7)" xlink:href="#DejaVuSans-30"/>
      <path d="M 0 18.965625 
L 0 25.215625 
L 178.144531 25.215625 
L 178.144531 18.965625 
L 0 18.965625 
z
"/>
     </g>
    </g>
    <g id="line2d_24">
     <path d="M 738.4 102.76 
L 770.4 102.76 
" style="fill:none;stroke:#ee854a;stroke-dasharray:6,2.25;stroke-dashoffset:0;stroke-width:1.5;"/>
    </g>
    <g id="line2d_25">
     <defs>
      <path d="M -1.5 3 
L 0 1.5 
L 1.5 3 
L 3 1.5 
L 1.5 0 
L 3 -1.5 
L 1.5 -3 
L 0 -1.5 
L -1.5 -3 
L -3 -1.5 
L -1.5 0 
L -3 1.5 
z
" id="mf4a374f942" style="stroke:#ee854a;stroke-linejoin:miter;"/>
     </defs>
     <g>
      <use style="fill:#ee854a;stroke:#ee854a;stroke-linejoin:miter;" x="754.4" xlink:href="#mf4a374f942" y="102.76"/>
     </g>
    </g>
    <g id="text_20">
     <!-- $\frac{1}{10000}$ -->
     <g transform="translate(783.2 108.36)scale(0.16 -0.16)">
      <use transform="translate(89 43.965625)scale(0.7)" xlink:href="#DejaVuSans-31"/>
      <use transform="translate(0 -39.2375)scale(0.7)" xlink:href="#DejaVuSans-31"/>
      <use transform="translate(44.536133 -39.2375)scale(0.7)" xlink:href="#DejaVuSans-30"/>
      <use transform="translate(89.072266 -39.2375)scale(0.7)" xlink:href="#DejaVuSans-30"/>
      <use transform="translate(133.608398 -39.2375)scale(0.7)" xlink:href="#DejaVuSans-30"/>
      <use transform="translate(178.144531 -39.2375)scale(0.7)" xlink:href="#DejaVuSans-30"/>
      <path d="M 0 18.965625 
L 0 25.215625 
L 222.680664 25.215625 
L 222.680664 18.965625 
L 0 18.965625 
z
"/>
     </g>
    </g>
    <g id="line2d_26">
     <path d="M 738.4 132.52 
L 770.4 132.52 
" style="fill:none;stroke:#6acc64;stroke-dasharray:1.5,1.5;stroke-dashoffset:0;stroke-width:1.5;"/>
    </g>
    <g id="line2d_27">
     <defs>
      <path d="M -2.12132 -2.12132 
L -2.12132 2.12132 
L 2.12132 2.12132 
L 2.12132 -2.12132 
z
" id="mf59845ed15" style="stroke:#6acc64;stroke-linejoin:miter;"/>
     </defs>
     <g>
      <use style="fill:#6acc64;stroke:#6acc64;stroke-linejoin:miter;" x="754.4" xlink:href="#mf59845ed15" y="132.52"/>
     </g>
    </g>
    <g id="text_21">
     <!-- $\frac{1}{100000}$ -->
     <g transform="translate(783.2 138.12)scale(0.16 -0.16)">
      <use transform="translate(111 43.965625)scale(0.7)" xlink:href="#DejaVuSans-31"/>
      <use transform="translate(0 -39.2375)scale(0.7)" xlink:href="#DejaVuSans-31"/>
      <use transform="translate(44.536133 -39.2375)scale(0.7)" xlink:href="#DejaVuSans-30"/>
      <use transform="translate(89.072266 -39.2375)scale(0.7)" xlink:href="#DejaVuSans-30"/>
      <use transform="translate(133.608398 -39.2375)scale(0.7)" xlink:href="#DejaVuSans-30"/>
      <use transform="translate(178.144531 -39.2375)scale(0.7)" xlink:href="#DejaVuSans-30"/>
      <use transform="translate(222.680664 -39.2375)scale(0.7)" xlink:href="#DejaVuSans-30"/>
      <path d="M 0 18.965625 
L 0 25.215625 
L 267.216797 25.215625 
L 267.216797 18.965625 
L 0 18.965625 
z
"/>
     </g>
    </g>
   </g>
  </g>
 </g>
 <defs>
  <clipPath id="p897e4dd04e">
   <rect height="709.927" width="745.477" x="96.923" y="21.6"/>
  </clipPath>
 </defs>
</svg>
