<?xml version="1.0" encoding="utf-8" standalone="no"?>
<!DOCTYPE svg PUBLIC "-//W3C//DTD SVG 1.1//EN"
  "http://www.w3.org/Graphics/SVG/1.1/DTD/svg11.dtd">
<svg height="432pt" version="1.1" viewBox="0 0 792 432" width="792pt" xmlns="http://www.w3.org/2000/svg" xmlns:xlink="http://www.w3.org/1999/xlink">
 <metadata>
  <rdf:RDF xmlns:cc="http://creativecommons.org/ns#" xmlns:dc="http://purl.org/dc/elements/1.1/" xmlns:rdf="http://www.w3.org/1999/02/22-rdf-syntax-ns#">
   <cc:Work>
    <dc:type rdf:resource="http://purl.org/dc/dcmitype/StillImage"/>
    <dc:date>2021-09-26T20:59:48.596288</dc:date>
    <dc:format>image/svg+xml</dc:format>
    <dc:creator>
     <cc:Agent>
      <dc:title>Matplotlib v3.4.2, https://matplotlib.org/</dc:title>
     </cc:Agent>
    </dc:creator>
   </cc:Work>
  </rdf:RDF>
 </metadata>
 <defs>
  <style type="text/css">*{stroke-linecap:butt;stroke-linejoin:round;}</style>
 </defs>
 <g id="figure_1">
  <g id="patch_1">
   <path d="M 0 432 
L 792 432 
L 792 0 
L 0 0 
z
" style="fill:#ffffff;"/>
  </g>
  <g id="axes_1">
   <g id="patch_2">
    <path d="M 82.1 367 
L 772.56 367 
L 772.56 73.44 
L 82.1 73.44 
z
" style="fill:#ffffff;"/>
   </g>
   <g id="matplotlib.axis_1">
    <g id="xtick_1">
     <g id="line2d_1">
      <defs>
       <path d="M 0 0 
L 0 3.5 
" id="m3111eb9cd2" style="stroke:#000000;stroke-width:0.8;"/>
      </defs>
      <g>
       <use style="stroke:#000000;stroke-width:0.8;" x="113.484545" xlink:href="#m3111eb9cd2" y="367"/>
      </g>
     </g>
     <g id="text_1">
      <!-- 0.5 -->
      <g transform="translate(99.171733 387.677187)scale(0.18 -0.18)">
       <defs>
        <path d="M 2034 4250 
Q 1547 4250 1301 3770 
Q 1056 3291 1056 2328 
Q 1056 1369 1301 889 
Q 1547 409 2034 409 
Q 2525 409 2770 889 
Q 3016 1369 3016 2328 
Q 3016 3291 2770 3770 
Q 2525 4250 2034 4250 
z
M 2034 4750 
Q 2819 4750 3233 4129 
Q 3647 3509 3647 2328 
Q 3647 1150 3233 529 
Q 2819 -91 2034 -91 
Q 1250 -91 836 529 
Q 422 1150 422 2328 
Q 422 3509 836 4129 
Q 1250 4750 2034 4750 
z
" id="DejaVuSans-30" transform="scale(0.015625)"/>
        <path d="M 684 794 
L 1344 794 
L 1344 0 
L 684 0 
L 684 794 
z
" id="DejaVuSans-2e" transform="scale(0.015625)"/>
        <path d="M 691 4666 
L 3169 4666 
L 3169 4134 
L 1269 4134 
L 1269 2991 
Q 1406 3038 1543 3061 
Q 1681 3084 1819 3084 
Q 2600 3084 3056 2656 
Q 3513 2228 3513 1497 
Q 3513 744 3044 326 
Q 2575 -91 1722 -91 
Q 1428 -91 1123 -41 
Q 819 9 494 109 
L 494 744 
Q 775 591 1075 516 
Q 1375 441 1709 441 
Q 2250 441 2565 725 
Q 2881 1009 2881 1497 
Q 2881 1984 2565 2268 
Q 2250 2553 1709 2553 
Q 1456 2553 1204 2497 
Q 953 2441 691 2322 
L 691 4666 
z
" id="DejaVuSans-35" transform="scale(0.015625)"/>
       </defs>
       <use xlink:href="#DejaVuSans-30"/>
       <use x="63.623047" xlink:href="#DejaVuSans-2e"/>
       <use x="95.410156" xlink:href="#DejaVuSans-35"/>
      </g>
     </g>
    </g>
    <g id="xtick_2">
     <g id="line2d_2">
      <g>
       <use style="stroke:#000000;stroke-width:0.8;" x="239.022727" xlink:href="#m3111eb9cd2" y="367"/>
      </g>
     </g>
     <g id="text_2">
      <!-- 1.0 -->
      <g transform="translate(224.709915 387.677187)scale(0.18 -0.18)">
       <defs>
        <path d="M 794 531 
L 1825 531 
L 1825 4091 
L 703 3866 
L 703 4441 
L 1819 4666 
L 2450 4666 
L 2450 531 
L 3481 531 
L 3481 0 
L 794 0 
L 794 531 
z
" id="DejaVuSans-31" transform="scale(0.015625)"/>
       </defs>
       <use xlink:href="#DejaVuSans-31"/>
       <use x="63.623047" xlink:href="#DejaVuSans-2e"/>
       <use x="95.410156" xlink:href="#DejaVuSans-30"/>
      </g>
     </g>
    </g>
    <g id="xtick_3">
     <g id="line2d_3">
      <g>
       <use style="stroke:#000000;stroke-width:0.8;" x="364.560909" xlink:href="#m3111eb9cd2" y="367"/>
      </g>
     </g>
     <g id="text_3">
      <!-- 1.5 -->
      <g transform="translate(350.248097 387.677187)scale(0.18 -0.18)">
       <use xlink:href="#DejaVuSans-31"/>
       <use x="63.623047" xlink:href="#DejaVuSans-2e"/>
       <use x="95.410156" xlink:href="#DejaVuSans-35"/>
      </g>
     </g>
    </g>
    <g id="xtick_4">
     <g id="line2d_4">
      <g>
       <use style="stroke:#000000;stroke-width:0.8;" x="490.099091" xlink:href="#m3111eb9cd2" y="367"/>
      </g>
     </g>
     <g id="text_4">
      <!-- 2.0 -->
      <g transform="translate(475.786278 387.677187)scale(0.18 -0.18)">
       <defs>
        <path d="M 1228 531 
L 3431 531 
L 3431 0 
L 469 0 
L 469 531 
Q 828 903 1448 1529 
Q 2069 2156 2228 2338 
Q 2531 2678 2651 2914 
Q 2772 3150 2772 3378 
Q 2772 3750 2511 3984 
Q 2250 4219 1831 4219 
Q 1534 4219 1204 4116 
Q 875 4013 500 3803 
L 500 4441 
Q 881 4594 1212 4672 
Q 1544 4750 1819 4750 
Q 2544 4750 2975 4387 
Q 3406 4025 3406 3419 
Q 3406 3131 3298 2873 
Q 3191 2616 2906 2266 
Q 2828 2175 2409 1742 
Q 1991 1309 1228 531 
z
" id="DejaVuSans-32" transform="scale(0.015625)"/>
       </defs>
       <use xlink:href="#DejaVuSans-32"/>
       <use x="63.623047" xlink:href="#DejaVuSans-2e"/>
       <use x="95.410156" xlink:href="#DejaVuSans-30"/>
      </g>
     </g>
    </g>
    <g id="xtick_5">
     <g id="line2d_5">
      <g>
       <use style="stroke:#000000;stroke-width:0.8;" x="615.637273" xlink:href="#m3111eb9cd2" y="367"/>
      </g>
     </g>
     <g id="text_5">
      <!-- 2.5 -->
      <g transform="translate(601.32446 387.677187)scale(0.18 -0.18)">
       <use xlink:href="#DejaVuSans-32"/>
       <use x="63.623047" xlink:href="#DejaVuSans-2e"/>
       <use x="95.410156" xlink:href="#DejaVuSans-35"/>
      </g>
     </g>
    </g>
    <g id="xtick_6">
     <g id="line2d_6">
      <g>
       <use style="stroke:#000000;stroke-width:0.8;" x="741.175455" xlink:href="#m3111eb9cd2" y="367"/>
      </g>
     </g>
     <g id="text_6">
      <!-- 3.0 -->
      <g transform="translate(726.862642 387.677187)scale(0.18 -0.18)">
       <defs>
        <path d="M 2597 2516 
Q 3050 2419 3304 2112 
Q 3559 1806 3559 1356 
Q 3559 666 3084 287 
Q 2609 -91 1734 -91 
Q 1441 -91 1130 -33 
Q 819 25 488 141 
L 488 750 
Q 750 597 1062 519 
Q 1375 441 1716 441 
Q 2309 441 2620 675 
Q 2931 909 2931 1356 
Q 2931 1769 2642 2001 
Q 2353 2234 1838 2234 
L 1294 2234 
L 1294 2753 
L 1863 2753 
Q 2328 2753 2575 2939 
Q 2822 3125 2822 3475 
Q 2822 3834 2567 4026 
Q 2313 4219 1838 4219 
Q 1578 4219 1281 4162 
Q 984 4106 628 3988 
L 628 4550 
Q 988 4650 1302 4700 
Q 1616 4750 1894 4750 
Q 2613 4750 3031 4423 
Q 3450 4097 3450 3541 
Q 3450 3153 3228 2886 
Q 3006 2619 2597 2516 
z
" id="DejaVuSans-33" transform="scale(0.015625)"/>
       </defs>
       <use xlink:href="#DejaVuSans-33"/>
       <use x="63.623047" xlink:href="#DejaVuSans-2e"/>
       <use x="95.410156" xlink:href="#DejaVuSans-30"/>
      </g>
     </g>
    </g>
    <g id="text_7">
     <!-- Skew -->
     <g transform="translate(403.832969 409.097812)scale(0.18 -0.18)">
      <defs>
       <path d="M 3425 4513 
L 3425 3897 
Q 3066 4069 2747 4153 
Q 2428 4238 2131 4238 
Q 1616 4238 1336 4038 
Q 1056 3838 1056 3469 
Q 1056 3159 1242 3001 
Q 1428 2844 1947 2747 
L 2328 2669 
Q 3034 2534 3370 2195 
Q 3706 1856 3706 1288 
Q 3706 609 3251 259 
Q 2797 -91 1919 -91 
Q 1588 -91 1214 -16 
Q 841 59 441 206 
L 441 856 
Q 825 641 1194 531 
Q 1563 422 1919 422 
Q 2459 422 2753 634 
Q 3047 847 3047 1241 
Q 3047 1584 2836 1778 
Q 2625 1972 2144 2069 
L 1759 2144 
Q 1053 2284 737 2584 
Q 422 2884 422 3419 
Q 422 4038 858 4394 
Q 1294 4750 2059 4750 
Q 2388 4750 2728 4690 
Q 3069 4631 3425 4513 
z
" id="DejaVuSans-53" transform="scale(0.015625)"/>
       <path d="M 581 4863 
L 1159 4863 
L 1159 1991 
L 2875 3500 
L 3609 3500 
L 1753 1863 
L 3688 0 
L 2938 0 
L 1159 1709 
L 1159 0 
L 581 0 
L 581 4863 
z
" id="DejaVuSans-6b" transform="scale(0.015625)"/>
       <path d="M 3597 1894 
L 3597 1613 
L 953 1613 
Q 991 1019 1311 708 
Q 1631 397 2203 397 
Q 2534 397 2845 478 
Q 3156 559 3463 722 
L 3463 178 
Q 3153 47 2828 -22 
Q 2503 -91 2169 -91 
Q 1331 -91 842 396 
Q 353 884 353 1716 
Q 353 2575 817 3079 
Q 1281 3584 2069 3584 
Q 2775 3584 3186 3129 
Q 3597 2675 3597 1894 
z
M 3022 2063 
Q 3016 2534 2758 2815 
Q 2500 3097 2075 3097 
Q 1594 3097 1305 2825 
Q 1016 2553 972 2059 
L 3022 2063 
z
" id="DejaVuSans-65" transform="scale(0.015625)"/>
       <path d="M 269 3500 
L 844 3500 
L 1563 769 
L 2278 3500 
L 2956 3500 
L 3675 769 
L 4391 3500 
L 4966 3500 
L 4050 0 
L 3372 0 
L 2619 2869 
L 1863 0 
L 1184 0 
L 269 3500 
z
" id="DejaVuSans-77" transform="scale(0.015625)"/>
      </defs>
      <use xlink:href="#DejaVuSans-53"/>
      <use x="63.476562" xlink:href="#DejaVuSans-6b"/>
      <use x="117.761719" xlink:href="#DejaVuSans-65"/>
      <use x="179.285156" xlink:href="#DejaVuSans-77"/>
     </g>
    </g>
   </g>
   <g id="matplotlib.axis_2">
    <g id="ytick_1">
     <g id="line2d_7">
      <defs>
       <path d="M 0 0 
L -3.5 0 
" id="mc3e21e8a2e" style="stroke:#000000;stroke-width:0.8;"/>
      </defs>
      <g>
       <use style="stroke:#000000;stroke-width:0.8;" x="82.1" xlink:href="#mc3e21e8a2e" y="366.511547"/>
      </g>
     </g>
     <g id="text_8">
      <!-- 0 -->
      <g transform="translate(63.6475 373.350141)scale(0.18 -0.18)">
       <use xlink:href="#DejaVuSans-30"/>
      </g>
     </g>
    </g>
    <g id="ytick_2">
     <g id="line2d_8">
      <g>
       <use style="stroke:#000000;stroke-width:0.8;" x="82.1" xlink:href="#mc3e21e8a2e" y="317.66629"/>
      </g>
     </g>
     <g id="text_9">
      <!-- 100 -->
      <g transform="translate(40.7425 324.504883)scale(0.18 -0.18)">
       <use xlink:href="#DejaVuSans-31"/>
       <use x="63.623047" xlink:href="#DejaVuSans-30"/>
       <use x="127.246094" xlink:href="#DejaVuSans-30"/>
      </g>
     </g>
    </g>
    <g id="ytick_3">
     <g id="line2d_9">
      <g>
       <use style="stroke:#000000;stroke-width:0.8;" x="82.1" xlink:href="#mc3e21e8a2e" y="268.821032"/>
      </g>
     </g>
     <g id="text_10">
      <!-- 200 -->
      <g transform="translate(40.7425 275.659625)scale(0.18 -0.18)">
       <use xlink:href="#DejaVuSans-32"/>
       <use x="63.623047" xlink:href="#DejaVuSans-30"/>
       <use x="127.246094" xlink:href="#DejaVuSans-30"/>
      </g>
     </g>
    </g>
    <g id="ytick_4">
     <g id="line2d_10">
      <g>
       <use style="stroke:#000000;stroke-width:0.8;" x="82.1" xlink:href="#mc3e21e8a2e" y="219.975774"/>
      </g>
     </g>
     <g id="text_11">
      <!-- 300 -->
      <g transform="translate(40.7425 226.814367)scale(0.18 -0.18)">
       <use xlink:href="#DejaVuSans-33"/>
       <use x="63.623047" xlink:href="#DejaVuSans-30"/>
       <use x="127.246094" xlink:href="#DejaVuSans-30"/>
      </g>
     </g>
    </g>
    <g id="ytick_5">
     <g id="line2d_11">
      <g>
       <use style="stroke:#000000;stroke-width:0.8;" x="82.1" xlink:href="#mc3e21e8a2e" y="171.130516"/>
      </g>
     </g>
     <g id="text_12">
      <!-- 400 -->
      <g transform="translate(40.7425 177.96911)scale(0.18 -0.18)">
       <defs>
        <path d="M 2419 4116 
L 825 1625 
L 2419 1625 
L 2419 4116 
z
M 2253 4666 
L 3047 4666 
L 3047 1625 
L 3713 1625 
L 3713 1100 
L 3047 1100 
L 3047 0 
L 2419 0 
L 2419 1100 
L 313 1100 
L 313 1709 
L 2253 4666 
z
" id="DejaVuSans-34" transform="scale(0.015625)"/>
       </defs>
       <use xlink:href="#DejaVuSans-34"/>
       <use x="63.623047" xlink:href="#DejaVuSans-30"/>
       <use x="127.246094" xlink:href="#DejaVuSans-30"/>
      </g>
     </g>
    </g>
    <g id="ytick_6">
     <g id="line2d_12">
      <g>
       <use style="stroke:#000000;stroke-width:0.8;" x="82.1" xlink:href="#mc3e21e8a2e" y="122.285258"/>
      </g>
     </g>
     <g id="text_13">
      <!-- 500 -->
      <g transform="translate(40.7425 129.123852)scale(0.18 -0.18)">
       <use xlink:href="#DejaVuSans-35"/>
       <use x="63.623047" xlink:href="#DejaVuSans-30"/>
       <use x="127.246094" xlink:href="#DejaVuSans-30"/>
      </g>
     </g>
    </g>
    <g id="ytick_7">
     <g id="line2d_13">
      <g>
       <use style="stroke:#000000;stroke-width:0.8;" x="82.1" xlink:href="#mc3e21e8a2e" y="73.44"/>
      </g>
     </g>
     <g id="text_14">
      <!-- 600 -->
      <g transform="translate(40.7425 80.278594)scale(0.18 -0.18)">
       <defs>
        <path d="M 2113 2584 
Q 1688 2584 1439 2293 
Q 1191 2003 1191 1497 
Q 1191 994 1439 701 
Q 1688 409 2113 409 
Q 2538 409 2786 701 
Q 3034 994 3034 1497 
Q 3034 2003 2786 2293 
Q 2538 2584 2113 2584 
z
M 3366 4563 
L 3366 3988 
Q 3128 4100 2886 4159 
Q 2644 4219 2406 4219 
Q 1781 4219 1451 3797 
Q 1122 3375 1075 2522 
Q 1259 2794 1537 2939 
Q 1816 3084 2150 3084 
Q 2853 3084 3261 2657 
Q 3669 2231 3669 1497 
Q 3669 778 3244 343 
Q 2819 -91 2113 -91 
Q 1303 -91 875 529 
Q 447 1150 447 2328 
Q 447 3434 972 4092 
Q 1497 4750 2381 4750 
Q 2619 4750 2861 4703 
Q 3103 4656 3366 4563 
z
" id="DejaVuSans-36" transform="scale(0.015625)"/>
       </defs>
       <use xlink:href="#DejaVuSans-36"/>
       <use x="63.623047" xlink:href="#DejaVuSans-30"/>
       <use x="127.246094" xlink:href="#DejaVuSans-30"/>
      </g>
     </g>
    </g>
    <g id="text_15">
     <!-- Throughput (Million Inserts/sec) -->
     <g transform="translate(32.999063 362.920625)rotate(-90)scale(0.18 -0.18)">
      <defs>
       <path d="M -19 4666 
L 3928 4666 
L 3928 4134 
L 2272 4134 
L 2272 0 
L 1638 0 
L 1638 4134 
L -19 4134 
L -19 4666 
z
" id="DejaVuSans-54" transform="scale(0.015625)"/>
       <path d="M 3513 2113 
L 3513 0 
L 2938 0 
L 2938 2094 
Q 2938 2591 2744 2837 
Q 2550 3084 2163 3084 
Q 1697 3084 1428 2787 
Q 1159 2491 1159 1978 
L 1159 0 
L 581 0 
L 581 4863 
L 1159 4863 
L 1159 2956 
Q 1366 3272 1645 3428 
Q 1925 3584 2291 3584 
Q 2894 3584 3203 3211 
Q 3513 2838 3513 2113 
z
" id="DejaVuSans-68" transform="scale(0.015625)"/>
       <path d="M 2631 2963 
Q 2534 3019 2420 3045 
Q 2306 3072 2169 3072 
Q 1681 3072 1420 2755 
Q 1159 2438 1159 1844 
L 1159 0 
L 581 0 
L 581 3500 
L 1159 3500 
L 1159 2956 
Q 1341 3275 1631 3429 
Q 1922 3584 2338 3584 
Q 2397 3584 2469 3576 
Q 2541 3569 2628 3553 
L 2631 2963 
z
" id="DejaVuSans-72" transform="scale(0.015625)"/>
       <path d="M 1959 3097 
Q 1497 3097 1228 2736 
Q 959 2375 959 1747 
Q 959 1119 1226 758 
Q 1494 397 1959 397 
Q 2419 397 2687 759 
Q 2956 1122 2956 1747 
Q 2956 2369 2687 2733 
Q 2419 3097 1959 3097 
z
M 1959 3584 
Q 2709 3584 3137 3096 
Q 3566 2609 3566 1747 
Q 3566 888 3137 398 
Q 2709 -91 1959 -91 
Q 1206 -91 779 398 
Q 353 888 353 1747 
Q 353 2609 779 3096 
Q 1206 3584 1959 3584 
z
" id="DejaVuSans-6f" transform="scale(0.015625)"/>
       <path d="M 544 1381 
L 544 3500 
L 1119 3500 
L 1119 1403 
Q 1119 906 1312 657 
Q 1506 409 1894 409 
Q 2359 409 2629 706 
Q 2900 1003 2900 1516 
L 2900 3500 
L 3475 3500 
L 3475 0 
L 2900 0 
L 2900 538 
Q 2691 219 2414 64 
Q 2138 -91 1772 -91 
Q 1169 -91 856 284 
Q 544 659 544 1381 
z
M 1991 3584 
L 1991 3584 
z
" id="DejaVuSans-75" transform="scale(0.015625)"/>
       <path d="M 2906 1791 
Q 2906 2416 2648 2759 
Q 2391 3103 1925 3103 
Q 1463 3103 1205 2759 
Q 947 2416 947 1791 
Q 947 1169 1205 825 
Q 1463 481 1925 481 
Q 2391 481 2648 825 
Q 2906 1169 2906 1791 
z
M 3481 434 
Q 3481 -459 3084 -895 
Q 2688 -1331 1869 -1331 
Q 1566 -1331 1297 -1286 
Q 1028 -1241 775 -1147 
L 775 -588 
Q 1028 -725 1275 -790 
Q 1522 -856 1778 -856 
Q 2344 -856 2625 -561 
Q 2906 -266 2906 331 
L 2906 616 
Q 2728 306 2450 153 
Q 2172 0 1784 0 
Q 1141 0 747 490 
Q 353 981 353 1791 
Q 353 2603 747 3093 
Q 1141 3584 1784 3584 
Q 2172 3584 2450 3431 
Q 2728 3278 2906 2969 
L 2906 3500 
L 3481 3500 
L 3481 434 
z
" id="DejaVuSans-67" transform="scale(0.015625)"/>
       <path d="M 1159 525 
L 1159 -1331 
L 581 -1331 
L 581 3500 
L 1159 3500 
L 1159 2969 
Q 1341 3281 1617 3432 
Q 1894 3584 2278 3584 
Q 2916 3584 3314 3078 
Q 3713 2572 3713 1747 
Q 3713 922 3314 415 
Q 2916 -91 2278 -91 
Q 1894 -91 1617 61 
Q 1341 213 1159 525 
z
M 3116 1747 
Q 3116 2381 2855 2742 
Q 2594 3103 2138 3103 
Q 1681 3103 1420 2742 
Q 1159 2381 1159 1747 
Q 1159 1113 1420 752 
Q 1681 391 2138 391 
Q 2594 391 2855 752 
Q 3116 1113 3116 1747 
z
" id="DejaVuSans-70" transform="scale(0.015625)"/>
       <path d="M 1172 4494 
L 1172 3500 
L 2356 3500 
L 2356 3053 
L 1172 3053 
L 1172 1153 
Q 1172 725 1289 603 
Q 1406 481 1766 481 
L 2356 481 
L 2356 0 
L 1766 0 
Q 1100 0 847 248 
Q 594 497 594 1153 
L 594 3053 
L 172 3053 
L 172 3500 
L 594 3500 
L 594 4494 
L 1172 4494 
z
" id="DejaVuSans-74" transform="scale(0.015625)"/>
       <path id="DejaVuSans-20" transform="scale(0.015625)"/>
       <path d="M 1984 4856 
Q 1566 4138 1362 3434 
Q 1159 2731 1159 2009 
Q 1159 1288 1364 580 
Q 1569 -128 1984 -844 
L 1484 -844 
Q 1016 -109 783 600 
Q 550 1309 550 2009 
Q 550 2706 781 3412 
Q 1013 4119 1484 4856 
L 1984 4856 
z
" id="DejaVuSans-28" transform="scale(0.015625)"/>
       <path d="M 628 4666 
L 1569 4666 
L 2759 1491 
L 3956 4666 
L 4897 4666 
L 4897 0 
L 4281 0 
L 4281 4097 
L 3078 897 
L 2444 897 
L 1241 4097 
L 1241 0 
L 628 0 
L 628 4666 
z
" id="DejaVuSans-4d" transform="scale(0.015625)"/>
       <path d="M 603 3500 
L 1178 3500 
L 1178 0 
L 603 0 
L 603 3500 
z
M 603 4863 
L 1178 4863 
L 1178 4134 
L 603 4134 
L 603 4863 
z
" id="DejaVuSans-69" transform="scale(0.015625)"/>
       <path d="M 603 4863 
L 1178 4863 
L 1178 0 
L 603 0 
L 603 4863 
z
" id="DejaVuSans-6c" transform="scale(0.015625)"/>
       <path d="M 3513 2113 
L 3513 0 
L 2938 0 
L 2938 2094 
Q 2938 2591 2744 2837 
Q 2550 3084 2163 3084 
Q 1697 3084 1428 2787 
Q 1159 2491 1159 1978 
L 1159 0 
L 581 0 
L 581 3500 
L 1159 3500 
L 1159 2956 
Q 1366 3272 1645 3428 
Q 1925 3584 2291 3584 
Q 2894 3584 3203 3211 
Q 3513 2838 3513 2113 
z
" id="DejaVuSans-6e" transform="scale(0.015625)"/>
       <path d="M 628 4666 
L 1259 4666 
L 1259 0 
L 628 0 
L 628 4666 
z
" id="DejaVuSans-49" transform="scale(0.015625)"/>
       <path d="M 2834 3397 
L 2834 2853 
Q 2591 2978 2328 3040 
Q 2066 3103 1784 3103 
Q 1356 3103 1142 2972 
Q 928 2841 928 2578 
Q 928 2378 1081 2264 
Q 1234 2150 1697 2047 
L 1894 2003 
Q 2506 1872 2764 1633 
Q 3022 1394 3022 966 
Q 3022 478 2636 193 
Q 2250 -91 1575 -91 
Q 1294 -91 989 -36 
Q 684 19 347 128 
L 347 722 
Q 666 556 975 473 
Q 1284 391 1588 391 
Q 1994 391 2212 530 
Q 2431 669 2431 922 
Q 2431 1156 2273 1281 
Q 2116 1406 1581 1522 
L 1381 1569 
Q 847 1681 609 1914 
Q 372 2147 372 2553 
Q 372 3047 722 3315 
Q 1072 3584 1716 3584 
Q 2034 3584 2315 3537 
Q 2597 3491 2834 3397 
z
" id="DejaVuSans-73" transform="scale(0.015625)"/>
       <path d="M 1625 4666 
L 2156 4666 
L 531 -594 
L 0 -594 
L 1625 4666 
z
" id="DejaVuSans-2f" transform="scale(0.015625)"/>
       <path d="M 3122 3366 
L 3122 2828 
Q 2878 2963 2633 3030 
Q 2388 3097 2138 3097 
Q 1578 3097 1268 2742 
Q 959 2388 959 1747 
Q 959 1106 1268 751 
Q 1578 397 2138 397 
Q 2388 397 2633 464 
Q 2878 531 3122 666 
L 3122 134 
Q 2881 22 2623 -34 
Q 2366 -91 2075 -91 
Q 1284 -91 818 406 
Q 353 903 353 1747 
Q 353 2603 823 3093 
Q 1294 3584 2113 3584 
Q 2378 3584 2631 3529 
Q 2884 3475 3122 3366 
z
" id="DejaVuSans-63" transform="scale(0.015625)"/>
       <path d="M 513 4856 
L 1013 4856 
Q 1481 4119 1714 3412 
Q 1947 2706 1947 2009 
Q 1947 1309 1714 600 
Q 1481 -109 1013 -844 
L 513 -844 
Q 928 -128 1133 580 
Q 1338 1288 1338 2009 
Q 1338 2731 1133 3434 
Q 928 4138 513 4856 
z
" id="DejaVuSans-29" transform="scale(0.015625)"/>
      </defs>
      <use xlink:href="#DejaVuSans-54"/>
      <use x="61.083984" xlink:href="#DejaVuSans-68"/>
      <use x="124.462891" xlink:href="#DejaVuSans-72"/>
      <use x="163.326172" xlink:href="#DejaVuSans-6f"/>
      <use x="224.507812" xlink:href="#DejaVuSans-75"/>
      <use x="287.886719" xlink:href="#DejaVuSans-67"/>
      <use x="351.363281" xlink:href="#DejaVuSans-68"/>
      <use x="414.742188" xlink:href="#DejaVuSans-70"/>
      <use x="478.21875" xlink:href="#DejaVuSans-75"/>
      <use x="541.597656" xlink:href="#DejaVuSans-74"/>
      <use x="580.806641" xlink:href="#DejaVuSans-20"/>
      <use x="612.59375" xlink:href="#DejaVuSans-28"/>
      <use x="651.607422" xlink:href="#DejaVuSans-4d"/>
      <use x="737.886719" xlink:href="#DejaVuSans-69"/>
      <use x="765.669922" xlink:href="#DejaVuSans-6c"/>
      <use x="793.453125" xlink:href="#DejaVuSans-6c"/>
      <use x="821.236328" xlink:href="#DejaVuSans-69"/>
      <use x="849.019531" xlink:href="#DejaVuSans-6f"/>
      <use x="910.201172" xlink:href="#DejaVuSans-6e"/>
      <use x="973.580078" xlink:href="#DejaVuSans-20"/>
      <use x="1005.367188" xlink:href="#DejaVuSans-49"/>
      <use x="1034.859375" xlink:href="#DejaVuSans-6e"/>
      <use x="1098.238281" xlink:href="#DejaVuSans-73"/>
      <use x="1150.337891" xlink:href="#DejaVuSans-65"/>
      <use x="1211.861328" xlink:href="#DejaVuSans-72"/>
      <use x="1252.974609" xlink:href="#DejaVuSans-74"/>
      <use x="1292.183594" xlink:href="#DejaVuSans-73"/>
      <use x="1344.283203" xlink:href="#DejaVuSans-2f"/>
      <use x="1377.974609" xlink:href="#DejaVuSans-73"/>
      <use x="1430.074219" xlink:href="#DejaVuSans-65"/>
      <use x="1491.597656" xlink:href="#DejaVuSans-63"/>
      <use x="1546.578125" xlink:href="#DejaVuSans-29"/>
     </g>
    </g>
   </g>
   <g id="line2d_14">
    <path clip-path="url(#pd02d36a736)" d="M 113.484545 342.894199 
L 176.253636 339.886563 
L 239.022727 309.049049 
L 301.791818 191.636792 
L 364.560909 118.258022 
L 427.33 90.662282 
L 490.099091 90.404098 
L 552.868182 95.467739 
L 615.637273 98.105937 
L 678.406364 103.264913 
L 741.175455 101.837489 
" style="fill:none;stroke:#4878d0;stroke-linecap:square;stroke-width:3;"/>
    <defs>
     <path d="M 0 4 
C 1.060812 4 2.078319 3.578535 2.828427 2.828427 
C 3.578535 2.078319 4 1.060812 4 0 
C 4 -1.060812 3.578535 -2.078319 2.828427 -2.828427 
C 2.078319 -3.578535 1.060812 -4 0 -4 
C -1.060812 -4 -2.078319 -3.578535 -2.828427 -2.828427 
C -3.578535 -2.078319 -4 -1.060812 -4 0 
C -4 1.060812 -3.578535 2.078319 -2.828427 2.828427 
C -2.078319 3.578535 -1.060812 4 0 4 
z
" id="m128b30704c" style="stroke:#ffffff;stroke-width:0.75;"/>
    </defs>
    <g clip-path="url(#pd02d36a736)">
     <use style="fill:#4878d0;stroke:#ffffff;stroke-width:0.75;" x="113.484545" xlink:href="#m128b30704c" y="342.894199"/>
     <use style="fill:#4878d0;stroke:#ffffff;stroke-width:0.75;" x="176.253636" xlink:href="#m128b30704c" y="339.886563"/>
     <use style="fill:#4878d0;stroke:#ffffff;stroke-width:0.75;" x="239.022727" xlink:href="#m128b30704c" y="309.049049"/>
     <use style="fill:#4878d0;stroke:#ffffff;stroke-width:0.75;" x="301.791818" xlink:href="#m128b30704c" y="191.636792"/>
     <use style="fill:#4878d0;stroke:#ffffff;stroke-width:0.75;" x="364.560909" xlink:href="#m128b30704c" y="118.258022"/>
     <use style="fill:#4878d0;stroke:#ffffff;stroke-width:0.75;" x="427.33" xlink:href="#m128b30704c" y="90.662282"/>
     <use style="fill:#4878d0;stroke:#ffffff;stroke-width:0.75;" x="490.099091" xlink:href="#m128b30704c" y="90.404098"/>
     <use style="fill:#4878d0;stroke:#ffffff;stroke-width:0.75;" x="552.868182" xlink:href="#m128b30704c" y="95.467739"/>
     <use style="fill:#4878d0;stroke:#ffffff;stroke-width:0.75;" x="615.637273" xlink:href="#m128b30704c" y="98.105937"/>
     <use style="fill:#4878d0;stroke:#ffffff;stroke-width:0.75;" x="678.406364" xlink:href="#m128b30704c" y="103.264913"/>
     <use style="fill:#4878d0;stroke:#ffffff;stroke-width:0.75;" x="741.175455" xlink:href="#m128b30704c" y="101.837489"/>
    </g>
   </g>
   <g id="line2d_15">
    <path clip-path="url(#pd02d36a736)" d="M 113.484545 365.128083 
L 176.253636 364.879628 
L 239.022727 362.537626 
L 301.791818 355.788154 
L 364.560909 349.232924 
L 427.33 350.407314 
L 490.099091 347.129558 
L 552.868182 348.182159 
L 615.637273 344.972834 
L 678.406364 344.865027 
L 741.175455 344.862419 
" style="fill:none;stroke:#4878d0;stroke-dasharray:12,4.5;stroke-dashoffset:0;stroke-width:3;"/>
    <defs>
     <path d="M -2 4 
L 0 2 
L 2 4 
L 4 2 
L 2 0 
L 4 -2 
L 2 -4 
L 0 -2 
L -2 -4 
L -4 -2 
L -2 0 
L -4 2 
z
" id="mfa79da104d" style="stroke:#ffffff;stroke-linejoin:miter;stroke-width:0.75;"/>
    </defs>
    <g clip-path="url(#pd02d36a736)">
     <use style="fill:#4878d0;stroke:#ffffff;stroke-linejoin:miter;stroke-width:0.75;" x="113.484545" xlink:href="#mfa79da104d" y="365.128083"/>
     <use style="fill:#4878d0;stroke:#ffffff;stroke-linejoin:miter;stroke-width:0.75;" x="176.253636" xlink:href="#mfa79da104d" y="364.879628"/>
     <use style="fill:#4878d0;stroke:#ffffff;stroke-linejoin:miter;stroke-width:0.75;" x="239.022727" xlink:href="#mfa79da104d" y="362.537626"/>
     <use style="fill:#4878d0;stroke:#ffffff;stroke-linejoin:miter;stroke-width:0.75;" x="301.791818" xlink:href="#mfa79da104d" y="355.788154"/>
     <use style="fill:#4878d0;stroke:#ffffff;stroke-linejoin:miter;stroke-width:0.75;" x="364.560909" xlink:href="#mfa79da104d" y="349.232924"/>
     <use style="fill:#4878d0;stroke:#ffffff;stroke-linejoin:miter;stroke-width:0.75;" x="427.33" xlink:href="#mfa79da104d" y="350.407314"/>
     <use style="fill:#4878d0;stroke:#ffffff;stroke-linejoin:miter;stroke-width:0.75;" x="490.099091" xlink:href="#mfa79da104d" y="347.129558"/>
     <use style="fill:#4878d0;stroke:#ffffff;stroke-linejoin:miter;stroke-width:0.75;" x="552.868182" xlink:href="#mfa79da104d" y="348.182159"/>
     <use style="fill:#4878d0;stroke:#ffffff;stroke-linejoin:miter;stroke-width:0.75;" x="615.637273" xlink:href="#mfa79da104d" y="344.972834"/>
     <use style="fill:#4878d0;stroke:#ffffff;stroke-linejoin:miter;stroke-width:0.75;" x="678.406364" xlink:href="#mfa79da104d" y="344.865027"/>
     <use style="fill:#4878d0;stroke:#ffffff;stroke-linejoin:miter;stroke-width:0.75;" x="741.175455" xlink:href="#mfa79da104d" y="344.862419"/>
    </g>
   </g>
   <g id="line2d_16">
    <path clip-path="url(#pd02d36a736)" d="M 113.484545 331.004534 
L 176.253636 328.056525 
L 239.022727 299.148982 
L 301.791818 199.206266 
L 364.560909 120.820234 
L 427.33 90.839948 
L 490.099091 90.281871 
L 552.868182 93.981607 
L 615.637273 100.544545 
L 678.406364 104.752142 
L 741.175455 103.710984 
" style="fill:none;stroke:#ee854a;stroke-linecap:square;stroke-width:3;"/>
    <defs>
     <path d="M 0 4 
C 1.060812 4 2.078319 3.578535 2.828427 2.828427 
C 3.578535 2.078319 4 1.060812 4 0 
C 4 -1.060812 3.578535 -2.078319 2.828427 -2.828427 
C 2.078319 -3.578535 1.060812 -4 0 -4 
C -1.060812 -4 -2.078319 -3.578535 -2.828427 -2.828427 
C -3.578535 -2.078319 -4 -1.060812 -4 0 
C -4 1.060812 -3.578535 2.078319 -2.828427 2.828427 
C -2.078319 3.578535 -1.060812 4 0 4 
z
" id="m58169580cf" style="stroke:#ffffff;stroke-width:0.75;"/>
    </defs>
    <g clip-path="url(#pd02d36a736)">
     <use style="fill:#ee854a;stroke:#ffffff;stroke-width:0.75;" x="113.484545" xlink:href="#m58169580cf" y="331.004534"/>
     <use style="fill:#ee854a;stroke:#ffffff;stroke-width:0.75;" x="176.253636" xlink:href="#m58169580cf" y="328.056525"/>
     <use style="fill:#ee854a;stroke:#ffffff;stroke-width:0.75;" x="239.022727" xlink:href="#m58169580cf" y="299.148982"/>
     <use style="fill:#ee854a;stroke:#ffffff;stroke-width:0.75;" x="301.791818" xlink:href="#m58169580cf" y="199.206266"/>
     <use style="fill:#ee854a;stroke:#ffffff;stroke-width:0.75;" x="364.560909" xlink:href="#m58169580cf" y="120.820234"/>
     <use style="fill:#ee854a;stroke:#ffffff;stroke-width:0.75;" x="427.33" xlink:href="#m58169580cf" y="90.839948"/>
     <use style="fill:#ee854a;stroke:#ffffff;stroke-width:0.75;" x="490.099091" xlink:href="#m58169580cf" y="90.281871"/>
     <use style="fill:#ee854a;stroke:#ffffff;stroke-width:0.75;" x="552.868182" xlink:href="#m58169580cf" y="93.981607"/>
     <use style="fill:#ee854a;stroke:#ffffff;stroke-width:0.75;" x="615.637273" xlink:href="#m58169580cf" y="100.544545"/>
     <use style="fill:#ee854a;stroke:#ffffff;stroke-width:0.75;" x="678.406364" xlink:href="#m58169580cf" y="104.752142"/>
     <use style="fill:#ee854a;stroke:#ffffff;stroke-width:0.75;" x="741.175455" xlink:href="#m58169580cf" y="103.710984"/>
    </g>
   </g>
   <g id="line2d_17">
    <path clip-path="url(#pd02d36a736)" d="M 113.484545 364.575991 
L 176.253636 364.427936 
L 239.022727 362.679547 
L 301.791818 356.166353 
L 364.560909 350.082217 
L 427.33 348.542059 
L 490.099091 347.388472 
L 552.868182 346.622772 
L 615.637273 346.69545 
L 678.406364 346.101711 
L 741.175455 348.34965 
" style="fill:none;stroke:#ee854a;stroke-dasharray:12,4.5;stroke-dashoffset:0;stroke-width:3;"/>
    <defs>
     <path d="M -2 4 
L 0 2 
L 2 4 
L 4 2 
L 2 0 
L 4 -2 
L 2 -4 
L 0 -2 
L -2 -4 
L -4 -2 
L -2 0 
L -4 2 
z
" id="med47cb86a9" style="stroke:#ffffff;stroke-linejoin:miter;stroke-width:0.75;"/>
    </defs>
    <g clip-path="url(#pd02d36a736)">
     <use style="fill:#ee854a;stroke:#ffffff;stroke-linejoin:miter;stroke-width:0.75;" x="113.484545" xlink:href="#med47cb86a9" y="364.575991"/>
     <use style="fill:#ee854a;stroke:#ffffff;stroke-linejoin:miter;stroke-width:0.75;" x="176.253636" xlink:href="#med47cb86a9" y="364.427936"/>
     <use style="fill:#ee854a;stroke:#ffffff;stroke-linejoin:miter;stroke-width:0.75;" x="239.022727" xlink:href="#med47cb86a9" y="362.679547"/>
     <use style="fill:#ee854a;stroke:#ffffff;stroke-linejoin:miter;stroke-width:0.75;" x="301.791818" xlink:href="#med47cb86a9" y="356.166353"/>
     <use style="fill:#ee854a;stroke:#ffffff;stroke-linejoin:miter;stroke-width:0.75;" x="364.560909" xlink:href="#med47cb86a9" y="350.082217"/>
     <use style="fill:#ee854a;stroke:#ffffff;stroke-linejoin:miter;stroke-width:0.75;" x="427.33" xlink:href="#med47cb86a9" y="348.542059"/>
     <use style="fill:#ee854a;stroke:#ffffff;stroke-linejoin:miter;stroke-width:0.75;" x="490.099091" xlink:href="#med47cb86a9" y="347.388472"/>
     <use style="fill:#ee854a;stroke:#ffffff;stroke-linejoin:miter;stroke-width:0.75;" x="552.868182" xlink:href="#med47cb86a9" y="346.622772"/>
     <use style="fill:#ee854a;stroke:#ffffff;stroke-linejoin:miter;stroke-width:0.75;" x="615.637273" xlink:href="#med47cb86a9" y="346.69545"/>
     <use style="fill:#ee854a;stroke:#ffffff;stroke-linejoin:miter;stroke-width:0.75;" x="678.406364" xlink:href="#med47cb86a9" y="346.101711"/>
     <use style="fill:#ee854a;stroke:#ffffff;stroke-linejoin:miter;stroke-width:0.75;" x="741.175455" xlink:href="#med47cb86a9" y="348.34965"/>
    </g>
   </g>
   <g id="line2d_18">
    <path clip-path="url(#pd02d36a736)" d="M 113.484545 321.922024 
L 176.253636 320.015095 
L 239.022727 296.900027 
L 301.791818 208.439301 
L 364.560909 124.652947 
L 427.33 91.059883 
L 490.099091 91.644273 
L 552.868182 99.917916 
L 615.637273 97.232607 
L 678.406364 100.985822 
L 741.175455 103.233956 
" style="fill:none;stroke:#6acc64;stroke-linecap:square;stroke-width:3;"/>
    <defs>
     <path d="M 0 4 
C 1.060812 4 2.078319 3.578535 2.828427 2.828427 
C 3.578535 2.078319 4 1.060812 4 0 
C 4 -1.060812 3.578535 -2.078319 2.828427 -2.828427 
C 2.078319 -3.578535 1.060812 -4 0 -4 
C -1.060812 -4 -2.078319 -3.578535 -2.828427 -2.828427 
C -3.578535 -2.078319 -4 -1.060812 -4 0 
C -4 1.060812 -3.578535 2.078319 -2.828427 2.828427 
C -2.078319 3.578535 -1.060812 4 0 4 
z
" id="m62d7fd8ac2" style="stroke:#ffffff;stroke-width:0.75;"/>
    </defs>
    <g clip-path="url(#pd02d36a736)">
     <use style="fill:#6acc64;stroke:#ffffff;stroke-width:0.75;" x="113.484545" xlink:href="#m62d7fd8ac2" y="321.922024"/>
     <use style="fill:#6acc64;stroke:#ffffff;stroke-width:0.75;" x="176.253636" xlink:href="#m62d7fd8ac2" y="320.015095"/>
     <use style="fill:#6acc64;stroke:#ffffff;stroke-width:0.75;" x="239.022727" xlink:href="#m62d7fd8ac2" y="296.900027"/>
     <use style="fill:#6acc64;stroke:#ffffff;stroke-width:0.75;" x="301.791818" xlink:href="#m62d7fd8ac2" y="208.439301"/>
     <use style="fill:#6acc64;stroke:#ffffff;stroke-width:0.75;" x="364.560909" xlink:href="#m62d7fd8ac2" y="124.652947"/>
     <use style="fill:#6acc64;stroke:#ffffff;stroke-width:0.75;" x="427.33" xlink:href="#m62d7fd8ac2" y="91.059883"/>
     <use style="fill:#6acc64;stroke:#ffffff;stroke-width:0.75;" x="490.099091" xlink:href="#m62d7fd8ac2" y="91.644273"/>
     <use style="fill:#6acc64;stroke:#ffffff;stroke-width:0.75;" x="552.868182" xlink:href="#m62d7fd8ac2" y="99.917916"/>
     <use style="fill:#6acc64;stroke:#ffffff;stroke-width:0.75;" x="615.637273" xlink:href="#m62d7fd8ac2" y="97.232607"/>
     <use style="fill:#6acc64;stroke:#ffffff;stroke-width:0.75;" x="678.406364" xlink:href="#m62d7fd8ac2" y="100.985822"/>
     <use style="fill:#6acc64;stroke:#ffffff;stroke-width:0.75;" x="741.175455" xlink:href="#m62d7fd8ac2" y="103.233956"/>
    </g>
   </g>
   <g id="line2d_19">
    <path clip-path="url(#pd02d36a736)" d="M 113.484545 364.019933 
L 176.253636 363.918272 
L 239.022727 362.434793 
L 301.791818 356.909448 
L 364.560909 351.674772 
L 427.33 348.347121 
L 490.099091 349.130163 
L 552.868182 346.5718 
L 615.637273 346.744461 
L 678.406364 345.297474 
L 741.175455 347.984878 
" style="fill:none;stroke:#6acc64;stroke-dasharray:12,4.5;stroke-dashoffset:0;stroke-width:3;"/>
    <defs>
     <path d="M -2 4 
L 0 2 
L 2 4 
L 4 2 
L 2 0 
L 4 -2 
L 2 -4 
L 0 -2 
L -2 -4 
L -4 -2 
L -2 0 
L -4 2 
z
" id="m1521bf268d" style="stroke:#ffffff;stroke-linejoin:miter;stroke-width:0.75;"/>
    </defs>
    <g clip-path="url(#pd02d36a736)">
     <use style="fill:#6acc64;stroke:#ffffff;stroke-linejoin:miter;stroke-width:0.75;" x="113.484545" xlink:href="#m1521bf268d" y="364.019933"/>
     <use style="fill:#6acc64;stroke:#ffffff;stroke-linejoin:miter;stroke-width:0.75;" x="176.253636" xlink:href="#m1521bf268d" y="363.918272"/>
     <use style="fill:#6acc64;stroke:#ffffff;stroke-linejoin:miter;stroke-width:0.75;" x="239.022727" xlink:href="#m1521bf268d" y="362.434793"/>
     <use style="fill:#6acc64;stroke:#ffffff;stroke-linejoin:miter;stroke-width:0.75;" x="301.791818" xlink:href="#m1521bf268d" y="356.909448"/>
     <use style="fill:#6acc64;stroke:#ffffff;stroke-linejoin:miter;stroke-width:0.75;" x="364.560909" xlink:href="#m1521bf268d" y="351.674772"/>
     <use style="fill:#6acc64;stroke:#ffffff;stroke-linejoin:miter;stroke-width:0.75;" x="427.33" xlink:href="#m1521bf268d" y="348.347121"/>
     <use style="fill:#6acc64;stroke:#ffffff;stroke-linejoin:miter;stroke-width:0.75;" x="490.099091" xlink:href="#m1521bf268d" y="349.130163"/>
     <use style="fill:#6acc64;stroke:#ffffff;stroke-linejoin:miter;stroke-width:0.75;" x="552.868182" xlink:href="#m1521bf268d" y="346.5718"/>
     <use style="fill:#6acc64;stroke:#ffffff;stroke-linejoin:miter;stroke-width:0.75;" x="615.637273" xlink:href="#m1521bf268d" y="346.744461"/>
     <use style="fill:#6acc64;stroke:#ffffff;stroke-linejoin:miter;stroke-width:0.75;" x="678.406364" xlink:href="#m1521bf268d" y="345.297474"/>
     <use style="fill:#6acc64;stroke:#ffffff;stroke-linejoin:miter;stroke-width:0.75;" x="741.175455" xlink:href="#m1521bf268d" y="347.984878"/>
    </g>
   </g>
   <g id="line2d_20"/>
   <g id="line2d_21"/>
   <g id="line2d_22"/>
   <g id="line2d_23"/>
   <g id="line2d_24"/>
   <g id="patch_3">
    <path d="M 82.1 367 
L 82.1 73.44 
" style="fill:none;stroke:#000000;stroke-linecap:square;stroke-linejoin:miter;stroke-width:0.8;"/>
   </g>
   <g id="patch_4">
    <path d="M 772.56 367 
L 772.56 73.44 
" style="fill:none;stroke:#000000;stroke-linecap:square;stroke-linejoin:miter;stroke-width:0.8;"/>
   </g>
   <g id="patch_5">
    <path d="M 82.1 367 
L 772.56 367 
" style="fill:none;stroke:#000000;stroke-linecap:square;stroke-linejoin:miter;stroke-width:0.8;"/>
   </g>
   <g id="patch_6">
    <path d="M 82.1 73.44 
L 772.56 73.44 
" style="fill:none;stroke:#000000;stroke-linecap:square;stroke-linejoin:miter;stroke-width:0.8;"/>
   </g>
  </g>
  <g id="legend_1">
   <g id="patch_7">
    <path d="M 3.2 56.32 
L 788.8 56.32 
Q 792 56.32 792 53.12 
L 792 3.2 
Q 792 0 788.8 0 
L 3.2 0 
Q 0 0 0 3.2 
L 0 53.12 
Q 0 56.32 3.2 56.32 
z
" style="fill:#ffffff;opacity:0.8;stroke:#cccccc;stroke-linejoin:miter;"/>
   </g>
   <g id="line2d_25">
    <path d="M 6.4 16 
L 38.4 16 
" style="fill:none;stroke:#6acc64;stroke-linecap:square;stroke-width:3;"/>
   </g>
   <g id="line2d_26"/>
   <g id="text_16">
    <!-- $\phi=\frac{1}{1000}$ -->
    <g transform="translate(51.2 21.6)scale(0.16 -0.16)">
     <defs>
      <path d="M 2991 4863 
L 2738 3572 
Q 3363 3572 3684 3094 
Q 4016 2606 3850 1747 
Q 3681 888 3159 400 
Q 2653 -78 2028 -78 
L 1784 -1331 
L 1213 -1331 
L 1456 -78 
Q 834 -78 509 400 
Q 178 888 347 1747 
Q 513 2606 1034 3094 
Q 1544 3572 2166 3572 
L 2419 4863 
L 2991 4863 
z
M 2128 434 
Q 2481 434 2784 756 
Q 3116 1116 3244 1747 
Q 3369 2372 3169 2738 
Q 2991 3059 2638 3059 
L 2128 434 
z
M 1556 434 
L 2066 3059 
Q 1716 3059 1413 2738 
Q 1072 2372 953 1747 
Q 834 1116 1028 756 
Q 1203 434 1556 434 
z
" id="DejaVuSans-Oblique-3d5" transform="scale(0.015625)"/>
      <path d="M 678 2906 
L 4684 2906 
L 4684 2381 
L 678 2381 
L 678 2906 
z
M 678 1631 
L 4684 1631 
L 4684 1100 
L 678 1100 
L 678 1631 
z
" id="DejaVuSans-3d" transform="scale(0.015625)"/>
     </defs>
     <use transform="translate(0 0.16875)" xlink:href="#DejaVuSans-Oblique-3d5"/>
     <use transform="translate(85.449219 0.16875)" xlink:href="#DejaVuSans-3d"/>
     <use transform="translate(255.720703 43.965625)scale(0.7)" xlink:href="#DejaVuSans-31"/>
     <use transform="translate(188.720703 -39.2375)scale(0.7)" xlink:href="#DejaVuSans-31"/>
     <use transform="translate(233.256836 -39.2375)scale(0.7)" xlink:href="#DejaVuSans-30"/>
     <use transform="translate(277.792969 -39.2375)scale(0.7)" xlink:href="#DejaVuSans-30"/>
     <use transform="translate(322.329102 -39.2375)scale(0.7)" xlink:href="#DejaVuSans-30"/>
     <path d="M 188.720703 18.965625 
L 188.720703 25.215625 
L 366.865234 25.215625 
L 366.865234 18.965625 
L 188.720703 18.965625 
z
"/>
    </g>
   </g>
   <g id="line2d_27">
    <path d="M 6.4 37.76 
L 38.4 37.76 
" style="fill:none;stroke:#ee854a;stroke-linecap:square;stroke-width:3;"/>
   </g>
   <g id="line2d_28"/>
   <g id="text_17">
    <!-- $\phi=\frac{1}{10000}$ -->
    <g transform="translate(51.2 43.36)scale(0.16 -0.16)">
     <use transform="translate(0 0.16875)" xlink:href="#DejaVuSans-Oblique-3d5"/>
     <use transform="translate(85.449219 0.16875)" xlink:href="#DejaVuSans-3d"/>
     <use transform="translate(277.720703 43.965625)scale(0.7)" xlink:href="#DejaVuSans-31"/>
     <use transform="translate(188.720703 -39.2375)scale(0.7)" xlink:href="#DejaVuSans-31"/>
     <use transform="translate(233.256836 -39.2375)scale(0.7)" xlink:href="#DejaVuSans-30"/>
     <use transform="translate(277.792969 -39.2375)scale(0.7)" xlink:href="#DejaVuSans-30"/>
     <use transform="translate(322.329102 -39.2375)scale(0.7)" xlink:href="#DejaVuSans-30"/>
     <use transform="translate(366.865234 -39.2375)scale(0.7)" xlink:href="#DejaVuSans-30"/>
     <path d="M 188.720703 18.965625 
L 188.720703 25.215625 
L 411.401367 25.215625 
L 411.401367 18.965625 
L 188.720703 18.965625 
z
"/>
    </g>
   </g>
   <g id="line2d_29">
    <path d="M 261.96875 16 
L 293.96875 16 
" style="fill:none;stroke:#4878d0;stroke-linecap:square;stroke-width:3;"/>
   </g>
   <g id="line2d_30"/>
   <g id="text_18">
    <!-- $\phi=\frac{1}{100000}$ -->
    <g transform="translate(306.76875 21.6)scale(0.16 -0.16)">
     <use transform="translate(0 0.16875)" xlink:href="#DejaVuSans-Oblique-3d5"/>
     <use transform="translate(85.449219 0.16875)" xlink:href="#DejaVuSans-3d"/>
     <use transform="translate(299.720703 43.965625)scale(0.7)" xlink:href="#DejaVuSans-31"/>
     <use transform="translate(188.720703 -39.2375)scale(0.7)" xlink:href="#DejaVuSans-31"/>
     <use transform="translate(233.256836 -39.2375)scale(0.7)" xlink:href="#DejaVuSans-30"/>
     <use transform="translate(277.792969 -39.2375)scale(0.7)" xlink:href="#DejaVuSans-30"/>
     <use transform="translate(322.329102 -39.2375)scale(0.7)" xlink:href="#DejaVuSans-30"/>
     <use transform="translate(366.865234 -39.2375)scale(0.7)" xlink:href="#DejaVuSans-30"/>
     <use transform="translate(411.401367 -39.2375)scale(0.7)" xlink:href="#DejaVuSans-30"/>
     <path d="M 188.720703 18.965625 
L 188.720703 25.215625 
L 455.9375 25.215625 
L 455.9375 18.965625 
L 188.720703 18.965625 
z
"/>
    </g>
   </g>
   <g id="line2d_31">
    <path d="M 524.7375 16 
L 556.7375 16 
" style="fill:none;stroke:#000000;stroke-linecap:square;stroke-width:1.8;"/>
   </g>
   <g id="line2d_32">
    <defs>
     <path d="M 0 4.5 
C 1.193414 4.5 2.338109 4.025852 3.181981 3.181981 
C 4.025852 2.338109 4.5 1.193414 4.5 0 
C 4.5 -1.193414 4.025852 -2.338109 3.181981 -3.181981 
C 2.338109 -4.025852 1.193414 -4.5 0 -4.5 
C -1.193414 -4.5 -2.338109 -4.025852 -3.181981 -3.181981 
C -4.025852 -2.338109 -4.5 -1.193414 -4.5 0 
C -4.5 1.193414 -4.025852 2.338109 -3.181981 3.181981 
C -2.338109 4.025852 -1.193414 4.5 0 4.5 
z
" id="m3ab1834862" style="stroke:#000000;stroke-width:0.2;"/>
    </defs>
    <g>
     <use style="stroke:#000000;stroke-width:0.2;" x="540.7375" xlink:href="#m3ab1834862" y="16"/>
    </g>
   </g>
   <g id="text_19">
    <!-- %Delegation Space-Saving -->
    <g transform="translate(569.5375 21.6)scale(0.16 -0.16)">
     <defs>
      <path d="M 4653 2053 
Q 4381 2053 4226 1822 
Q 4072 1591 4072 1178 
Q 4072 772 4226 539 
Q 4381 306 4653 306 
Q 4919 306 5073 539 
Q 5228 772 5228 1178 
Q 5228 1588 5073 1820 
Q 4919 2053 4653 2053 
z
M 4653 2450 
Q 5147 2450 5437 2106 
Q 5728 1763 5728 1178 
Q 5728 594 5436 251 
Q 5144 -91 4653 -91 
Q 4153 -91 3862 251 
Q 3572 594 3572 1178 
Q 3572 1766 3864 2108 
Q 4156 2450 4653 2450 
z
M 1428 4353 
Q 1159 4353 1004 4120 
Q 850 3888 850 3481 
Q 850 3069 1003 2837 
Q 1156 2606 1428 2606 
Q 1700 2606 1854 2837 
Q 2009 3069 2009 3481 
Q 2009 3884 1853 4118 
Q 1697 4353 1428 4353 
z
M 4250 4750 
L 4750 4750 
L 1831 -91 
L 1331 -91 
L 4250 4750 
z
M 1428 4750 
Q 1922 4750 2215 4408 
Q 2509 4066 2509 3481 
Q 2509 2891 2217 2550 
Q 1925 2209 1428 2209 
Q 931 2209 642 2551 
Q 353 2894 353 3481 
Q 353 4063 643 4406 
Q 934 4750 1428 4750 
z
" id="DejaVuSans-25" transform="scale(0.015625)"/>
      <path d="M 1259 4147 
L 1259 519 
L 2022 519 
Q 2988 519 3436 956 
Q 3884 1394 3884 2338 
Q 3884 3275 3436 3711 
Q 2988 4147 2022 4147 
L 1259 4147 
z
M 628 4666 
L 1925 4666 
Q 3281 4666 3915 4102 
Q 4550 3538 4550 2338 
Q 4550 1131 3912 565 
Q 3275 0 1925 0 
L 628 0 
L 628 4666 
z
" id="DejaVuSans-44" transform="scale(0.015625)"/>
      <path d="M 2194 1759 
Q 1497 1759 1228 1600 
Q 959 1441 959 1056 
Q 959 750 1161 570 
Q 1363 391 1709 391 
Q 2188 391 2477 730 
Q 2766 1069 2766 1631 
L 2766 1759 
L 2194 1759 
z
M 3341 1997 
L 3341 0 
L 2766 0 
L 2766 531 
Q 2569 213 2275 61 
Q 1981 -91 1556 -91 
Q 1019 -91 701 211 
Q 384 513 384 1019 
Q 384 1609 779 1909 
Q 1175 2209 1959 2209 
L 2766 2209 
L 2766 2266 
Q 2766 2663 2505 2880 
Q 2244 3097 1772 3097 
Q 1472 3097 1187 3025 
Q 903 2953 641 2809 
L 641 3341 
Q 956 3463 1253 3523 
Q 1550 3584 1831 3584 
Q 2591 3584 2966 3190 
Q 3341 2797 3341 1997 
z
" id="DejaVuSans-61" transform="scale(0.015625)"/>
      <path d="M 313 2009 
L 1997 2009 
L 1997 1497 
L 313 1497 
L 313 2009 
z
" id="DejaVuSans-2d" transform="scale(0.015625)"/>
      <path d="M 191 3500 
L 800 3500 
L 1894 563 
L 2988 3500 
L 3597 3500 
L 2284 0 
L 1503 0 
L 191 3500 
z
" id="DejaVuSans-76" transform="scale(0.015625)"/>
     </defs>
     <use xlink:href="#DejaVuSans-25"/>
     <use x="95.019531" xlink:href="#DejaVuSans-44"/>
     <use x="172.021484" xlink:href="#DejaVuSans-65"/>
     <use x="233.544922" xlink:href="#DejaVuSans-6c"/>
     <use x="261.328125" xlink:href="#DejaVuSans-65"/>
     <use x="322.851562" xlink:href="#DejaVuSans-67"/>
     <use x="386.328125" xlink:href="#DejaVuSans-61"/>
     <use x="447.607422" xlink:href="#DejaVuSans-74"/>
     <use x="486.816406" xlink:href="#DejaVuSans-69"/>
     <use x="514.599609" xlink:href="#DejaVuSans-6f"/>
     <use x="575.78125" xlink:href="#DejaVuSans-6e"/>
     <use x="639.160156" xlink:href="#DejaVuSans-20"/>
     <use x="670.947266" xlink:href="#DejaVuSans-53"/>
     <use x="734.423828" xlink:href="#DejaVuSans-70"/>
     <use x="797.900391" xlink:href="#DejaVuSans-61"/>
     <use x="859.179688" xlink:href="#DejaVuSans-63"/>
     <use x="914.160156" xlink:href="#DejaVuSans-65"/>
     <use x="975.683594" xlink:href="#DejaVuSans-2d"/>
     <use x="1011.767578" xlink:href="#DejaVuSans-53"/>
     <use x="1075.244141" xlink:href="#DejaVuSans-61"/>
     <use x="1136.523438" xlink:href="#DejaVuSans-76"/>
     <use x="1195.703125" xlink:href="#DejaVuSans-69"/>
     <use x="1223.486328" xlink:href="#DejaVuSans-6e"/>
     <use x="1286.865234" xlink:href="#DejaVuSans-67"/>
    </g>
   </g>
   <g id="line2d_33">
    <path d="M 524.7375 31.485 
L 556.7375 31.485 
" style="fill:none;stroke:#000000;stroke-dasharray:6.29,2.72;stroke-dashoffset:0;stroke-width:1.7;"/>
   </g>
   <g id="line2d_34">
    <defs>
     <path d="M -2.25 4.5 
L 0 2.25 
L 2.25 4.5 
L 4.5 2.25 
L 2.25 0 
L 4.5 -2.25 
L 2.25 -4.5 
L 0 -2.25 
L -2.25 -4.5 
L -4.5 -2.25 
L -2.25 0 
L -4.5 2.25 
z
" id="m8d2ac4706d" style="stroke:#000000;stroke-linejoin:miter;stroke-width:0.2;"/>
    </defs>
    <g>
     <use style="stroke:#000000;stroke-linejoin:miter;stroke-width:0.2;" x="540.7375" xlink:href="#m8d2ac4706d" y="31.485"/>
    </g>
   </g>
   <g id="text_20">
    <!-- Space-Saving -->
    <g transform="translate(569.5375 37.085)scale(0.16 -0.16)">
     <use xlink:href="#DejaVuSans-53"/>
     <use x="63.476562" xlink:href="#DejaVuSans-70"/>
     <use x="126.953125" xlink:href="#DejaVuSans-61"/>
     <use x="188.232422" xlink:href="#DejaVuSans-63"/>
     <use x="243.212891" xlink:href="#DejaVuSans-65"/>
     <use x="304.736328" xlink:href="#DejaVuSans-2d"/>
     <use x="340.820312" xlink:href="#DejaVuSans-53"/>
     <use x="404.296875" xlink:href="#DejaVuSans-61"/>
     <use x="465.576172" xlink:href="#DejaVuSans-76"/>
     <use x="524.755859" xlink:href="#DejaVuSans-69"/>
     <use x="552.539062" xlink:href="#DejaVuSans-6e"/>
     <use x="615.917969" xlink:href="#DejaVuSans-67"/>
    </g>
   </g>
  </g>
 </g>
 <defs>
  <clipPath id="pd02d36a736">
   <rect height="293.56" width="690.46" x="82.1" y="73.44"/>
  </clipPath>
 </defs>
</svg>
