<?xml version="1.0" encoding="utf-8" standalone="no"?>
<!DOCTYPE svg PUBLIC "-//W3C//DTD SVG 1.1//EN"
  "http://www.w3.org/Graphics/SVG/1.1/DTD/svg11.dtd">
<svg height="720pt" version="1.1" viewBox="0 0 1080 720" width="1080pt" xmlns="http://www.w3.org/2000/svg" xmlns:xlink="http://www.w3.org/1999/xlink">
 <metadata>
  <rdf:RDF xmlns:cc="http://creativecommons.org/ns#" xmlns:dc="http://purl.org/dc/elements/1.1/" xmlns:rdf="http://www.w3.org/1999/02/22-rdf-syntax-ns#">
   <cc:Work>
    <dc:type rdf:resource="http://purl.org/dc/dcmitype/StillImage"/>
    <dc:date>2021-09-10T18:23:14.810845</dc:date>
    <dc:format>image/svg+xml</dc:format>
    <dc:creator>
     <cc:Agent>
      <dc:title>Matplotlib v3.4.2, https://matplotlib.org/</dc:title>
     </cc:Agent>
    </dc:creator>
   </cc:Work>
  </rdf:RDF>
 </metadata>
 <defs>
  <style type="text/css">*{stroke-linecap:butt;stroke-linejoin:round;}</style>
 </defs>
 <g id="figure_1">
  <g id="patch_1">
   <path d="M 0 720 
L 1080 720 
L 1080 0 
L 0 0 
z
" style="fill:#ffffff;"/>
  </g>
  <g id="axes_1">
   <g id="patch_2">
    <path d="M 69.437 659.527 
L 1054.9 659.527 
L 1054.9 25.1 
L 69.437 25.1 
z
" style="fill:#ffffff;"/>
   </g>
   <g id="matplotlib.axis_1">
    <g id="xtick_1">
     <g id="line2d_1">
      <defs>
       <path d="M 0 0 
L 0 3.5 
" id="mc89a4a551c" style="stroke:#000000;stroke-width:0.8;"/>
      </defs>
      <g>
       <use style="stroke:#000000;stroke-width:0.8;" x="114.230773" xlink:href="#mc89a4a551c" y="659.527"/>
      </g>
     </g>
     <g id="line2d_2">
      <defs>
       <path d="M 0 0 
L 0 -3.5 
" id="ma9522a8273" style="stroke:#000000;stroke-width:0.8;"/>
      </defs>
      <g>
       <use style="stroke:#000000;stroke-width:0.8;" x="114.230773" xlink:href="#ma9522a8273" y="25.1"/>
      </g>
     </g>
     <g id="text_1">
      <!-- 0.5 -->
      <g transform="translate(98.327648 681.723875)scale(0.2 -0.2)">
       <defs>
        <path d="M 2034 4250 
Q 1547 4250 1301 3770 
Q 1056 3291 1056 2328 
Q 1056 1369 1301 889 
Q 1547 409 2034 409 
Q 2525 409 2770 889 
Q 3016 1369 3016 2328 
Q 3016 3291 2770 3770 
Q 2525 4250 2034 4250 
z
M 2034 4750 
Q 2819 4750 3233 4129 
Q 3647 3509 3647 2328 
Q 3647 1150 3233 529 
Q 2819 -91 2034 -91 
Q 1250 -91 836 529 
Q 422 1150 422 2328 
Q 422 3509 836 4129 
Q 1250 4750 2034 4750 
z
" id="DejaVuSans-30" transform="scale(0.015625)"/>
        <path d="M 684 794 
L 1344 794 
L 1344 0 
L 684 0 
L 684 794 
z
" id="DejaVuSans-2e" transform="scale(0.015625)"/>
        <path d="M 691 4666 
L 3169 4666 
L 3169 4134 
L 1269 4134 
L 1269 2991 
Q 1406 3038 1543 3061 
Q 1681 3084 1819 3084 
Q 2600 3084 3056 2656 
Q 3513 2228 3513 1497 
Q 3513 744 3044 326 
Q 2575 -91 1722 -91 
Q 1428 -91 1123 -41 
Q 819 9 494 109 
L 494 744 
Q 775 591 1075 516 
Q 1375 441 1709 441 
Q 2250 441 2565 725 
Q 2881 1009 2881 1497 
Q 2881 1984 2565 2268 
Q 2250 2553 1709 2553 
Q 1456 2553 1204 2497 
Q 953 2441 691 2322 
L 691 4666 
z
" id="DejaVuSans-35" transform="scale(0.015625)"/>
       </defs>
       <use xlink:href="#DejaVuSans-30"/>
       <use x="63.623047" xlink:href="#DejaVuSans-2e"/>
       <use x="95.410156" xlink:href="#DejaVuSans-35"/>
      </g>
     </g>
    </g>
    <g id="xtick_2">
     <g id="line2d_3">
      <g>
       <use style="stroke:#000000;stroke-width:0.8;" x="293.405864" xlink:href="#mc89a4a551c" y="659.527"/>
      </g>
     </g>
     <g id="line2d_4">
      <g>
       <use style="stroke:#000000;stroke-width:0.8;" x="293.405864" xlink:href="#ma9522a8273" y="25.1"/>
      </g>
     </g>
     <g id="text_2">
      <!-- 1.0 -->
      <g transform="translate(277.502739 681.723875)scale(0.2 -0.2)">
       <defs>
        <path d="M 794 531 
L 1825 531 
L 1825 4091 
L 703 3866 
L 703 4441 
L 1819 4666 
L 2450 4666 
L 2450 531 
L 3481 531 
L 3481 0 
L 794 0 
L 794 531 
z
" id="DejaVuSans-31" transform="scale(0.015625)"/>
       </defs>
       <use xlink:href="#DejaVuSans-31"/>
       <use x="63.623047" xlink:href="#DejaVuSans-2e"/>
       <use x="95.410156" xlink:href="#DejaVuSans-30"/>
      </g>
     </g>
    </g>
    <g id="xtick_3">
     <g id="line2d_5">
      <g>
       <use style="stroke:#000000;stroke-width:0.8;" x="472.580955" xlink:href="#mc89a4a551c" y="659.527"/>
      </g>
     </g>
     <g id="line2d_6">
      <g>
       <use style="stroke:#000000;stroke-width:0.8;" x="472.580955" xlink:href="#ma9522a8273" y="25.1"/>
      </g>
     </g>
     <g id="text_3">
      <!-- 1.5 -->
      <g transform="translate(456.67783 681.723875)scale(0.2 -0.2)">
       <use xlink:href="#DejaVuSans-31"/>
       <use x="63.623047" xlink:href="#DejaVuSans-2e"/>
       <use x="95.410156" xlink:href="#DejaVuSans-35"/>
      </g>
     </g>
    </g>
    <g id="xtick_4">
     <g id="line2d_7">
      <g>
       <use style="stroke:#000000;stroke-width:0.8;" x="651.756045" xlink:href="#mc89a4a551c" y="659.527"/>
      </g>
     </g>
     <g id="line2d_8">
      <g>
       <use style="stroke:#000000;stroke-width:0.8;" x="651.756045" xlink:href="#ma9522a8273" y="25.1"/>
      </g>
     </g>
     <g id="text_4">
      <!-- 2.0 -->
      <g transform="translate(635.85292 681.723875)scale(0.2 -0.2)">
       <defs>
        <path d="M 1228 531 
L 3431 531 
L 3431 0 
L 469 0 
L 469 531 
Q 828 903 1448 1529 
Q 2069 2156 2228 2338 
Q 2531 2678 2651 2914 
Q 2772 3150 2772 3378 
Q 2772 3750 2511 3984 
Q 2250 4219 1831 4219 
Q 1534 4219 1204 4116 
Q 875 4013 500 3803 
L 500 4441 
Q 881 4594 1212 4672 
Q 1544 4750 1819 4750 
Q 2544 4750 2975 4387 
Q 3406 4025 3406 3419 
Q 3406 3131 3298 2873 
Q 3191 2616 2906 2266 
Q 2828 2175 2409 1742 
Q 1991 1309 1228 531 
z
" id="DejaVuSans-32" transform="scale(0.015625)"/>
       </defs>
       <use xlink:href="#DejaVuSans-32"/>
       <use x="63.623047" xlink:href="#DejaVuSans-2e"/>
       <use x="95.410156" xlink:href="#DejaVuSans-30"/>
      </g>
     </g>
    </g>
    <g id="xtick_5">
     <g id="line2d_9">
      <g>
       <use style="stroke:#000000;stroke-width:0.8;" x="830.931136" xlink:href="#mc89a4a551c" y="659.527"/>
      </g>
     </g>
     <g id="line2d_10">
      <g>
       <use style="stroke:#000000;stroke-width:0.8;" x="830.931136" xlink:href="#ma9522a8273" y="25.1"/>
      </g>
     </g>
     <g id="text_5">
      <!-- 2.5 -->
      <g transform="translate(815.028011 681.723875)scale(0.2 -0.2)">
       <use xlink:href="#DejaVuSans-32"/>
       <use x="63.623047" xlink:href="#DejaVuSans-2e"/>
       <use x="95.410156" xlink:href="#DejaVuSans-35"/>
      </g>
     </g>
    </g>
    <g id="xtick_6">
     <g id="line2d_11">
      <g>
       <use style="stroke:#000000;stroke-width:0.8;" x="1010.106227" xlink:href="#mc89a4a551c" y="659.527"/>
      </g>
     </g>
     <g id="line2d_12">
      <g>
       <use style="stroke:#000000;stroke-width:0.8;" x="1010.106227" xlink:href="#ma9522a8273" y="25.1"/>
      </g>
     </g>
     <g id="text_6">
      <!-- 3.0 -->
      <g transform="translate(994.203102 681.723875)scale(0.2 -0.2)">
       <defs>
        <path d="M 2597 2516 
Q 3050 2419 3304 2112 
Q 3559 1806 3559 1356 
Q 3559 666 3084 287 
Q 2609 -91 1734 -91 
Q 1441 -91 1130 -33 
Q 819 25 488 141 
L 488 750 
Q 750 597 1062 519 
Q 1375 441 1716 441 
Q 2309 441 2620 675 
Q 2931 909 2931 1356 
Q 2931 1769 2642 2001 
Q 2353 2234 1838 2234 
L 1294 2234 
L 1294 2753 
L 1863 2753 
Q 2328 2753 2575 2939 
Q 2822 3125 2822 3475 
Q 2822 3834 2567 4026 
Q 2313 4219 1838 4219 
Q 1578 4219 1281 4162 
Q 984 4106 628 3988 
L 628 4550 
Q 988 4650 1302 4700 
Q 1616 4750 1894 4750 
Q 2613 4750 3031 4423 
Q 3450 4097 3450 3541 
Q 3450 3153 3228 2886 
Q 3006 2619 2597 2516 
z
" id="DejaVuSans-33" transform="scale(0.015625)"/>
       </defs>
       <use xlink:href="#DejaVuSans-33"/>
       <use x="63.623047" xlink:href="#DejaVuSans-2e"/>
       <use x="95.410156" xlink:href="#DejaVuSans-30"/>
      </g>
     </g>
    </g>
    <g id="text_7">
     <!-- Skew -->
     <g transform="translate(536.060688 705.080125)scale(0.2 -0.2)">
      <defs>
       <path d="M 3425 4513 
L 3425 3897 
Q 3066 4069 2747 4153 
Q 2428 4238 2131 4238 
Q 1616 4238 1336 4038 
Q 1056 3838 1056 3469 
Q 1056 3159 1242 3001 
Q 1428 2844 1947 2747 
L 2328 2669 
Q 3034 2534 3370 2195 
Q 3706 1856 3706 1288 
Q 3706 609 3251 259 
Q 2797 -91 1919 -91 
Q 1588 -91 1214 -16 
Q 841 59 441 206 
L 441 856 
Q 825 641 1194 531 
Q 1563 422 1919 422 
Q 2459 422 2753 634 
Q 3047 847 3047 1241 
Q 3047 1584 2836 1778 
Q 2625 1972 2144 2069 
L 1759 2144 
Q 1053 2284 737 2584 
Q 422 2884 422 3419 
Q 422 4038 858 4394 
Q 1294 4750 2059 4750 
Q 2388 4750 2728 4690 
Q 3069 4631 3425 4513 
z
" id="DejaVuSans-53" transform="scale(0.015625)"/>
       <path d="M 581 4863 
L 1159 4863 
L 1159 1991 
L 2875 3500 
L 3609 3500 
L 1753 1863 
L 3688 0 
L 2938 0 
L 1159 1709 
L 1159 0 
L 581 0 
L 581 4863 
z
" id="DejaVuSans-6b" transform="scale(0.015625)"/>
       <path d="M 3597 1894 
L 3597 1613 
L 953 1613 
Q 991 1019 1311 708 
Q 1631 397 2203 397 
Q 2534 397 2845 478 
Q 3156 559 3463 722 
L 3463 178 
Q 3153 47 2828 -22 
Q 2503 -91 2169 -91 
Q 1331 -91 842 396 
Q 353 884 353 1716 
Q 353 2575 817 3079 
Q 1281 3584 2069 3584 
Q 2775 3584 3186 3129 
Q 3597 2675 3597 1894 
z
M 3022 2063 
Q 3016 2534 2758 2815 
Q 2500 3097 2075 3097 
Q 1594 3097 1305 2825 
Q 1016 2553 972 2059 
L 3022 2063 
z
" id="DejaVuSans-65" transform="scale(0.015625)"/>
       <path d="M 269 3500 
L 844 3500 
L 1563 769 
L 2278 3500 
L 2956 3500 
L 3675 769 
L 4391 3500 
L 4966 3500 
L 4050 0 
L 3372 0 
L 2619 2869 
L 1863 0 
L 1184 0 
L 269 3500 
z
" id="DejaVuSans-77" transform="scale(0.015625)"/>
      </defs>
      <use xlink:href="#DejaVuSans-53"/>
      <use x="63.476562" xlink:href="#DejaVuSans-6b"/>
      <use x="117.761719" xlink:href="#DejaVuSans-65"/>
      <use x="179.285156" xlink:href="#DejaVuSans-77"/>
     </g>
    </g>
   </g>
   <g id="matplotlib.axis_2">
    <g id="ytick_1">
     <g id="line2d_13">
      <defs>
       <path d="M 0 0 
L -3.5 0 
" id="m082144ba42" style="stroke:#000000;stroke-width:0.8;"/>
      </defs>
      <g>
       <use style="stroke:#000000;stroke-width:0.8;" x="69.437" xlink:href="#m082144ba42" y="576.322819"/>
      </g>
     </g>
     <g id="line2d_14">
      <defs>
       <path d="M 0 0 
L 3.5 0 
" id="madd3dea717" style="stroke:#000000;stroke-width:0.8;"/>
      </defs>
      <g>
       <use style="stroke:#000000;stroke-width:0.8;" x="1054.9" xlink:href="#madd3dea717" y="576.322819"/>
      </g>
     </g>
     <g id="text_8">
      <!-- 0.2 -->
      <g transform="translate(30.63075 583.921257)scale(0.2 -0.2)">
       <use xlink:href="#DejaVuSans-30"/>
       <use x="63.623047" xlink:href="#DejaVuSans-2e"/>
       <use x="95.410156" xlink:href="#DejaVuSans-32"/>
      </g>
     </g>
    </g>
    <g id="ytick_2">
     <g id="line2d_15">
      <g>
       <use style="stroke:#000000;stroke-width:0.8;" x="69.437" xlink:href="#m082144ba42" y="445.726512"/>
      </g>
     </g>
     <g id="line2d_16">
      <g>
       <use style="stroke:#000000;stroke-width:0.8;" x="1054.9" xlink:href="#madd3dea717" y="445.726512"/>
      </g>
     </g>
     <g id="text_9">
      <!-- 0.4 -->
      <g transform="translate(30.63075 453.32495)scale(0.2 -0.2)">
       <defs>
        <path d="M 2419 4116 
L 825 1625 
L 2419 1625 
L 2419 4116 
z
M 2253 4666 
L 3047 4666 
L 3047 1625 
L 3713 1625 
L 3713 1100 
L 3047 1100 
L 3047 0 
L 2419 0 
L 2419 1100 
L 313 1100 
L 313 1709 
L 2253 4666 
z
" id="DejaVuSans-34" transform="scale(0.015625)"/>
       </defs>
       <use xlink:href="#DejaVuSans-30"/>
       <use x="63.623047" xlink:href="#DejaVuSans-2e"/>
       <use x="95.410156" xlink:href="#DejaVuSans-34"/>
      </g>
     </g>
    </g>
    <g id="ytick_3">
     <g id="line2d_17">
      <g>
       <use style="stroke:#000000;stroke-width:0.8;" x="69.437" xlink:href="#m082144ba42" y="315.130205"/>
      </g>
     </g>
     <g id="line2d_18">
      <g>
       <use style="stroke:#000000;stroke-width:0.8;" x="1054.9" xlink:href="#madd3dea717" y="315.130205"/>
      </g>
     </g>
     <g id="text_10">
      <!-- 0.6 -->
      <g transform="translate(30.63075 322.728643)scale(0.2 -0.2)">
       <defs>
        <path d="M 2113 2584 
Q 1688 2584 1439 2293 
Q 1191 2003 1191 1497 
Q 1191 994 1439 701 
Q 1688 409 2113 409 
Q 2538 409 2786 701 
Q 3034 994 3034 1497 
Q 3034 2003 2786 2293 
Q 2538 2584 2113 2584 
z
M 3366 4563 
L 3366 3988 
Q 3128 4100 2886 4159 
Q 2644 4219 2406 4219 
Q 1781 4219 1451 3797 
Q 1122 3375 1075 2522 
Q 1259 2794 1537 2939 
Q 1816 3084 2150 3084 
Q 2853 3084 3261 2657 
Q 3669 2231 3669 1497 
Q 3669 778 3244 343 
Q 2819 -91 2113 -91 
Q 1303 -91 875 529 
Q 447 1150 447 2328 
Q 447 3434 972 4092 
Q 1497 4750 2381 4750 
Q 2619 4750 2861 4703 
Q 3103 4656 3366 4563 
z
" id="DejaVuSans-36" transform="scale(0.015625)"/>
       </defs>
       <use xlink:href="#DejaVuSans-30"/>
       <use x="63.623047" xlink:href="#DejaVuSans-2e"/>
       <use x="95.410156" xlink:href="#DejaVuSans-36"/>
      </g>
     </g>
    </g>
    <g id="ytick_4">
     <g id="line2d_19">
      <g>
       <use style="stroke:#000000;stroke-width:0.8;" x="69.437" xlink:href="#m082144ba42" y="184.533898"/>
      </g>
     </g>
     <g id="line2d_20">
      <g>
       <use style="stroke:#000000;stroke-width:0.8;" x="1054.9" xlink:href="#madd3dea717" y="184.533898"/>
      </g>
     </g>
     <g id="text_11">
      <!-- 0.8 -->
      <g transform="translate(30.63075 192.132336)scale(0.2 -0.2)">
       <defs>
        <path d="M 2034 2216 
Q 1584 2216 1326 1975 
Q 1069 1734 1069 1313 
Q 1069 891 1326 650 
Q 1584 409 2034 409 
Q 2484 409 2743 651 
Q 3003 894 3003 1313 
Q 3003 1734 2745 1975 
Q 2488 2216 2034 2216 
z
M 1403 2484 
Q 997 2584 770 2862 
Q 544 3141 544 3541 
Q 544 4100 942 4425 
Q 1341 4750 2034 4750 
Q 2731 4750 3128 4425 
Q 3525 4100 3525 3541 
Q 3525 3141 3298 2862 
Q 3072 2584 2669 2484 
Q 3125 2378 3379 2068 
Q 3634 1759 3634 1313 
Q 3634 634 3220 271 
Q 2806 -91 2034 -91 
Q 1263 -91 848 271 
Q 434 634 434 1313 
Q 434 1759 690 2068 
Q 947 2378 1403 2484 
z
M 1172 3481 
Q 1172 3119 1398 2916 
Q 1625 2713 2034 2713 
Q 2441 2713 2670 2916 
Q 2900 3119 2900 3481 
Q 2900 3844 2670 4047 
Q 2441 4250 2034 4250 
Q 1625 4250 1398 4047 
Q 1172 3844 1172 3481 
z
" id="DejaVuSans-38" transform="scale(0.015625)"/>
       </defs>
       <use xlink:href="#DejaVuSans-30"/>
       <use x="63.623047" xlink:href="#DejaVuSans-2e"/>
       <use x="95.410156" xlink:href="#DejaVuSans-38"/>
      </g>
     </g>
    </g>
    <g id="ytick_5">
     <g id="line2d_21">
      <g>
       <use style="stroke:#000000;stroke-width:0.8;" x="69.437" xlink:href="#m082144ba42" y="53.937591"/>
      </g>
     </g>
     <g id="line2d_22">
      <g>
       <use style="stroke:#000000;stroke-width:0.8;" x="1054.9" xlink:href="#madd3dea717" y="53.937591"/>
      </g>
     </g>
     <g id="text_12">
      <!-- 1.0 -->
      <g transform="translate(30.63075 61.536028)scale(0.2 -0.2)">
       <use xlink:href="#DejaVuSans-31"/>
       <use x="63.623047" xlink:href="#DejaVuSans-2e"/>
       <use x="95.410156" xlink:href="#DejaVuSans-30"/>
      </g>
     </g>
    </g>
    <g id="text_13">
     <!-- Precision -->
     <g transform="translate(22.471375 386.927562)rotate(-90)scale(0.2 -0.2)">
      <defs>
       <path d="M 1259 4147 
L 1259 2394 
L 2053 2394 
Q 2494 2394 2734 2622 
Q 2975 2850 2975 3272 
Q 2975 3691 2734 3919 
Q 2494 4147 2053 4147 
L 1259 4147 
z
M 628 4666 
L 2053 4666 
Q 2838 4666 3239 4311 
Q 3641 3956 3641 3272 
Q 3641 2581 3239 2228 
Q 2838 1875 2053 1875 
L 1259 1875 
L 1259 0 
L 628 0 
L 628 4666 
z
" id="DejaVuSans-50" transform="scale(0.015625)"/>
       <path d="M 2631 2963 
Q 2534 3019 2420 3045 
Q 2306 3072 2169 3072 
Q 1681 3072 1420 2755 
Q 1159 2438 1159 1844 
L 1159 0 
L 581 0 
L 581 3500 
L 1159 3500 
L 1159 2956 
Q 1341 3275 1631 3429 
Q 1922 3584 2338 3584 
Q 2397 3584 2469 3576 
Q 2541 3569 2628 3553 
L 2631 2963 
z
" id="DejaVuSans-72" transform="scale(0.015625)"/>
       <path d="M 3122 3366 
L 3122 2828 
Q 2878 2963 2633 3030 
Q 2388 3097 2138 3097 
Q 1578 3097 1268 2742 
Q 959 2388 959 1747 
Q 959 1106 1268 751 
Q 1578 397 2138 397 
Q 2388 397 2633 464 
Q 2878 531 3122 666 
L 3122 134 
Q 2881 22 2623 -34 
Q 2366 -91 2075 -91 
Q 1284 -91 818 406 
Q 353 903 353 1747 
Q 353 2603 823 3093 
Q 1294 3584 2113 3584 
Q 2378 3584 2631 3529 
Q 2884 3475 3122 3366 
z
" id="DejaVuSans-63" transform="scale(0.015625)"/>
       <path d="M 603 3500 
L 1178 3500 
L 1178 0 
L 603 0 
L 603 3500 
z
M 603 4863 
L 1178 4863 
L 1178 4134 
L 603 4134 
L 603 4863 
z
" id="DejaVuSans-69" transform="scale(0.015625)"/>
       <path d="M 2834 3397 
L 2834 2853 
Q 2591 2978 2328 3040 
Q 2066 3103 1784 3103 
Q 1356 3103 1142 2972 
Q 928 2841 928 2578 
Q 928 2378 1081 2264 
Q 1234 2150 1697 2047 
L 1894 2003 
Q 2506 1872 2764 1633 
Q 3022 1394 3022 966 
Q 3022 478 2636 193 
Q 2250 -91 1575 -91 
Q 1294 -91 989 -36 
Q 684 19 347 128 
L 347 722 
Q 666 556 975 473 
Q 1284 391 1588 391 
Q 1994 391 2212 530 
Q 2431 669 2431 922 
Q 2431 1156 2273 1281 
Q 2116 1406 1581 1522 
L 1381 1569 
Q 847 1681 609 1914 
Q 372 2147 372 2553 
Q 372 3047 722 3315 
Q 1072 3584 1716 3584 
Q 2034 3584 2315 3537 
Q 2597 3491 2834 3397 
z
" id="DejaVuSans-73" transform="scale(0.015625)"/>
       <path d="M 1959 3097 
Q 1497 3097 1228 2736 
Q 959 2375 959 1747 
Q 959 1119 1226 758 
Q 1494 397 1959 397 
Q 2419 397 2687 759 
Q 2956 1122 2956 1747 
Q 2956 2369 2687 2733 
Q 2419 3097 1959 3097 
z
M 1959 3584 
Q 2709 3584 3137 3096 
Q 3566 2609 3566 1747 
Q 3566 888 3137 398 
Q 2709 -91 1959 -91 
Q 1206 -91 779 398 
Q 353 888 353 1747 
Q 353 2609 779 3096 
Q 1206 3584 1959 3584 
z
" id="DejaVuSans-6f" transform="scale(0.015625)"/>
       <path d="M 3513 2113 
L 3513 0 
L 2938 0 
L 2938 2094 
Q 2938 2591 2744 2837 
Q 2550 3084 2163 3084 
Q 1697 3084 1428 2787 
Q 1159 2491 1159 1978 
L 1159 0 
L 581 0 
L 581 3500 
L 1159 3500 
L 1159 2956 
Q 1366 3272 1645 3428 
Q 1925 3584 2291 3584 
Q 2894 3584 3203 3211 
Q 3513 2838 3513 2113 
z
" id="DejaVuSans-6e" transform="scale(0.015625)"/>
      </defs>
      <use xlink:href="#DejaVuSans-50"/>
      <use x="58.552734" xlink:href="#DejaVuSans-72"/>
      <use x="97.416016" xlink:href="#DejaVuSans-65"/>
      <use x="158.939453" xlink:href="#DejaVuSans-63"/>
      <use x="213.919922" xlink:href="#DejaVuSans-69"/>
      <use x="241.703125" xlink:href="#DejaVuSans-73"/>
      <use x="293.802734" xlink:href="#DejaVuSans-69"/>
      <use x="321.585938" xlink:href="#DejaVuSans-6f"/>
      <use x="382.767578" xlink:href="#DejaVuSans-6e"/>
     </g>
    </g>
   </g>
   <g id="line2d_23">
    <path clip-path="url(#p9afbf9a1c0)" d="M 114.230773 630.689409 
L 203.818318 527.689408 
L 293.405864 444.077081 
L 382.993409 371.573929 
L 472.580955 318.839793 
L 562.1685 344.980603 
L 651.756045 297.526476 
L 741.343591 245.750917 
L 830.931136 288.340985 
L 920.518682 265.944371 
L 1010.106227 247.413408 
" style="fill:none;stroke:#4878d0;stroke-linecap:square;stroke-width:3;"/>
    <defs>
     <path d="M 0 4 
C 1.060812 4 2.078319 3.578535 2.828427 2.828427 
C 3.578535 2.078319 4 1.060812 4 0 
C 4 -1.060812 3.578535 -2.078319 2.828427 -2.828427 
C 2.078319 -3.578535 1.060812 -4 0 -4 
C -1.060812 -4 -2.078319 -3.578535 -2.828427 -2.828427 
C -3.578535 -2.078319 -4 -1.060812 -4 0 
C -4 1.060812 -3.578535 2.078319 -2.828427 2.828427 
C -2.078319 3.578535 -1.060812 4 0 4 
z
" id="mc647517bd4" style="stroke:#ffffff;stroke-width:0.75;"/>
    </defs>
    <g clip-path="url(#p9afbf9a1c0)">
     <use style="fill:#4878d0;stroke:#ffffff;stroke-width:0.75;" x="114.230773" xlink:href="#mc647517bd4" y="630.689409"/>
     <use style="fill:#4878d0;stroke:#ffffff;stroke-width:0.75;" x="203.818318" xlink:href="#mc647517bd4" y="527.689408"/>
     <use style="fill:#4878d0;stroke:#ffffff;stroke-width:0.75;" x="293.405864" xlink:href="#mc647517bd4" y="444.077081"/>
     <use style="fill:#4878d0;stroke:#ffffff;stroke-width:0.75;" x="382.993409" xlink:href="#mc647517bd4" y="371.573929"/>
     <use style="fill:#4878d0;stroke:#ffffff;stroke-width:0.75;" x="472.580955" xlink:href="#mc647517bd4" y="318.839793"/>
     <use style="fill:#4878d0;stroke:#ffffff;stroke-width:0.75;" x="562.1685" xlink:href="#mc647517bd4" y="344.980603"/>
     <use style="fill:#4878d0;stroke:#ffffff;stroke-width:0.75;" x="651.756045" xlink:href="#mc647517bd4" y="297.526476"/>
     <use style="fill:#4878d0;stroke:#ffffff;stroke-width:0.75;" x="741.343591" xlink:href="#mc647517bd4" y="245.750917"/>
     <use style="fill:#4878d0;stroke:#ffffff;stroke-width:0.75;" x="830.931136" xlink:href="#mc647517bd4" y="288.340985"/>
     <use style="fill:#4878d0;stroke:#ffffff;stroke-width:0.75;" x="920.518682" xlink:href="#mc647517bd4" y="265.944371"/>
     <use style="fill:#4878d0;stroke:#ffffff;stroke-width:0.75;" x="1010.106227" xlink:href="#mc647517bd4" y="247.413408"/>
    </g>
   </g>
   <g id="line2d_24">
    <path clip-path="url(#p9afbf9a1c0)" d="M 114.230773 53.937591 
L 203.818318 556.014441 
L 293.405864 489.258832 
L 382.993409 435.840372 
L 472.580955 392.909448 
L 562.1685 358.422881 
L 651.756045 329.766133 
L 741.343591 306.925492 
L 830.931136 288.340985 
L 920.518682 265.944371 
L 1010.106227 255.768307 
" style="fill:none;stroke:#4878d0;stroke-dasharray:12,4.5;stroke-dashoffset:0;stroke-width:3;"/>
    <defs>
     <path d="M -2 4 
L 0 2 
L 2 4 
L 4 2 
L 2 0 
L 4 -2 
L 2 -4 
L 0 -2 
L -2 -4 
L -4 -2 
L -2 0 
L -4 2 
z
" id="m39b54ea203" style="stroke:#ffffff;stroke-linejoin:miter;stroke-width:0.75;"/>
    </defs>
    <g clip-path="url(#p9afbf9a1c0)">
     <use style="fill:#4878d0;stroke:#ffffff;stroke-linejoin:miter;stroke-width:0.75;" x="114.230773" xlink:href="#m39b54ea203" y="53.937591"/>
     <use style="fill:#4878d0;stroke:#ffffff;stroke-linejoin:miter;stroke-width:0.75;" x="203.818318" xlink:href="#m39b54ea203" y="556.014441"/>
     <use style="fill:#4878d0;stroke:#ffffff;stroke-linejoin:miter;stroke-width:0.75;" x="293.405864" xlink:href="#m39b54ea203" y="489.258832"/>
     <use style="fill:#4878d0;stroke:#ffffff;stroke-linejoin:miter;stroke-width:0.75;" x="382.993409" xlink:href="#m39b54ea203" y="435.840372"/>
     <use style="fill:#4878d0;stroke:#ffffff;stroke-linejoin:miter;stroke-width:0.75;" x="472.580955" xlink:href="#m39b54ea203" y="392.909448"/>
     <use style="fill:#4878d0;stroke:#ffffff;stroke-linejoin:miter;stroke-width:0.75;" x="562.1685" xlink:href="#m39b54ea203" y="358.422881"/>
     <use style="fill:#4878d0;stroke:#ffffff;stroke-linejoin:miter;stroke-width:0.75;" x="651.756045" xlink:href="#m39b54ea203" y="329.766133"/>
     <use style="fill:#4878d0;stroke:#ffffff;stroke-linejoin:miter;stroke-width:0.75;" x="741.343591" xlink:href="#m39b54ea203" y="306.925492"/>
     <use style="fill:#4878d0;stroke:#ffffff;stroke-linejoin:miter;stroke-width:0.75;" x="830.931136" xlink:href="#m39b54ea203" y="288.340985"/>
     <use style="fill:#4878d0;stroke:#ffffff;stroke-linejoin:miter;stroke-width:0.75;" x="920.518682" xlink:href="#m39b54ea203" y="265.944371"/>
     <use style="fill:#4878d0;stroke:#ffffff;stroke-linejoin:miter;stroke-width:0.75;" x="1010.106227" xlink:href="#m39b54ea203" y="255.768307"/>
    </g>
   </g>
   <g id="line2d_25">
    <path clip-path="url(#p9afbf9a1c0)" d="M 114.230773 270.937721 
L 203.818318 223.669693 
L 293.405864 179.09195 
L 382.993409 125.576848 
L 472.580955 136.403282 
L 562.1685 127.032344 
L 651.756045 119.969696 
L 741.343591 110.529542 
L 830.931136 102.56382 
L 920.518682 104.951773 
L 1010.106227 110.718906 
" style="fill:none;stroke:#ee854a;stroke-linecap:square;stroke-width:3;"/>
    <defs>
     <path d="M 0 4 
C 1.060812 4 2.078319 3.578535 2.828427 2.828427 
C 3.578535 2.078319 4 1.060812 4 0 
C 4 -1.060812 3.578535 -2.078319 2.828427 -2.828427 
C 2.078319 -3.578535 1.060812 -4 0 -4 
C -1.060812 -4 -2.078319 -3.578535 -2.828427 -2.828427 
C -3.578535 -2.078319 -4 -1.060812 -4 0 
C -4 1.060812 -3.578535 2.078319 -2.828427 2.828427 
C -2.078319 3.578535 -1.060812 4 0 4 
z
" id="mff70931e4a" style="stroke:#ffffff;stroke-width:0.75;"/>
    </defs>
    <g clip-path="url(#p9afbf9a1c0)">
     <use style="fill:#ee854a;stroke:#ffffff;stroke-width:0.75;" x="114.230773" xlink:href="#mff70931e4a" y="270.937721"/>
     <use style="fill:#ee854a;stroke:#ffffff;stroke-width:0.75;" x="203.818318" xlink:href="#mff70931e4a" y="223.669693"/>
     <use style="fill:#ee854a;stroke:#ffffff;stroke-width:0.75;" x="293.405864" xlink:href="#mff70931e4a" y="179.09195"/>
     <use style="fill:#ee854a;stroke:#ffffff;stroke-width:0.75;" x="382.993409" xlink:href="#mff70931e4a" y="125.576848"/>
     <use style="fill:#ee854a;stroke:#ffffff;stroke-width:0.75;" x="472.580955" xlink:href="#mff70931e4a" y="136.403282"/>
     <use style="fill:#ee854a;stroke:#ffffff;stroke-width:0.75;" x="562.1685" xlink:href="#mff70931e4a" y="127.032344"/>
     <use style="fill:#ee854a;stroke:#ffffff;stroke-width:0.75;" x="651.756045" xlink:href="#mff70931e4a" y="119.969696"/>
     <use style="fill:#ee854a;stroke:#ffffff;stroke-width:0.75;" x="741.343591" xlink:href="#mff70931e4a" y="110.529542"/>
     <use style="fill:#ee854a;stroke:#ffffff;stroke-width:0.75;" x="830.931136" xlink:href="#mff70931e4a" y="102.56382"/>
     <use style="fill:#ee854a;stroke:#ffffff;stroke-width:0.75;" x="920.518682" xlink:href="#mff70931e4a" y="104.951773"/>
     <use style="fill:#ee854a;stroke:#ffffff;stroke-width:0.75;" x="1010.106227" xlink:href="#mff70931e4a" y="110.718906"/>
    </g>
   </g>
   <g id="line2d_26">
    <path clip-path="url(#p9afbf9a1c0)" d="M 114.230773 53.937591 
L 203.818318 143.932159 
L 293.405864 122.718748 
L 382.993409 104.183214 
L 472.580955 95.617402 
L 562.1685 90.214633 
L 651.756045 85.031919 
L 741.343591 85.679676 
L 830.931136 75.703424 
L 920.518682 75.346897 
L 1010.106227 83.618867 
" style="fill:none;stroke:#ee854a;stroke-dasharray:12,4.5;stroke-dashoffset:0;stroke-width:3;"/>
    <defs>
     <path d="M -2 4 
L 0 2 
L 2 4 
L 4 2 
L 2 0 
L 4 -2 
L 2 -4 
L 0 -2 
L -2 -4 
L -4 -2 
L -2 0 
L -4 2 
z
" id="m4059253872" style="stroke:#ffffff;stroke-linejoin:miter;stroke-width:0.75;"/>
    </defs>
    <g clip-path="url(#p9afbf9a1c0)">
     <use style="fill:#ee854a;stroke:#ffffff;stroke-linejoin:miter;stroke-width:0.75;" x="114.230773" xlink:href="#m4059253872" y="53.937591"/>
     <use style="fill:#ee854a;stroke:#ffffff;stroke-linejoin:miter;stroke-width:0.75;" x="203.818318" xlink:href="#m4059253872" y="143.932159"/>
     <use style="fill:#ee854a;stroke:#ffffff;stroke-linejoin:miter;stroke-width:0.75;" x="293.405864" xlink:href="#m4059253872" y="122.718748"/>
     <use style="fill:#ee854a;stroke:#ffffff;stroke-linejoin:miter;stroke-width:0.75;" x="382.993409" xlink:href="#m4059253872" y="104.183214"/>
     <use style="fill:#ee854a;stroke:#ffffff;stroke-linejoin:miter;stroke-width:0.75;" x="472.580955" xlink:href="#m4059253872" y="95.617402"/>
     <use style="fill:#ee854a;stroke:#ffffff;stroke-linejoin:miter;stroke-width:0.75;" x="562.1685" xlink:href="#m4059253872" y="90.214633"/>
     <use style="fill:#ee854a;stroke:#ffffff;stroke-linejoin:miter;stroke-width:0.75;" x="651.756045" xlink:href="#m4059253872" y="85.031919"/>
     <use style="fill:#ee854a;stroke:#ffffff;stroke-linejoin:miter;stroke-width:0.75;" x="741.343591" xlink:href="#m4059253872" y="85.679676"/>
     <use style="fill:#ee854a;stroke:#ffffff;stroke-linejoin:miter;stroke-width:0.75;" x="830.931136" xlink:href="#m4059253872" y="75.703424"/>
     <use style="fill:#ee854a;stroke:#ffffff;stroke-linejoin:miter;stroke-width:0.75;" x="920.518682" xlink:href="#m4059253872" y="75.346897"/>
     <use style="fill:#ee854a;stroke:#ffffff;stroke-linejoin:miter;stroke-width:0.75;" x="1010.106227" xlink:href="#m4059253872" y="83.618867"/>
    </g>
   </g>
   <g id="line2d_27">
    <path clip-path="url(#p9afbf9a1c0)" d="M 114.230773 53.937591 
L 203.818318 59.771981 
L 293.405864 58.379171 
L 382.993409 56.310526 
L 472.580955 56.232821 
L 562.1685 56.597185 
L 651.756045 56.581513 
L 741.343591 58.568536 
L 830.931136 61.274491 
L 920.518682 53.937591 
L 1010.106227 53.937591 
" style="fill:none;stroke:#6acc64;stroke-linecap:square;stroke-width:3;"/>
    <defs>
     <path d="M 0 4 
C 1.060812 4 2.078319 3.578535 2.828427 2.828427 
C 3.578535 2.078319 4 1.060812 4 0 
C 4 -1.060812 3.578535 -2.078319 2.828427 -2.828427 
C 2.078319 -3.578535 1.060812 -4 0 -4 
C -1.060812 -4 -2.078319 -3.578535 -2.828427 -2.828427 
C -3.578535 -2.078319 -4 -1.060812 -4 0 
C -4 1.060812 -3.578535 2.078319 -2.828427 2.828427 
C -2.078319 3.578535 -1.060812 4 0 4 
z
" id="m8cb8721594" style="stroke:#ffffff;stroke-width:0.75;"/>
    </defs>
    <g clip-path="url(#p9afbf9a1c0)">
     <use style="fill:#6acc64;stroke:#ffffff;stroke-width:0.75;" x="114.230773" xlink:href="#m8cb8721594" y="53.937591"/>
     <use style="fill:#6acc64;stroke:#ffffff;stroke-width:0.75;" x="203.818318" xlink:href="#m8cb8721594" y="59.771981"/>
     <use style="fill:#6acc64;stroke:#ffffff;stroke-width:0.75;" x="293.405864" xlink:href="#m8cb8721594" y="58.379171"/>
     <use style="fill:#6acc64;stroke:#ffffff;stroke-width:0.75;" x="382.993409" xlink:href="#m8cb8721594" y="56.310526"/>
     <use style="fill:#6acc64;stroke:#ffffff;stroke-width:0.75;" x="472.580955" xlink:href="#m8cb8721594" y="56.232821"/>
     <use style="fill:#6acc64;stroke:#ffffff;stroke-width:0.75;" x="562.1685" xlink:href="#m8cb8721594" y="56.597185"/>
     <use style="fill:#6acc64;stroke:#ffffff;stroke-width:0.75;" x="651.756045" xlink:href="#m8cb8721594" y="56.581513"/>
     <use style="fill:#6acc64;stroke:#ffffff;stroke-width:0.75;" x="741.343591" xlink:href="#m8cb8721594" y="58.568536"/>
     <use style="fill:#6acc64;stroke:#ffffff;stroke-width:0.75;" x="830.931136" xlink:href="#m8cb8721594" y="61.274491"/>
     <use style="fill:#6acc64;stroke:#ffffff;stroke-width:0.75;" x="920.518682" xlink:href="#m8cb8721594" y="53.937591"/>
     <use style="fill:#6acc64;stroke:#ffffff;stroke-width:0.75;" x="1010.106227" xlink:href="#m8cb8721594" y="53.937591"/>
    </g>
   </g>
   <g id="line2d_28">
    <path clip-path="url(#p9afbf9a1c0)" d="M 114.230773 53.937591 
L 203.818318 57.316117 
L 293.405864 56.320974 
L 382.993409 55.664727 
L 472.580955 55.660809 
L 562.1685 55.270326 
L 651.756045 53.937591 
L 741.343591 58.568536 
L 830.931136 53.937591 
L 920.518682 53.937591 
L 1010.106227 53.937591 
" style="fill:none;stroke:#6acc64;stroke-dasharray:12,4.5;stroke-dashoffset:0;stroke-width:3;"/>
    <defs>
     <path d="M -2 4 
L 0 2 
L 2 4 
L 4 2 
L 2 0 
L 4 -2 
L 2 -4 
L 0 -2 
L -2 -4 
L -4 -2 
L -2 0 
L -4 2 
z
" id="m16e68996c0" style="stroke:#ffffff;stroke-linejoin:miter;stroke-width:0.75;"/>
    </defs>
    <g clip-path="url(#p9afbf9a1c0)">
     <use style="fill:#6acc64;stroke:#ffffff;stroke-linejoin:miter;stroke-width:0.75;" x="114.230773" xlink:href="#m16e68996c0" y="53.937591"/>
     <use style="fill:#6acc64;stroke:#ffffff;stroke-linejoin:miter;stroke-width:0.75;" x="203.818318" xlink:href="#m16e68996c0" y="57.316117"/>
     <use style="fill:#6acc64;stroke:#ffffff;stroke-linejoin:miter;stroke-width:0.75;" x="293.405864" xlink:href="#m16e68996c0" y="56.320974"/>
     <use style="fill:#6acc64;stroke:#ffffff;stroke-linejoin:miter;stroke-width:0.75;" x="382.993409" xlink:href="#m16e68996c0" y="55.664727"/>
     <use style="fill:#6acc64;stroke:#ffffff;stroke-linejoin:miter;stroke-width:0.75;" x="472.580955" xlink:href="#m16e68996c0" y="55.660809"/>
     <use style="fill:#6acc64;stroke:#ffffff;stroke-linejoin:miter;stroke-width:0.75;" x="562.1685" xlink:href="#m16e68996c0" y="55.270326"/>
     <use style="fill:#6acc64;stroke:#ffffff;stroke-linejoin:miter;stroke-width:0.75;" x="651.756045" xlink:href="#m16e68996c0" y="53.937591"/>
     <use style="fill:#6acc64;stroke:#ffffff;stroke-linejoin:miter;stroke-width:0.75;" x="741.343591" xlink:href="#m16e68996c0" y="58.568536"/>
     <use style="fill:#6acc64;stroke:#ffffff;stroke-linejoin:miter;stroke-width:0.75;" x="830.931136" xlink:href="#m16e68996c0" y="53.937591"/>
     <use style="fill:#6acc64;stroke:#ffffff;stroke-linejoin:miter;stroke-width:0.75;" x="920.518682" xlink:href="#m16e68996c0" y="53.937591"/>
     <use style="fill:#6acc64;stroke:#ffffff;stroke-linejoin:miter;stroke-width:0.75;" x="1010.106227" xlink:href="#m16e68996c0" y="53.937591"/>
    </g>
   </g>
   <g id="line2d_29"/>
   <g id="line2d_30"/>
   <g id="line2d_31"/>
   <g id="line2d_32"/>
   <g id="line2d_33"/>
   <g id="patch_3">
    <path d="M 69.437 659.527 
L 69.437 25.1 
" style="fill:none;stroke:#000000;stroke-linecap:square;stroke-linejoin:miter;stroke-width:0.8;"/>
   </g>
   <g id="patch_4">
    <path d="M 1054.9 659.527 
L 1054.9 25.1 
" style="fill:none;stroke:#000000;stroke-linecap:square;stroke-linejoin:miter;stroke-width:0.8;"/>
   </g>
   <g id="patch_5">
    <path d="M 69.437 659.527 
L 1054.9 659.527 
" style="fill:none;stroke:#000000;stroke-linecap:square;stroke-linejoin:miter;stroke-width:0.8;"/>
   </g>
   <g id="patch_6">
    <path d="M 69.437 25.1 
L 1054.9 25.1 
" style="fill:none;stroke:#000000;stroke-linecap:square;stroke-linejoin:miter;stroke-width:0.8;"/>
   </g>
   <g id="legend_1">
    <g id="patch_7">
     <path d="M 791.64 651.527 
L 1043.7 651.527 
Q 1046.9 651.527 1046.9 648.327 
L 1046.9 485.532 
Q 1046.9 482.332 1043.7 482.332 
L 791.64 482.332 
Q 788.44 482.332 788.44 485.532 
L 788.44 648.327 
Q 788.44 651.527 791.64 651.527 
z
" style="fill:#ffffff;opacity:0.8;stroke:#cccccc;stroke-linejoin:miter;"/>
    </g>
    <g id="text_14">
     <!-- Streamlength -->
     <g transform="translate(839.64 500.8895)scale(0.16 -0.16)">
      <defs>
       <path d="M 1172 4494 
L 1172 3500 
L 2356 3500 
L 2356 3053 
L 1172 3053 
L 1172 1153 
Q 1172 725 1289 603 
Q 1406 481 1766 481 
L 2356 481 
L 2356 0 
L 1766 0 
Q 1100 0 847 248 
Q 594 497 594 1153 
L 594 3053 
L 172 3053 
L 172 3500 
L 594 3500 
L 594 4494 
L 1172 4494 
z
" id="DejaVuSans-74" transform="scale(0.015625)"/>
       <path d="M 2194 1759 
Q 1497 1759 1228 1600 
Q 959 1441 959 1056 
Q 959 750 1161 570 
Q 1363 391 1709 391 
Q 2188 391 2477 730 
Q 2766 1069 2766 1631 
L 2766 1759 
L 2194 1759 
z
M 3341 1997 
L 3341 0 
L 2766 0 
L 2766 531 
Q 2569 213 2275 61 
Q 1981 -91 1556 -91 
Q 1019 -91 701 211 
Q 384 513 384 1019 
Q 384 1609 779 1909 
Q 1175 2209 1959 2209 
L 2766 2209 
L 2766 2266 
Q 2766 2663 2505 2880 
Q 2244 3097 1772 3097 
Q 1472 3097 1187 3025 
Q 903 2953 641 2809 
L 641 3341 
Q 956 3463 1253 3523 
Q 1550 3584 1831 3584 
Q 2591 3584 2966 3190 
Q 3341 2797 3341 1997 
z
" id="DejaVuSans-61" transform="scale(0.015625)"/>
       <path d="M 3328 2828 
Q 3544 3216 3844 3400 
Q 4144 3584 4550 3584 
Q 5097 3584 5394 3201 
Q 5691 2819 5691 2113 
L 5691 0 
L 5113 0 
L 5113 2094 
Q 5113 2597 4934 2840 
Q 4756 3084 4391 3084 
Q 3944 3084 3684 2787 
Q 3425 2491 3425 1978 
L 3425 0 
L 2847 0 
L 2847 2094 
Q 2847 2600 2669 2842 
Q 2491 3084 2119 3084 
Q 1678 3084 1418 2786 
Q 1159 2488 1159 1978 
L 1159 0 
L 581 0 
L 581 3500 
L 1159 3500 
L 1159 2956 
Q 1356 3278 1631 3431 
Q 1906 3584 2284 3584 
Q 2666 3584 2933 3390 
Q 3200 3197 3328 2828 
z
" id="DejaVuSans-6d" transform="scale(0.015625)"/>
       <path d="M 603 4863 
L 1178 4863 
L 1178 0 
L 603 0 
L 603 4863 
z
" id="DejaVuSans-6c" transform="scale(0.015625)"/>
       <path d="M 2906 1791 
Q 2906 2416 2648 2759 
Q 2391 3103 1925 3103 
Q 1463 3103 1205 2759 
Q 947 2416 947 1791 
Q 947 1169 1205 825 
Q 1463 481 1925 481 
Q 2391 481 2648 825 
Q 2906 1169 2906 1791 
z
M 3481 434 
Q 3481 -459 3084 -895 
Q 2688 -1331 1869 -1331 
Q 1566 -1331 1297 -1286 
Q 1028 -1241 775 -1147 
L 775 -588 
Q 1028 -725 1275 -790 
Q 1522 -856 1778 -856 
Q 2344 -856 2625 -561 
Q 2906 -266 2906 331 
L 2906 616 
Q 2728 306 2450 153 
Q 2172 0 1784 0 
Q 1141 0 747 490 
Q 353 981 353 1791 
Q 353 2603 747 3093 
Q 1141 3584 1784 3584 
Q 2172 3584 2450 3431 
Q 2728 3278 2906 2969 
L 2906 3500 
L 3481 3500 
L 3481 434 
z
" id="DejaVuSans-67" transform="scale(0.015625)"/>
       <path d="M 3513 2113 
L 3513 0 
L 2938 0 
L 2938 2094 
Q 2938 2591 2744 2837 
Q 2550 3084 2163 3084 
Q 1697 3084 1428 2787 
Q 1159 2491 1159 1978 
L 1159 0 
L 581 0 
L 581 4863 
L 1159 4863 
L 1159 2956 
Q 1366 3272 1645 3428 
Q 1925 3584 2291 3584 
Q 2894 3584 3203 3211 
Q 3513 2838 3513 2113 
z
" id="DejaVuSans-68" transform="scale(0.015625)"/>
      </defs>
      <use xlink:href="#DejaVuSans-53"/>
      <use x="63.476562" xlink:href="#DejaVuSans-74"/>
      <use x="102.685547" xlink:href="#DejaVuSans-72"/>
      <use x="141.548828" xlink:href="#DejaVuSans-65"/>
      <use x="203.072266" xlink:href="#DejaVuSans-61"/>
      <use x="264.351562" xlink:href="#DejaVuSans-6d"/>
      <use x="361.763672" xlink:href="#DejaVuSans-6c"/>
      <use x="389.546875" xlink:href="#DejaVuSans-65"/>
      <use x="451.070312" xlink:href="#DejaVuSans-6e"/>
      <use x="514.449219" xlink:href="#DejaVuSans-67"/>
      <use x="577.925781" xlink:href="#DejaVuSans-74"/>
      <use x="617.134766" xlink:href="#DejaVuSans-68"/>
     </g>
    </g>
    <g id="line2d_34">
     <path d="M 794.84 518.7745 
L 826.84 518.7745 
" style="fill:none;stroke:#4878d0;stroke-linecap:square;stroke-width:1.5;"/>
    </g>
    <g id="line2d_35"/>
    <g id="text_15">
     <!-- 100000 -->
     <g transform="translate(839.64 524.3745)scale(0.16 -0.16)">
      <use xlink:href="#DejaVuSans-31"/>
      <use x="63.623047" xlink:href="#DejaVuSans-30"/>
      <use x="127.246094" xlink:href="#DejaVuSans-30"/>
      <use x="190.869141" xlink:href="#DejaVuSans-30"/>
      <use x="254.492188" xlink:href="#DejaVuSans-30"/>
      <use x="318.115234" xlink:href="#DejaVuSans-30"/>
     </g>
    </g>
    <g id="line2d_36">
     <path d="M 794.84 542.2595 
L 826.84 542.2595 
" style="fill:none;stroke:#ee854a;stroke-linecap:square;stroke-width:1.5;"/>
    </g>
    <g id="line2d_37"/>
    <g id="text_16">
     <!-- 1000000 -->
     <g transform="translate(839.64 547.8595)scale(0.16 -0.16)">
      <use xlink:href="#DejaVuSans-31"/>
      <use x="63.623047" xlink:href="#DejaVuSans-30"/>
      <use x="127.246094" xlink:href="#DejaVuSans-30"/>
      <use x="190.869141" xlink:href="#DejaVuSans-30"/>
      <use x="254.492188" xlink:href="#DejaVuSans-30"/>
      <use x="318.115234" xlink:href="#DejaVuSans-30"/>
      <use x="381.738281" xlink:href="#DejaVuSans-30"/>
     </g>
    </g>
    <g id="line2d_38">
     <path d="M 794.84 565.7445 
L 826.84 565.7445 
" style="fill:none;stroke:#6acc64;stroke-linecap:square;stroke-width:1.5;"/>
    </g>
    <g id="line2d_39"/>
    <g id="text_17">
     <!-- 30000000 -->
     <g transform="translate(839.64 571.3445)scale(0.16 -0.16)">
      <use xlink:href="#DejaVuSans-33"/>
      <use x="63.623047" xlink:href="#DejaVuSans-30"/>
      <use x="127.246094" xlink:href="#DejaVuSans-30"/>
      <use x="190.869141" xlink:href="#DejaVuSans-30"/>
      <use x="254.492188" xlink:href="#DejaVuSans-30"/>
      <use x="318.115234" xlink:href="#DejaVuSans-30"/>
      <use x="381.738281" xlink:href="#DejaVuSans-30"/>
      <use x="445.361328" xlink:href="#DejaVuSans-30"/>
     </g>
    </g>
    <g id="text_18">
     <!-- Algorithm -->
     <g transform="translate(839.64 594.8295)scale(0.16 -0.16)">
      <defs>
       <path d="M 2188 4044 
L 1331 1722 
L 3047 1722 
L 2188 4044 
z
M 1831 4666 
L 2547 4666 
L 4325 0 
L 3669 0 
L 3244 1197 
L 1141 1197 
L 716 0 
L 50 0 
L 1831 4666 
z
" id="DejaVuSans-41" transform="scale(0.015625)"/>
      </defs>
      <use xlink:href="#DejaVuSans-41"/>
      <use x="68.408203" xlink:href="#DejaVuSans-6c"/>
      <use x="96.191406" xlink:href="#DejaVuSans-67"/>
      <use x="159.667969" xlink:href="#DejaVuSans-6f"/>
      <use x="220.849609" xlink:href="#DejaVuSans-72"/>
      <use x="261.962891" xlink:href="#DejaVuSans-69"/>
      <use x="289.746094" xlink:href="#DejaVuSans-74"/>
      <use x="328.955078" xlink:href="#DejaVuSans-68"/>
      <use x="392.333984" xlink:href="#DejaVuSans-6d"/>
     </g>
    </g>
    <g id="line2d_40">
     <path d="M 794.84 612.7145 
L 826.84 612.7145 
" style="fill:none;stroke:#333333;stroke-linecap:square;stroke-width:1.5;"/>
    </g>
    <g id="line2d_41">
     <defs>
      <path d="M 0 3 
C 0.795609 3 1.55874 2.683901 2.12132 2.12132 
C 2.683901 1.55874 3 0.795609 3 0 
C 3 -0.795609 2.683901 -1.55874 2.12132 -2.12132 
C 1.55874 -2.683901 0.795609 -3 0 -3 
C -0.795609 -3 -1.55874 -2.683901 -2.12132 -2.12132 
C -2.683901 -1.55874 -3 -0.795609 -3 0 
C -3 0.795609 -2.683901 1.55874 -2.12132 2.12132 
C -1.55874 2.683901 -0.795609 3 0 3 
z
" id="m89cd444e28" style="stroke:#333333;"/>
     </defs>
     <g>
      <use style="fill:#333333;stroke:#333333;" x="810.84" xlink:href="#m89cd444e28" y="612.7145"/>
     </g>
    </g>
    <g id="text_19">
     <!-- Delegation Space-Saving -->
     <g transform="translate(839.64 618.3145)scale(0.16 -0.16)">
      <defs>
       <path d="M 1259 4147 
L 1259 519 
L 2022 519 
Q 2988 519 3436 956 
Q 3884 1394 3884 2338 
Q 3884 3275 3436 3711 
Q 2988 4147 2022 4147 
L 1259 4147 
z
M 628 4666 
L 1925 4666 
Q 3281 4666 3915 4102 
Q 4550 3538 4550 2338 
Q 4550 1131 3912 565 
Q 3275 0 1925 0 
L 628 0 
L 628 4666 
z
" id="DejaVuSans-44" transform="scale(0.015625)"/>
       <path id="DejaVuSans-20" transform="scale(0.015625)"/>
       <path d="M 1159 525 
L 1159 -1331 
L 581 -1331 
L 581 3500 
L 1159 3500 
L 1159 2969 
Q 1341 3281 1617 3432 
Q 1894 3584 2278 3584 
Q 2916 3584 3314 3078 
Q 3713 2572 3713 1747 
Q 3713 922 3314 415 
Q 2916 -91 2278 -91 
Q 1894 -91 1617 61 
Q 1341 213 1159 525 
z
M 3116 1747 
Q 3116 2381 2855 2742 
Q 2594 3103 2138 3103 
Q 1681 3103 1420 2742 
Q 1159 2381 1159 1747 
Q 1159 1113 1420 752 
Q 1681 391 2138 391 
Q 2594 391 2855 752 
Q 3116 1113 3116 1747 
z
" id="DejaVuSans-70" transform="scale(0.015625)"/>
       <path d="M 313 2009 
L 1997 2009 
L 1997 1497 
L 313 1497 
L 313 2009 
z
" id="DejaVuSans-2d" transform="scale(0.015625)"/>
       <path d="M 191 3500 
L 800 3500 
L 1894 563 
L 2988 3500 
L 3597 3500 
L 2284 0 
L 1503 0 
L 191 3500 
z
" id="DejaVuSans-76" transform="scale(0.015625)"/>
      </defs>
      <use xlink:href="#DejaVuSans-44"/>
      <use x="77.001953" xlink:href="#DejaVuSans-65"/>
      <use x="138.525391" xlink:href="#DejaVuSans-6c"/>
      <use x="166.308594" xlink:href="#DejaVuSans-65"/>
      <use x="227.832031" xlink:href="#DejaVuSans-67"/>
      <use x="291.308594" xlink:href="#DejaVuSans-61"/>
      <use x="352.587891" xlink:href="#DejaVuSans-74"/>
      <use x="391.796875" xlink:href="#DejaVuSans-69"/>
      <use x="419.580078" xlink:href="#DejaVuSans-6f"/>
      <use x="480.761719" xlink:href="#DejaVuSans-6e"/>
      <use x="544.140625" xlink:href="#DejaVuSans-20"/>
      <use x="575.927734" xlink:href="#DejaVuSans-53"/>
      <use x="639.404297" xlink:href="#DejaVuSans-70"/>
      <use x="702.880859" xlink:href="#DejaVuSans-61"/>
      <use x="764.160156" xlink:href="#DejaVuSans-63"/>
      <use x="819.140625" xlink:href="#DejaVuSans-65"/>
      <use x="880.664062" xlink:href="#DejaVuSans-2d"/>
      <use x="916.748047" xlink:href="#DejaVuSans-53"/>
      <use x="980.224609" xlink:href="#DejaVuSans-61"/>
      <use x="1041.503906" xlink:href="#DejaVuSans-76"/>
      <use x="1100.683594" xlink:href="#DejaVuSans-69"/>
      <use x="1128.466797" xlink:href="#DejaVuSans-6e"/>
      <use x="1191.845703" xlink:href="#DejaVuSans-67"/>
     </g>
    </g>
    <g id="line2d_42">
     <path d="M 794.84 636.1995 
L 826.84 636.1995 
" style="fill:none;stroke:#333333;stroke-dasharray:6,2.25;stroke-dashoffset:0;stroke-width:1.5;"/>
    </g>
    <g id="line2d_43">
     <defs>
      <path d="M -1.5 3 
L 0 1.5 
L 1.5 3 
L 3 1.5 
L 1.5 0 
L 3 -1.5 
L 1.5 -3 
L 0 -1.5 
L -1.5 -3 
L -3 -1.5 
L -1.5 0 
L -3 1.5 
z
" id="m05e84c7b4f" style="stroke:#333333;stroke-linejoin:miter;"/>
     </defs>
     <g>
      <use style="fill:#333333;stroke:#333333;stroke-linejoin:miter;" x="810.84" xlink:href="#m05e84c7b4f" y="636.1995"/>
     </g>
    </g>
    <g id="text_20">
     <!-- Single Space-Saving -->
     <g transform="translate(839.64 641.7995)scale(0.16 -0.16)">
      <use xlink:href="#DejaVuSans-53"/>
      <use x="63.476562" xlink:href="#DejaVuSans-69"/>
      <use x="91.259766" xlink:href="#DejaVuSans-6e"/>
      <use x="154.638672" xlink:href="#DejaVuSans-67"/>
      <use x="218.115234" xlink:href="#DejaVuSans-6c"/>
      <use x="245.898438" xlink:href="#DejaVuSans-65"/>
      <use x="307.421875" xlink:href="#DejaVuSans-20"/>
      <use x="339.208984" xlink:href="#DejaVuSans-53"/>
      <use x="402.685547" xlink:href="#DejaVuSans-70"/>
      <use x="466.162109" xlink:href="#DejaVuSans-61"/>
      <use x="527.441406" xlink:href="#DejaVuSans-63"/>
      <use x="582.421875" xlink:href="#DejaVuSans-65"/>
      <use x="643.945312" xlink:href="#DejaVuSans-2d"/>
      <use x="680.029297" xlink:href="#DejaVuSans-53"/>
      <use x="743.505859" xlink:href="#DejaVuSans-61"/>
      <use x="804.785156" xlink:href="#DejaVuSans-76"/>
      <use x="863.964844" xlink:href="#DejaVuSans-69"/>
      <use x="891.748047" xlink:href="#DejaVuSans-6e"/>
      <use x="955.126953" xlink:href="#DejaVuSans-67"/>
     </g>
    </g>
   </g>
  </g>
 </g>
 <defs>
  <clipPath id="p9afbf9a1c0">
   <rect height="634.427" width="985.463" x="69.437" y="25.1"/>
  </clipPath>
 </defs>
</svg>
